%TF.GenerationSoftware,KiCad,Pcbnew,6.0.11-2627ca5db0~126~ubuntu22.04.1*%
%TF.CreationDate,2023-03-28T23:40:48+03:00*%
%TF.ProjectId,usb-atx-ctrl-redux,7573622d-6174-4782-9d63-74726c2d7265,rev?*%
%TF.SameCoordinates,Original*%
%TF.FileFunction,Drillmap*%
%TF.FilePolarity,Positive*%
%FSLAX45Y45*%
G04 Gerber Fmt 4.5, Leading zero omitted, Abs format (unit mm)*
G04 Created by KiCad (PCBNEW 6.0.11-2627ca5db0~126~ubuntu22.04.1) date 2023-03-28 23:40:48*
%MOMM*%
%LPD*%
G01*
G04 APERTURE LIST*
%ADD10C,0.100000*%
%ADD11C,0.200000*%
%ADD12C,0.040000*%
%ADD13C,0.050000*%
%ADD14C,0.076000*%
G04 APERTURE END LIST*
D10*
X11818620Y-5013960D02*
X14239240Y-5013960D01*
X14239240Y-5013960D02*
X14239240Y-9906000D01*
X14239240Y-9906000D02*
X11818620Y-9906000D01*
X11818620Y-9906000D02*
X11818620Y-5013960D01*
D11*
D12*
X12060240Y-6454460D02*
X12100240Y-6494460D01*
X12100240Y-6454460D02*
X12060240Y-6494460D01*
X12060240Y-6962460D02*
X12100240Y-7002460D01*
X12100240Y-6962460D02*
X12060240Y-7002460D01*
X12077040Y-5706040D02*
X12117040Y-5746040D01*
X12117040Y-5706040D02*
X12077040Y-5746040D01*
X12077040Y-7595094D02*
X12117040Y-7635094D01*
X12117040Y-7595094D02*
X12077040Y-7635094D01*
X12413300Y-8118160D02*
X12453300Y-8158160D01*
X12453300Y-8118160D02*
X12413300Y-8158160D01*
X12530140Y-7673660D02*
X12570140Y-7713660D01*
X12570140Y-7673660D02*
X12530140Y-7713660D01*
X12725720Y-7465380D02*
X12765720Y-7505380D01*
X12765720Y-7465380D02*
X12725720Y-7505380D01*
X13442000Y-7785420D02*
X13482000Y-7825420D01*
X13482000Y-7785420D02*
X13442000Y-7825420D01*
X13600920Y-6976040D02*
X13640920Y-7016040D01*
X13640920Y-6976040D02*
X13600920Y-7016040D01*
X13931920Y-7230040D02*
X13971920Y-7270040D01*
X13971920Y-7230040D02*
X13931920Y-7270040D01*
X13950000Y-6459540D02*
X13990000Y-6499540D01*
X13990000Y-6459540D02*
X13950000Y-6499540D01*
X13950000Y-6967540D02*
X13990000Y-7007540D01*
X13990000Y-6967540D02*
X13950000Y-7007540D01*
D13*
X12098280Y-9545320D02*
G75*
G03*
X12098280Y-9545320I-25000J0D01*
G01*
D11*
X12098280Y-9570320D02*
X12098280Y-9520320D01*
X12048280Y-9570320D02*
X12048280Y-9520320D01*
X12098280Y-9520320D02*
G75*
G03*
X12048280Y-9520320I-25000J0D01*
G01*
X12048280Y-9570320D02*
G75*
G03*
X12098280Y-9570320I25000J0D01*
G01*
D13*
X12098820Y-8940800D02*
G75*
G03*
X12098820Y-8940800I-25000J0D01*
G01*
D11*
X12098820Y-8965800D02*
X12098820Y-8915800D01*
X12048820Y-8965800D02*
X12048820Y-8915800D01*
X12098820Y-8915800D02*
G75*
G03*
X12048820Y-8915800I-25000J0D01*
G01*
X12048820Y-8965800D02*
G75*
G03*
X12098820Y-8965800I25000J0D01*
G01*
D13*
X12298280Y-9418320D02*
G75*
G03*
X12298280Y-9418320I-25000J0D01*
G01*
D11*
X12298280Y-9443320D02*
X12298280Y-9393320D01*
X12248280Y-9443320D02*
X12248280Y-9393320D01*
X12298280Y-9393320D02*
G75*
G03*
X12248280Y-9393320I-25000J0D01*
G01*
X12248280Y-9443320D02*
G75*
G03*
X12298280Y-9443320I25000J0D01*
G01*
D13*
X12298280Y-9672320D02*
G75*
G03*
X12298280Y-9672320I-25000J0D01*
G01*
D11*
X12298280Y-9697320D02*
X12298280Y-9647320D01*
X12248280Y-9697320D02*
X12248280Y-9647320D01*
X12298280Y-9647320D02*
G75*
G03*
X12248280Y-9647320I-25000J0D01*
G01*
X12248280Y-9697320D02*
G75*
G03*
X12298280Y-9697320I25000J0D01*
G01*
D13*
X12298820Y-8813800D02*
G75*
G03*
X12298820Y-8813800I-25000J0D01*
G01*
D11*
X12298820Y-8838800D02*
X12298820Y-8788800D01*
X12248820Y-8838800D02*
X12248820Y-8788800D01*
X12298820Y-8788800D02*
G75*
G03*
X12248820Y-8788800I-25000J0D01*
G01*
X12248820Y-8838800D02*
G75*
G03*
X12298820Y-8838800I25000J0D01*
G01*
D13*
X12298820Y-9067800D02*
G75*
G03*
X12298820Y-9067800I-25000J0D01*
G01*
D11*
X12298820Y-9092800D02*
X12298820Y-9042800D01*
X12248820Y-9092800D02*
X12248820Y-9042800D01*
X12298820Y-9042800D02*
G75*
G03*
X12248820Y-9042800I-25000J0D01*
G01*
X12248820Y-9092800D02*
G75*
G03*
X12298820Y-9092800I25000J0D01*
G01*
D14*
X12838710Y-8400420D02*
X12838710Y-8476420D01*
X12800710Y-8438420D02*
X12876710Y-8438420D01*
X12965710Y-8146420D02*
X12965710Y-8222420D01*
X12927710Y-8184420D02*
X13003710Y-8184420D01*
X13092710Y-8400420D02*
X13092710Y-8476420D01*
X13054710Y-8438420D02*
X13130710Y-8438420D01*
X13219710Y-8146420D02*
X13219710Y-8222420D01*
X13181710Y-8184420D02*
X13257710Y-8184420D01*
X13346710Y-8400420D02*
X13346710Y-8476420D01*
X13308710Y-8438420D02*
X13384710Y-8438420D01*
X13473710Y-8146420D02*
X13473710Y-8222420D01*
X13435710Y-8184420D02*
X13511710Y-8184420D01*
X13600710Y-8400420D02*
X13600710Y-8476420D01*
X13562710Y-8438420D02*
X13638710Y-8438420D01*
X13727710Y-8146420D02*
X13727710Y-8222420D01*
X13689710Y-8184420D02*
X13765710Y-8184420D01*
D11*
X12071239Y-10221476D02*
X12071239Y-10021476D01*
X12118858Y-10021476D01*
X12147429Y-10031000D01*
X12166477Y-10050048D01*
X12176001Y-10069095D01*
X12185525Y-10107190D01*
X12185525Y-10135762D01*
X12176001Y-10173857D01*
X12166477Y-10192905D01*
X12147429Y-10211952D01*
X12118858Y-10221476D01*
X12071239Y-10221476D01*
X12271239Y-10221476D02*
X12271239Y-10088143D01*
X12271239Y-10126238D02*
X12280763Y-10107190D01*
X12290287Y-10097667D01*
X12309334Y-10088143D01*
X12328382Y-10088143D01*
X12395048Y-10221476D02*
X12395048Y-10088143D01*
X12395048Y-10021476D02*
X12385525Y-10031000D01*
X12395048Y-10040524D01*
X12404572Y-10031000D01*
X12395048Y-10021476D01*
X12395048Y-10040524D01*
X12518858Y-10221476D02*
X12499810Y-10211952D01*
X12490287Y-10192905D01*
X12490287Y-10021476D01*
X12623620Y-10221476D02*
X12604572Y-10211952D01*
X12595048Y-10192905D01*
X12595048Y-10021476D01*
X12852191Y-10221476D02*
X12852191Y-10021476D01*
X12918858Y-10164333D01*
X12985525Y-10021476D01*
X12985525Y-10221476D01*
X13166477Y-10221476D02*
X13166477Y-10116714D01*
X13156953Y-10097667D01*
X13137906Y-10088143D01*
X13099810Y-10088143D01*
X13080763Y-10097667D01*
X13166477Y-10211952D02*
X13147429Y-10221476D01*
X13099810Y-10221476D01*
X13080763Y-10211952D01*
X13071239Y-10192905D01*
X13071239Y-10173857D01*
X13080763Y-10154810D01*
X13099810Y-10145286D01*
X13147429Y-10145286D01*
X13166477Y-10135762D01*
X13261715Y-10088143D02*
X13261715Y-10288143D01*
X13261715Y-10097667D02*
X13280763Y-10088143D01*
X13318858Y-10088143D01*
X13337906Y-10097667D01*
X13347429Y-10107190D01*
X13356953Y-10126238D01*
X13356953Y-10183381D01*
X13347429Y-10202429D01*
X13337906Y-10211952D01*
X13318858Y-10221476D01*
X13280763Y-10221476D01*
X13261715Y-10211952D01*
X13442668Y-10202429D02*
X13452191Y-10211952D01*
X13442668Y-10221476D01*
X13433144Y-10211952D01*
X13442668Y-10202429D01*
X13442668Y-10221476D01*
X13442668Y-10097667D02*
X13452191Y-10107190D01*
X13442668Y-10116714D01*
X13433144Y-10107190D01*
X13442668Y-10097667D01*
X13442668Y-10116714D01*
D12*
X11773620Y-10531000D02*
X11813620Y-10571000D01*
X11813620Y-10531000D02*
X11773620Y-10571000D01*
D11*
X12109334Y-10441476D02*
X12128382Y-10441476D01*
X12147429Y-10451000D01*
X12156953Y-10460524D01*
X12166477Y-10479571D01*
X12176001Y-10517667D01*
X12176001Y-10565286D01*
X12166477Y-10603381D01*
X12156953Y-10622429D01*
X12147429Y-10631952D01*
X12128382Y-10641476D01*
X12109334Y-10641476D01*
X12090287Y-10631952D01*
X12080763Y-10622429D01*
X12071239Y-10603381D01*
X12061715Y-10565286D01*
X12061715Y-10517667D01*
X12071239Y-10479571D01*
X12080763Y-10460524D01*
X12090287Y-10451000D01*
X12109334Y-10441476D01*
X12261715Y-10622429D02*
X12271239Y-10631952D01*
X12261715Y-10641476D01*
X12252191Y-10631952D01*
X12261715Y-10622429D01*
X12261715Y-10641476D01*
X12442668Y-10508143D02*
X12442668Y-10641476D01*
X12395048Y-10431952D02*
X12347429Y-10574810D01*
X12471239Y-10574810D01*
X12585525Y-10441476D02*
X12604572Y-10441476D01*
X12623620Y-10451000D01*
X12633144Y-10460524D01*
X12642668Y-10479571D01*
X12652191Y-10517667D01*
X12652191Y-10565286D01*
X12642668Y-10603381D01*
X12633144Y-10622429D01*
X12623620Y-10631952D01*
X12604572Y-10641476D01*
X12585525Y-10641476D01*
X12566477Y-10631952D01*
X12556953Y-10622429D01*
X12547429Y-10603381D01*
X12537906Y-10565286D01*
X12537906Y-10517667D01*
X12547429Y-10479571D01*
X12556953Y-10460524D01*
X12566477Y-10451000D01*
X12585525Y-10441476D01*
X12776001Y-10441476D02*
X12795048Y-10441476D01*
X12814096Y-10451000D01*
X12823620Y-10460524D01*
X12833144Y-10479571D01*
X12842668Y-10517667D01*
X12842668Y-10565286D01*
X12833144Y-10603381D01*
X12823620Y-10622429D01*
X12814096Y-10631952D01*
X12795048Y-10641476D01*
X12776001Y-10641476D01*
X12756953Y-10631952D01*
X12747429Y-10622429D01*
X12737906Y-10603381D01*
X12728382Y-10565286D01*
X12728382Y-10517667D01*
X12737906Y-10479571D01*
X12747429Y-10460524D01*
X12756953Y-10451000D01*
X12776001Y-10441476D01*
X12928382Y-10641476D02*
X12928382Y-10508143D01*
X12928382Y-10527190D02*
X12937906Y-10517667D01*
X12956953Y-10508143D01*
X12985525Y-10508143D01*
X13004572Y-10517667D01*
X13014096Y-10536714D01*
X13014096Y-10641476D01*
X13014096Y-10536714D02*
X13023620Y-10517667D01*
X13042668Y-10508143D01*
X13071239Y-10508143D01*
X13090287Y-10517667D01*
X13099810Y-10536714D01*
X13099810Y-10641476D01*
X13195048Y-10641476D02*
X13195048Y-10508143D01*
X13195048Y-10527190D02*
X13204572Y-10517667D01*
X13223620Y-10508143D01*
X13252191Y-10508143D01*
X13271239Y-10517667D01*
X13280763Y-10536714D01*
X13280763Y-10641476D01*
X13280763Y-10536714D02*
X13290287Y-10517667D01*
X13309334Y-10508143D01*
X13337906Y-10508143D01*
X13356953Y-10517667D01*
X13366477Y-10536714D01*
X13366477Y-10641476D01*
X13756953Y-10431952D02*
X13585525Y-10689095D01*
X14014096Y-10441476D02*
X14033144Y-10441476D01*
X14052191Y-10451000D01*
X14061715Y-10460524D01*
X14071239Y-10479571D01*
X14080763Y-10517667D01*
X14080763Y-10565286D01*
X14071239Y-10603381D01*
X14061715Y-10622429D01*
X14052191Y-10631952D01*
X14033144Y-10641476D01*
X14014096Y-10641476D01*
X13995048Y-10631952D01*
X13985525Y-10622429D01*
X13976001Y-10603381D01*
X13966477Y-10565286D01*
X13966477Y-10517667D01*
X13976001Y-10479571D01*
X13985525Y-10460524D01*
X13995048Y-10451000D01*
X14014096Y-10441476D01*
X14166477Y-10622429D02*
X14176001Y-10631952D01*
X14166477Y-10641476D01*
X14156953Y-10631952D01*
X14166477Y-10622429D01*
X14166477Y-10641476D01*
X14299810Y-10441476D02*
X14318858Y-10441476D01*
X14337906Y-10451000D01*
X14347429Y-10460524D01*
X14356953Y-10479571D01*
X14366477Y-10517667D01*
X14366477Y-10565286D01*
X14356953Y-10603381D01*
X14347429Y-10622429D01*
X14337906Y-10631952D01*
X14318858Y-10641476D01*
X14299810Y-10641476D01*
X14280763Y-10631952D01*
X14271239Y-10622429D01*
X14261715Y-10603381D01*
X14252191Y-10565286D01*
X14252191Y-10517667D01*
X14261715Y-10479571D01*
X14271239Y-10460524D01*
X14280763Y-10451000D01*
X14299810Y-10441476D01*
X14556953Y-10641476D02*
X14442668Y-10641476D01*
X14499810Y-10641476D02*
X14499810Y-10441476D01*
X14480763Y-10470048D01*
X14461715Y-10489095D01*
X14442668Y-10498619D01*
X14737906Y-10441476D02*
X14642668Y-10441476D01*
X14633144Y-10536714D01*
X14642668Y-10527190D01*
X14661715Y-10517667D01*
X14709334Y-10517667D01*
X14728382Y-10527190D01*
X14737906Y-10536714D01*
X14747429Y-10555762D01*
X14747429Y-10603381D01*
X14737906Y-10622429D01*
X14728382Y-10631952D01*
X14709334Y-10641476D01*
X14661715Y-10641476D01*
X14642668Y-10631952D01*
X14633144Y-10622429D01*
X14814096Y-10441476D02*
X14947429Y-10441476D01*
X14861715Y-10641476D01*
X15014096Y-10441476D02*
X15014096Y-10479571D01*
X15090287Y-10441476D02*
X15090287Y-10479571D01*
X15385525Y-10717667D02*
X15376001Y-10708143D01*
X15356953Y-10679571D01*
X15347429Y-10660524D01*
X15337906Y-10631952D01*
X15328382Y-10584333D01*
X15328382Y-10546238D01*
X15337906Y-10498619D01*
X15347429Y-10470048D01*
X15356953Y-10451000D01*
X15376001Y-10422429D01*
X15385525Y-10412905D01*
X15566477Y-10641476D02*
X15452191Y-10641476D01*
X15509334Y-10641476D02*
X15509334Y-10441476D01*
X15490287Y-10470048D01*
X15471239Y-10489095D01*
X15452191Y-10498619D01*
X15642668Y-10460524D02*
X15652191Y-10451000D01*
X15671239Y-10441476D01*
X15718858Y-10441476D01*
X15737906Y-10451000D01*
X15747429Y-10460524D01*
X15756953Y-10479571D01*
X15756953Y-10498619D01*
X15747429Y-10527190D01*
X15633144Y-10641476D01*
X15756953Y-10641476D01*
X15995048Y-10641476D02*
X15995048Y-10441476D01*
X16080763Y-10641476D02*
X16080763Y-10536714D01*
X16071239Y-10517667D01*
X16052191Y-10508143D01*
X16023620Y-10508143D01*
X16004572Y-10517667D01*
X15995048Y-10527190D01*
X16204572Y-10641476D02*
X16185525Y-10631952D01*
X16176001Y-10622429D01*
X16166477Y-10603381D01*
X16166477Y-10546238D01*
X16176001Y-10527190D01*
X16185525Y-10517667D01*
X16204572Y-10508143D01*
X16233144Y-10508143D01*
X16252191Y-10517667D01*
X16261715Y-10527190D01*
X16271239Y-10546238D01*
X16271239Y-10603381D01*
X16261715Y-10622429D01*
X16252191Y-10631952D01*
X16233144Y-10641476D01*
X16204572Y-10641476D01*
X16385525Y-10641476D02*
X16366477Y-10631952D01*
X16356953Y-10612905D01*
X16356953Y-10441476D01*
X16537906Y-10631952D02*
X16518858Y-10641476D01*
X16480763Y-10641476D01*
X16461715Y-10631952D01*
X16452191Y-10612905D01*
X16452191Y-10536714D01*
X16461715Y-10517667D01*
X16480763Y-10508143D01*
X16518858Y-10508143D01*
X16537906Y-10517667D01*
X16547429Y-10536714D01*
X16547429Y-10555762D01*
X16452191Y-10574810D01*
X16623620Y-10631952D02*
X16642668Y-10641476D01*
X16680763Y-10641476D01*
X16699810Y-10631952D01*
X16709334Y-10612905D01*
X16709334Y-10603381D01*
X16699810Y-10584333D01*
X16680763Y-10574810D01*
X16652191Y-10574810D01*
X16633144Y-10565286D01*
X16623620Y-10546238D01*
X16623620Y-10536714D01*
X16633144Y-10517667D01*
X16652191Y-10508143D01*
X16680763Y-10508143D01*
X16699810Y-10517667D01*
X16776001Y-10717667D02*
X16785525Y-10708143D01*
X16804572Y-10679571D01*
X16814096Y-10660524D01*
X16823620Y-10631952D01*
X16833144Y-10584333D01*
X16833144Y-10546238D01*
X16823620Y-10498619D01*
X16814096Y-10470048D01*
X16804572Y-10451000D01*
X16785525Y-10422429D01*
X16776001Y-10412905D01*
D13*
X11813620Y-10815000D02*
G75*
G03*
X11813620Y-10815000I-25000J0D01*
G01*
D11*
X12109334Y-10705476D02*
X12128382Y-10705476D01*
X12147429Y-10715000D01*
X12156953Y-10724524D01*
X12166477Y-10743571D01*
X12176001Y-10781667D01*
X12176001Y-10829286D01*
X12166477Y-10867381D01*
X12156953Y-10886429D01*
X12147429Y-10895952D01*
X12128382Y-10905476D01*
X12109334Y-10905476D01*
X12090287Y-10895952D01*
X12080763Y-10886429D01*
X12071239Y-10867381D01*
X12061715Y-10829286D01*
X12061715Y-10781667D01*
X12071239Y-10743571D01*
X12080763Y-10724524D01*
X12090287Y-10715000D01*
X12109334Y-10705476D01*
X12261715Y-10886429D02*
X12271239Y-10895952D01*
X12261715Y-10905476D01*
X12252191Y-10895952D01*
X12261715Y-10886429D01*
X12261715Y-10905476D01*
X12452191Y-10705476D02*
X12356953Y-10705476D01*
X12347429Y-10800714D01*
X12356953Y-10791190D01*
X12376001Y-10781667D01*
X12423620Y-10781667D01*
X12442668Y-10791190D01*
X12452191Y-10800714D01*
X12461715Y-10819762D01*
X12461715Y-10867381D01*
X12452191Y-10886429D01*
X12442668Y-10895952D01*
X12423620Y-10905476D01*
X12376001Y-10905476D01*
X12356953Y-10895952D01*
X12347429Y-10886429D01*
X12585525Y-10705476D02*
X12604572Y-10705476D01*
X12623620Y-10715000D01*
X12633144Y-10724524D01*
X12642668Y-10743571D01*
X12652191Y-10781667D01*
X12652191Y-10829286D01*
X12642668Y-10867381D01*
X12633144Y-10886429D01*
X12623620Y-10895952D01*
X12604572Y-10905476D01*
X12585525Y-10905476D01*
X12566477Y-10895952D01*
X12556953Y-10886429D01*
X12547429Y-10867381D01*
X12537906Y-10829286D01*
X12537906Y-10781667D01*
X12547429Y-10743571D01*
X12556953Y-10724524D01*
X12566477Y-10715000D01*
X12585525Y-10705476D01*
X12776001Y-10705476D02*
X12795048Y-10705476D01*
X12814096Y-10715000D01*
X12823620Y-10724524D01*
X12833144Y-10743571D01*
X12842668Y-10781667D01*
X12842668Y-10829286D01*
X12833144Y-10867381D01*
X12823620Y-10886429D01*
X12814096Y-10895952D01*
X12795048Y-10905476D01*
X12776001Y-10905476D01*
X12756953Y-10895952D01*
X12747429Y-10886429D01*
X12737906Y-10867381D01*
X12728382Y-10829286D01*
X12728382Y-10781667D01*
X12737906Y-10743571D01*
X12747429Y-10724524D01*
X12756953Y-10715000D01*
X12776001Y-10705476D01*
X12928382Y-10905476D02*
X12928382Y-10772143D01*
X12928382Y-10791190D02*
X12937906Y-10781667D01*
X12956953Y-10772143D01*
X12985525Y-10772143D01*
X13004572Y-10781667D01*
X13014096Y-10800714D01*
X13014096Y-10905476D01*
X13014096Y-10800714D02*
X13023620Y-10781667D01*
X13042668Y-10772143D01*
X13071239Y-10772143D01*
X13090287Y-10781667D01*
X13099810Y-10800714D01*
X13099810Y-10905476D01*
X13195048Y-10905476D02*
X13195048Y-10772143D01*
X13195048Y-10791190D02*
X13204572Y-10781667D01*
X13223620Y-10772143D01*
X13252191Y-10772143D01*
X13271239Y-10781667D01*
X13280763Y-10800714D01*
X13280763Y-10905476D01*
X13280763Y-10800714D02*
X13290287Y-10781667D01*
X13309334Y-10772143D01*
X13337906Y-10772143D01*
X13356953Y-10781667D01*
X13366477Y-10800714D01*
X13366477Y-10905476D01*
X13756953Y-10695952D02*
X13585525Y-10953095D01*
X14014096Y-10705476D02*
X14033144Y-10705476D01*
X14052191Y-10715000D01*
X14061715Y-10724524D01*
X14071239Y-10743571D01*
X14080763Y-10781667D01*
X14080763Y-10829286D01*
X14071239Y-10867381D01*
X14061715Y-10886429D01*
X14052191Y-10895952D01*
X14033144Y-10905476D01*
X14014096Y-10905476D01*
X13995048Y-10895952D01*
X13985525Y-10886429D01*
X13976001Y-10867381D01*
X13966477Y-10829286D01*
X13966477Y-10781667D01*
X13976001Y-10743571D01*
X13985525Y-10724524D01*
X13995048Y-10715000D01*
X14014096Y-10705476D01*
X14166477Y-10886429D02*
X14176001Y-10895952D01*
X14166477Y-10905476D01*
X14156953Y-10895952D01*
X14166477Y-10886429D01*
X14166477Y-10905476D01*
X14299810Y-10705476D02*
X14318858Y-10705476D01*
X14337906Y-10715000D01*
X14347429Y-10724524D01*
X14356953Y-10743571D01*
X14366477Y-10781667D01*
X14366477Y-10829286D01*
X14356953Y-10867381D01*
X14347429Y-10886429D01*
X14337906Y-10895952D01*
X14318858Y-10905476D01*
X14299810Y-10905476D01*
X14280763Y-10895952D01*
X14271239Y-10886429D01*
X14261715Y-10867381D01*
X14252191Y-10829286D01*
X14252191Y-10781667D01*
X14261715Y-10743571D01*
X14271239Y-10724524D01*
X14280763Y-10715000D01*
X14299810Y-10705476D01*
X14556953Y-10905476D02*
X14442668Y-10905476D01*
X14499810Y-10905476D02*
X14499810Y-10705476D01*
X14480763Y-10734048D01*
X14461715Y-10753095D01*
X14442668Y-10762619D01*
X14652191Y-10905476D02*
X14690287Y-10905476D01*
X14709334Y-10895952D01*
X14718858Y-10886429D01*
X14737906Y-10857857D01*
X14747429Y-10819762D01*
X14747429Y-10743571D01*
X14737906Y-10724524D01*
X14728382Y-10715000D01*
X14709334Y-10705476D01*
X14671239Y-10705476D01*
X14652191Y-10715000D01*
X14642668Y-10724524D01*
X14633144Y-10743571D01*
X14633144Y-10791190D01*
X14642668Y-10810238D01*
X14652191Y-10819762D01*
X14671239Y-10829286D01*
X14709334Y-10829286D01*
X14728382Y-10819762D01*
X14737906Y-10810238D01*
X14747429Y-10791190D01*
X14814096Y-10705476D02*
X14947429Y-10705476D01*
X14861715Y-10905476D01*
X15014096Y-10705476D02*
X15014096Y-10743571D01*
X15090287Y-10705476D02*
X15090287Y-10743571D01*
X15385525Y-10981667D02*
X15376001Y-10972143D01*
X15356953Y-10943571D01*
X15347429Y-10924524D01*
X15337906Y-10895952D01*
X15328382Y-10848333D01*
X15328382Y-10810238D01*
X15337906Y-10762619D01*
X15347429Y-10734048D01*
X15356953Y-10715000D01*
X15376001Y-10686429D01*
X15385525Y-10676905D01*
X15499810Y-10705476D02*
X15518858Y-10705476D01*
X15537906Y-10715000D01*
X15547429Y-10724524D01*
X15556953Y-10743571D01*
X15566477Y-10781667D01*
X15566477Y-10829286D01*
X15556953Y-10867381D01*
X15547429Y-10886429D01*
X15537906Y-10895952D01*
X15518858Y-10905476D01*
X15499810Y-10905476D01*
X15480763Y-10895952D01*
X15471239Y-10886429D01*
X15461715Y-10867381D01*
X15452191Y-10829286D01*
X15452191Y-10781667D01*
X15461715Y-10743571D01*
X15471239Y-10724524D01*
X15480763Y-10715000D01*
X15499810Y-10705476D01*
X15804572Y-10905476D02*
X15804572Y-10705476D01*
X15890287Y-10905476D02*
X15890287Y-10800714D01*
X15880763Y-10781667D01*
X15861715Y-10772143D01*
X15833144Y-10772143D01*
X15814096Y-10781667D01*
X15804572Y-10791190D01*
X16014096Y-10905476D02*
X15995048Y-10895952D01*
X15985525Y-10886429D01*
X15976001Y-10867381D01*
X15976001Y-10810238D01*
X15985525Y-10791190D01*
X15995048Y-10781667D01*
X16014096Y-10772143D01*
X16042668Y-10772143D01*
X16061715Y-10781667D01*
X16071239Y-10791190D01*
X16080763Y-10810238D01*
X16080763Y-10867381D01*
X16071239Y-10886429D01*
X16061715Y-10895952D01*
X16042668Y-10905476D01*
X16014096Y-10905476D01*
X16195048Y-10905476D02*
X16176001Y-10895952D01*
X16166477Y-10876905D01*
X16166477Y-10705476D01*
X16347429Y-10895952D02*
X16328382Y-10905476D01*
X16290287Y-10905476D01*
X16271239Y-10895952D01*
X16261715Y-10876905D01*
X16261715Y-10800714D01*
X16271239Y-10781667D01*
X16290287Y-10772143D01*
X16328382Y-10772143D01*
X16347429Y-10781667D01*
X16356953Y-10800714D01*
X16356953Y-10819762D01*
X16261715Y-10838810D01*
X16433144Y-10895952D02*
X16452191Y-10905476D01*
X16490287Y-10905476D01*
X16509334Y-10895952D01*
X16518858Y-10876905D01*
X16518858Y-10867381D01*
X16509334Y-10848333D01*
X16490287Y-10838810D01*
X16461715Y-10838810D01*
X16442668Y-10829286D01*
X16433144Y-10810238D01*
X16433144Y-10800714D01*
X16442668Y-10781667D01*
X16461715Y-10772143D01*
X16490287Y-10772143D01*
X16509334Y-10781667D01*
X16756953Y-10829286D02*
X16909334Y-10829286D01*
X16833144Y-10905476D02*
X16833144Y-10753095D01*
X17242668Y-10705476D02*
X17204572Y-10705476D01*
X17185525Y-10715000D01*
X17176001Y-10724524D01*
X17156953Y-10753095D01*
X17147430Y-10791190D01*
X17147430Y-10867381D01*
X17156953Y-10886429D01*
X17166477Y-10895952D01*
X17185525Y-10905476D01*
X17223620Y-10905476D01*
X17242668Y-10895952D01*
X17252191Y-10886429D01*
X17261715Y-10867381D01*
X17261715Y-10819762D01*
X17252191Y-10800714D01*
X17242668Y-10791190D01*
X17223620Y-10781667D01*
X17185525Y-10781667D01*
X17166477Y-10791190D01*
X17156953Y-10800714D01*
X17147430Y-10819762D01*
X17490287Y-10895952D02*
X17509334Y-10905476D01*
X17547430Y-10905476D01*
X17566477Y-10895952D01*
X17576001Y-10876905D01*
X17576001Y-10867381D01*
X17566477Y-10848333D01*
X17547430Y-10838810D01*
X17518858Y-10838810D01*
X17499810Y-10829286D01*
X17490287Y-10810238D01*
X17490287Y-10800714D01*
X17499810Y-10781667D01*
X17518858Y-10772143D01*
X17547430Y-10772143D01*
X17566477Y-10781667D01*
X17690287Y-10905476D02*
X17671239Y-10895952D01*
X17661715Y-10876905D01*
X17661715Y-10705476D01*
X17795049Y-10905476D02*
X17776001Y-10895952D01*
X17766477Y-10886429D01*
X17756953Y-10867381D01*
X17756953Y-10810238D01*
X17766477Y-10791190D01*
X17776001Y-10781667D01*
X17795049Y-10772143D01*
X17823620Y-10772143D01*
X17842668Y-10781667D01*
X17852191Y-10791190D01*
X17861715Y-10810238D01*
X17861715Y-10867381D01*
X17852191Y-10886429D01*
X17842668Y-10895952D01*
X17823620Y-10905476D01*
X17795049Y-10905476D01*
X17918858Y-10772143D02*
X17995049Y-10772143D01*
X17947430Y-10705476D02*
X17947430Y-10876905D01*
X17956953Y-10895952D01*
X17976001Y-10905476D01*
X17995049Y-10905476D01*
X18052191Y-10895952D02*
X18071239Y-10905476D01*
X18109334Y-10905476D01*
X18128382Y-10895952D01*
X18137906Y-10876905D01*
X18137906Y-10867381D01*
X18128382Y-10848333D01*
X18109334Y-10838810D01*
X18080763Y-10838810D01*
X18061715Y-10829286D01*
X18052191Y-10810238D01*
X18052191Y-10800714D01*
X18061715Y-10781667D01*
X18080763Y-10772143D01*
X18109334Y-10772143D01*
X18128382Y-10781667D01*
X18204572Y-10981667D02*
X18214096Y-10972143D01*
X18233144Y-10943571D01*
X18242668Y-10924524D01*
X18252191Y-10895952D01*
X18261715Y-10848333D01*
X18261715Y-10810238D01*
X18252191Y-10762619D01*
X18242668Y-10734048D01*
X18233144Y-10715000D01*
X18214096Y-10686429D01*
X18204572Y-10676905D01*
D14*
X11775620Y-11041000D02*
X11775620Y-11117000D01*
X11737620Y-11079000D02*
X11813620Y-11079000D01*
D11*
X12109334Y-10969476D02*
X12128382Y-10969476D01*
X12147429Y-10979000D01*
X12156953Y-10988524D01*
X12166477Y-11007571D01*
X12176001Y-11045667D01*
X12176001Y-11093286D01*
X12166477Y-11131381D01*
X12156953Y-11150429D01*
X12147429Y-11159952D01*
X12128382Y-11169476D01*
X12109334Y-11169476D01*
X12090287Y-11159952D01*
X12080763Y-11150429D01*
X12071239Y-11131381D01*
X12061715Y-11093286D01*
X12061715Y-11045667D01*
X12071239Y-11007571D01*
X12080763Y-10988524D01*
X12090287Y-10979000D01*
X12109334Y-10969476D01*
X12261715Y-11150429D02*
X12271239Y-11159952D01*
X12261715Y-11169476D01*
X12252191Y-11159952D01*
X12261715Y-11150429D01*
X12261715Y-11169476D01*
X12337906Y-10969476D02*
X12471239Y-10969476D01*
X12385525Y-11169476D01*
X12633144Y-10969476D02*
X12595048Y-10969476D01*
X12576001Y-10979000D01*
X12566477Y-10988524D01*
X12547429Y-11017095D01*
X12537906Y-11055190D01*
X12537906Y-11131381D01*
X12547429Y-11150429D01*
X12556953Y-11159952D01*
X12576001Y-11169476D01*
X12614096Y-11169476D01*
X12633144Y-11159952D01*
X12642668Y-11150429D01*
X12652191Y-11131381D01*
X12652191Y-11083762D01*
X12642668Y-11064714D01*
X12633144Y-11055190D01*
X12614096Y-11045667D01*
X12576001Y-11045667D01*
X12556953Y-11055190D01*
X12547429Y-11064714D01*
X12537906Y-11083762D01*
X12776001Y-10969476D02*
X12795048Y-10969476D01*
X12814096Y-10979000D01*
X12823620Y-10988524D01*
X12833144Y-11007571D01*
X12842668Y-11045667D01*
X12842668Y-11093286D01*
X12833144Y-11131381D01*
X12823620Y-11150429D01*
X12814096Y-11159952D01*
X12795048Y-11169476D01*
X12776001Y-11169476D01*
X12756953Y-11159952D01*
X12747429Y-11150429D01*
X12737906Y-11131381D01*
X12728382Y-11093286D01*
X12728382Y-11045667D01*
X12737906Y-11007571D01*
X12747429Y-10988524D01*
X12756953Y-10979000D01*
X12776001Y-10969476D01*
X12928382Y-11169476D02*
X12928382Y-11036143D01*
X12928382Y-11055190D02*
X12937906Y-11045667D01*
X12956953Y-11036143D01*
X12985525Y-11036143D01*
X13004572Y-11045667D01*
X13014096Y-11064714D01*
X13014096Y-11169476D01*
X13014096Y-11064714D02*
X13023620Y-11045667D01*
X13042668Y-11036143D01*
X13071239Y-11036143D01*
X13090287Y-11045667D01*
X13099810Y-11064714D01*
X13099810Y-11169476D01*
X13195048Y-11169476D02*
X13195048Y-11036143D01*
X13195048Y-11055190D02*
X13204572Y-11045667D01*
X13223620Y-11036143D01*
X13252191Y-11036143D01*
X13271239Y-11045667D01*
X13280763Y-11064714D01*
X13280763Y-11169476D01*
X13280763Y-11064714D02*
X13290287Y-11045667D01*
X13309334Y-11036143D01*
X13337906Y-11036143D01*
X13356953Y-11045667D01*
X13366477Y-11064714D01*
X13366477Y-11169476D01*
X13756953Y-10959952D02*
X13585525Y-11217095D01*
X14014096Y-10969476D02*
X14033144Y-10969476D01*
X14052191Y-10979000D01*
X14061715Y-10988524D01*
X14071239Y-11007571D01*
X14080763Y-11045667D01*
X14080763Y-11093286D01*
X14071239Y-11131381D01*
X14061715Y-11150429D01*
X14052191Y-11159952D01*
X14033144Y-11169476D01*
X14014096Y-11169476D01*
X13995048Y-11159952D01*
X13985525Y-11150429D01*
X13976001Y-11131381D01*
X13966477Y-11093286D01*
X13966477Y-11045667D01*
X13976001Y-11007571D01*
X13985525Y-10988524D01*
X13995048Y-10979000D01*
X14014096Y-10969476D01*
X14166477Y-11150429D02*
X14176001Y-11159952D01*
X14166477Y-11169476D01*
X14156953Y-11159952D01*
X14166477Y-11150429D01*
X14166477Y-11169476D01*
X14299810Y-10969476D02*
X14318858Y-10969476D01*
X14337906Y-10979000D01*
X14347429Y-10988524D01*
X14356953Y-11007571D01*
X14366477Y-11045667D01*
X14366477Y-11093286D01*
X14356953Y-11131381D01*
X14347429Y-11150429D01*
X14337906Y-11159952D01*
X14318858Y-11169476D01*
X14299810Y-11169476D01*
X14280763Y-11159952D01*
X14271239Y-11150429D01*
X14261715Y-11131381D01*
X14252191Y-11093286D01*
X14252191Y-11045667D01*
X14261715Y-11007571D01*
X14271239Y-10988524D01*
X14280763Y-10979000D01*
X14299810Y-10969476D01*
X14442668Y-10988524D02*
X14452191Y-10979000D01*
X14471239Y-10969476D01*
X14518858Y-10969476D01*
X14537906Y-10979000D01*
X14547429Y-10988524D01*
X14556953Y-11007571D01*
X14556953Y-11026619D01*
X14547429Y-11055190D01*
X14433144Y-11169476D01*
X14556953Y-11169476D01*
X14652191Y-11169476D02*
X14690287Y-11169476D01*
X14709334Y-11159952D01*
X14718858Y-11150429D01*
X14737906Y-11121857D01*
X14747429Y-11083762D01*
X14747429Y-11007571D01*
X14737906Y-10988524D01*
X14728382Y-10979000D01*
X14709334Y-10969476D01*
X14671239Y-10969476D01*
X14652191Y-10979000D01*
X14642668Y-10988524D01*
X14633144Y-11007571D01*
X14633144Y-11055190D01*
X14642668Y-11074238D01*
X14652191Y-11083762D01*
X14671239Y-11093286D01*
X14709334Y-11093286D01*
X14728382Y-11083762D01*
X14737906Y-11074238D01*
X14747429Y-11055190D01*
X14842668Y-11169476D02*
X14880763Y-11169476D01*
X14899810Y-11159952D01*
X14909334Y-11150429D01*
X14928382Y-11121857D01*
X14937906Y-11083762D01*
X14937906Y-11007571D01*
X14928382Y-10988524D01*
X14918858Y-10979000D01*
X14899810Y-10969476D01*
X14861715Y-10969476D01*
X14842668Y-10979000D01*
X14833144Y-10988524D01*
X14823620Y-11007571D01*
X14823620Y-11055190D01*
X14833144Y-11074238D01*
X14842668Y-11083762D01*
X14861715Y-11093286D01*
X14899810Y-11093286D01*
X14918858Y-11083762D01*
X14928382Y-11074238D01*
X14937906Y-11055190D01*
X15014096Y-10969476D02*
X15014096Y-11007571D01*
X15090287Y-10969476D02*
X15090287Y-11007571D01*
X15385525Y-11245667D02*
X15376001Y-11236143D01*
X15356953Y-11207571D01*
X15347429Y-11188524D01*
X15337906Y-11159952D01*
X15328382Y-11112333D01*
X15328382Y-11074238D01*
X15337906Y-11026619D01*
X15347429Y-10998048D01*
X15356953Y-10979000D01*
X15376001Y-10950429D01*
X15385525Y-10940905D01*
X15490287Y-11055190D02*
X15471239Y-11045667D01*
X15461715Y-11036143D01*
X15452191Y-11017095D01*
X15452191Y-11007571D01*
X15461715Y-10988524D01*
X15471239Y-10979000D01*
X15490287Y-10969476D01*
X15528382Y-10969476D01*
X15547429Y-10979000D01*
X15556953Y-10988524D01*
X15566477Y-11007571D01*
X15566477Y-11017095D01*
X15556953Y-11036143D01*
X15547429Y-11045667D01*
X15528382Y-11055190D01*
X15490287Y-11055190D01*
X15471239Y-11064714D01*
X15461715Y-11074238D01*
X15452191Y-11093286D01*
X15452191Y-11131381D01*
X15461715Y-11150429D01*
X15471239Y-11159952D01*
X15490287Y-11169476D01*
X15528382Y-11169476D01*
X15547429Y-11159952D01*
X15556953Y-11150429D01*
X15566477Y-11131381D01*
X15566477Y-11093286D01*
X15556953Y-11074238D01*
X15547429Y-11064714D01*
X15528382Y-11055190D01*
X15804572Y-11169476D02*
X15804572Y-10969476D01*
X15890287Y-11169476D02*
X15890287Y-11064714D01*
X15880763Y-11045667D01*
X15861715Y-11036143D01*
X15833144Y-11036143D01*
X15814096Y-11045667D01*
X15804572Y-11055190D01*
X16014096Y-11169476D02*
X15995048Y-11159952D01*
X15985525Y-11150429D01*
X15976001Y-11131381D01*
X15976001Y-11074238D01*
X15985525Y-11055190D01*
X15995048Y-11045667D01*
X16014096Y-11036143D01*
X16042668Y-11036143D01*
X16061715Y-11045667D01*
X16071239Y-11055190D01*
X16080763Y-11074238D01*
X16080763Y-11131381D01*
X16071239Y-11150429D01*
X16061715Y-11159952D01*
X16042668Y-11169476D01*
X16014096Y-11169476D01*
X16195048Y-11169476D02*
X16176001Y-11159952D01*
X16166477Y-11140905D01*
X16166477Y-10969476D01*
X16347429Y-11159952D02*
X16328382Y-11169476D01*
X16290287Y-11169476D01*
X16271239Y-11159952D01*
X16261715Y-11140905D01*
X16261715Y-11064714D01*
X16271239Y-11045667D01*
X16290287Y-11036143D01*
X16328382Y-11036143D01*
X16347429Y-11045667D01*
X16356953Y-11064714D01*
X16356953Y-11083762D01*
X16261715Y-11102810D01*
X16433144Y-11159952D02*
X16452191Y-11169476D01*
X16490287Y-11169476D01*
X16509334Y-11159952D01*
X16518858Y-11140905D01*
X16518858Y-11131381D01*
X16509334Y-11112333D01*
X16490287Y-11102810D01*
X16461715Y-11102810D01*
X16442668Y-11093286D01*
X16433144Y-11074238D01*
X16433144Y-11064714D01*
X16442668Y-11045667D01*
X16461715Y-11036143D01*
X16490287Y-11036143D01*
X16509334Y-11045667D01*
X16585525Y-11245667D02*
X16595048Y-11236143D01*
X16614096Y-11207571D01*
X16623620Y-11188524D01*
X16633144Y-11159952D01*
X16642668Y-11112333D01*
X16642668Y-11074238D01*
X16633144Y-11026619D01*
X16623620Y-10998048D01*
X16614096Y-10979000D01*
X16595048Y-10950429D01*
X16585525Y-10940905D01*
M02*
