G04 #@! TF.GenerationSoftware,KiCad,Pcbnew,6.0.11-2627ca5db0~126~ubuntu22.04.1*
G04 #@! TF.CreationDate,2023-03-28T23:40:33+03:00*
G04 #@! TF.ProjectId,usb-atx-ctrl-redux,7573622d-6174-4782-9d63-74726c2d7265,rev?*
G04 #@! TF.SameCoordinates,Original*
G04 #@! TF.FileFunction,Soldermask,Top*
G04 #@! TF.FilePolarity,Negative*
%FSLAX46Y46*%
G04 Gerber Fmt 4.6, Leading zero omitted, Abs format (unit mm)*
G04 Created by KiCad (PCBNEW 6.0.11-2627ca5db0~126~ubuntu22.04.1) date 2023-03-28 23:40:33*
%MOMM*%
%LPD*%
G01*
G04 APERTURE LIST*
G04 Aperture macros list*
%AMRoundRect*
0 Rectangle with rounded corners*
0 $1 Rounding radius*
0 $2 $3 $4 $5 $6 $7 $8 $9 X,Y pos of 4 corners*
0 Add a 4 corners polygon primitive as box body*
4,1,4,$2,$3,$4,$5,$6,$7,$8,$9,$2,$3,0*
0 Add four circle primitives for the rounded corners*
1,1,$1+$1,$2,$3*
1,1,$1+$1,$4,$5*
1,1,$1+$1,$6,$7*
1,1,$1+$1,$8,$9*
0 Add four rect primitives between the rounded corners*
20,1,$1+$1,$2,$3,$4,$5,0*
20,1,$1+$1,$4,$5,$6,$7,0*
20,1,$1+$1,$6,$7,$8,$9,0*
20,1,$1+$1,$8,$9,$2,$3,0*%
G04 Aperture macros list end*
%ADD10O,1.250000X1.750000*%
%ADD11RoundRect,0.237500X-0.250000X-0.237500X0.250000X-0.237500X0.250000X0.237500X-0.250000X0.237500X0*%
%ADD12R,2.510000X1.000000*%
%ADD13R,1.000000X2.510000*%
%ADD14RoundRect,0.237500X-0.237500X0.250000X-0.237500X-0.250000X0.237500X-0.250000X0.237500X0.250000X0*%
%ADD15RoundRect,0.250000X0.450000X-0.325000X0.450000X0.325000X-0.450000X0.325000X-0.450000X-0.325000X0*%
%ADD16C,3.200000*%
%ADD17R,1.500000X1.500000*%
%ADD18C,1.500000*%
G04 APERTURE END LIST*
D10*
X120732800Y-95453200D03*
X122732800Y-96723200D03*
X122732800Y-94183200D03*
D11*
X131142100Y-64465200D03*
X132967100Y-64465200D03*
D12*
X139519200Y-52180400D03*
X136209200Y-54720400D03*
X139519200Y-57260400D03*
X136209200Y-59800400D03*
X139519200Y-62340400D03*
X136209200Y-64880400D03*
X139519200Y-67420400D03*
X136209200Y-69960400D03*
X139519200Y-72500400D03*
D13*
X135345200Y-74139200D03*
X132805200Y-70829200D03*
X130265200Y-74139200D03*
X127725200Y-70829200D03*
X125185200Y-74139200D03*
D12*
X120970400Y-72500400D03*
X124280400Y-69960400D03*
X120970400Y-67420400D03*
X124280400Y-64880400D03*
X120970400Y-62340400D03*
X124280400Y-59800400D03*
X120970400Y-57260400D03*
X120970400Y-52180400D03*
X124280400Y-54720400D03*
D14*
X128398007Y-76928081D03*
X128398007Y-78753081D03*
D15*
X120343357Y-80240529D03*
X120343357Y-78190529D03*
D14*
X123012200Y-82731600D03*
X123012200Y-84556600D03*
D16*
X138547100Y-90734200D03*
X127117100Y-90734200D03*
D17*
X128387100Y-84384200D03*
D18*
X129657100Y-81844200D03*
X130927100Y-84384200D03*
X132197100Y-81844200D03*
X133467100Y-84384200D03*
X134737100Y-81844200D03*
X136007100Y-84384200D03*
X137277100Y-81844200D03*
D14*
X130934980Y-76899087D03*
X130934980Y-78724087D03*
D11*
X127435600Y-67233800D03*
X129260600Y-67233800D03*
X131142100Y-67233800D03*
X132967100Y-67233800D03*
D14*
X123005554Y-78186096D03*
X123005554Y-80011096D03*
D15*
X120343357Y-84787129D03*
X120343357Y-82737129D03*
D10*
X120738200Y-89408000D03*
X122738200Y-90678000D03*
X122738200Y-88138000D03*
D11*
X127484500Y-64465200D03*
X129309500Y-64465200D03*
M02*
