M48
; DRILL file {KiCad 6.0.11-2627ca5db0~126~ubuntu22.04.1} date 2023-03-28T23:40:46 EEST
; FORMAT={-:-/ absolute / metric / decimal}
; #@! TF.CreationDate,2023-03-28T23:40:46+03:00
; #@! TF.GenerationSoftware,Kicad,Pcbnew,6.0.11-2627ca5db0~126~ubuntu22.04.1
; #@! TF.FileFunction,Plated,1,2,PTH
FMAT,2
METRIC
; #@! TA.AperFunction,Plated,PTH,ViaDrill
T1C0.400
; #@! TA.AperFunction,Plated,PTH,ComponentDrill
T2C0.500
; #@! TA.AperFunction,Plated,PTH,ComponentDrill
T3C0.760
%
G90
G05
T1
X120.802Y-64.745
X120.802Y-69.825
X120.97Y-57.26
X120.97Y-76.151
X124.333Y-81.382
X125.501Y-76.937
X127.457Y-74.854
X134.62Y-78.054
X136.209Y-69.96
X139.519Y-72.5
X139.7Y-64.795
X139.7Y-69.875
T3
X128.387Y-84.384
X129.657Y-81.844
X130.927Y-84.384
X132.197Y-81.844
X133.467Y-84.384
X134.737Y-81.844
X136.007Y-84.384
X137.277Y-81.844
T2
X120.733Y-95.703G85X120.733Y-95.203
G05
X120.738Y-89.658G85X120.738Y-89.158
G05
X122.733Y-94.433G85X122.733Y-93.933
G05
X122.733Y-96.973G85X122.733Y-96.473
G05
X122.738Y-88.388G85X122.738Y-87.888
G05
X122.738Y-90.928G85X122.738Y-90.428
G05
T0
M30
