%TF.GenerationSoftware,KiCad,Pcbnew,8.0.9-8.0.9-0~ubuntu22.04.1*%
%TF.CreationDate,2025-12-26T22:23:55+02:00*%
%TF.ProjectId,usb-atx-ctrl-redux,7573622d-6174-4782-9d63-74726c2d7265,rev?*%
%TF.SameCoordinates,Original*%
%TF.FileFunction,Drillmap*%
%TF.FilePolarity,Positive*%
%FSLAX45Y45*%
G04 Gerber Fmt 4.5, Leading zero omitted, Abs format (unit mm)*
G04 Created by KiCad (PCBNEW 8.0.9-8.0.9-0~ubuntu22.04.1) date 2025-12-26 22:23:55*
%MOMM*%
%LPD*%
G01*
G04 APERTURE LIST*
%ADD10C,0.100000*%
%ADD11C,0.200000*%
%ADD12C,0.320000*%
G04 APERTURE END LIST*
D10*
X11818620Y-5013960D02*
X14239240Y-5013960D01*
X14239240Y-9906000D01*
X11818620Y-9906000D01*
X11818620Y-5013960D01*
D11*
D12*
X12551710Y-8913420D02*
X12871710Y-9233420D01*
X12871710Y-8913420D02*
X12551710Y-9233420D01*
X13694710Y-8913420D02*
X14014710Y-9233420D01*
X14014710Y-8913420D02*
X13694710Y-9233420D01*
D11*
X12074397Y-10222484D02*
X12074397Y-10022484D01*
X12074397Y-10022484D02*
X12122016Y-10022484D01*
X12122016Y-10022484D02*
X12150587Y-10032008D01*
X12150587Y-10032008D02*
X12169635Y-10051055D01*
X12169635Y-10051055D02*
X12179159Y-10070103D01*
X12179159Y-10070103D02*
X12188682Y-10108198D01*
X12188682Y-10108198D02*
X12188682Y-10136770D01*
X12188682Y-10136770D02*
X12179159Y-10174865D01*
X12179159Y-10174865D02*
X12169635Y-10193912D01*
X12169635Y-10193912D02*
X12150587Y-10212960D01*
X12150587Y-10212960D02*
X12122016Y-10222484D01*
X12122016Y-10222484D02*
X12074397Y-10222484D01*
X12274397Y-10222484D02*
X12274397Y-10089150D01*
X12274397Y-10127246D02*
X12283921Y-10108198D01*
X12283921Y-10108198D02*
X12293444Y-10098674D01*
X12293444Y-10098674D02*
X12312492Y-10089150D01*
X12312492Y-10089150D02*
X12331540Y-10089150D01*
X12398206Y-10222484D02*
X12398206Y-10089150D01*
X12398206Y-10022484D02*
X12388682Y-10032008D01*
X12388682Y-10032008D02*
X12398206Y-10041531D01*
X12398206Y-10041531D02*
X12407730Y-10032008D01*
X12407730Y-10032008D02*
X12398206Y-10022484D01*
X12398206Y-10022484D02*
X12398206Y-10041531D01*
X12522016Y-10222484D02*
X12502968Y-10212960D01*
X12502968Y-10212960D02*
X12493444Y-10193912D01*
X12493444Y-10193912D02*
X12493444Y-10022484D01*
X12626778Y-10222484D02*
X12607730Y-10212960D01*
X12607730Y-10212960D02*
X12598206Y-10193912D01*
X12598206Y-10193912D02*
X12598206Y-10022484D01*
X12855349Y-10222484D02*
X12855349Y-10022484D01*
X12855349Y-10022484D02*
X12922016Y-10165341D01*
X12922016Y-10165341D02*
X12988682Y-10022484D01*
X12988682Y-10022484D02*
X12988682Y-10222484D01*
X13169635Y-10222484D02*
X13169635Y-10117722D01*
X13169635Y-10117722D02*
X13160111Y-10098674D01*
X13160111Y-10098674D02*
X13141063Y-10089150D01*
X13141063Y-10089150D02*
X13102968Y-10089150D01*
X13102968Y-10089150D02*
X13083921Y-10098674D01*
X13169635Y-10212960D02*
X13150587Y-10222484D01*
X13150587Y-10222484D02*
X13102968Y-10222484D01*
X13102968Y-10222484D02*
X13083921Y-10212960D01*
X13083921Y-10212960D02*
X13074397Y-10193912D01*
X13074397Y-10193912D02*
X13074397Y-10174865D01*
X13074397Y-10174865D02*
X13083921Y-10155817D01*
X13083921Y-10155817D02*
X13102968Y-10146293D01*
X13102968Y-10146293D02*
X13150587Y-10146293D01*
X13150587Y-10146293D02*
X13169635Y-10136770D01*
X13264873Y-10089150D02*
X13264873Y-10289150D01*
X13264873Y-10098674D02*
X13283921Y-10089150D01*
X13283921Y-10089150D02*
X13322016Y-10089150D01*
X13322016Y-10089150D02*
X13341063Y-10098674D01*
X13341063Y-10098674D02*
X13350587Y-10108198D01*
X13350587Y-10108198D02*
X13360111Y-10127246D01*
X13360111Y-10127246D02*
X13360111Y-10184389D01*
X13360111Y-10184389D02*
X13350587Y-10203436D01*
X13350587Y-10203436D02*
X13341063Y-10212960D01*
X13341063Y-10212960D02*
X13322016Y-10222484D01*
X13322016Y-10222484D02*
X13283921Y-10222484D01*
X13283921Y-10222484D02*
X13264873Y-10212960D01*
X13445825Y-10203436D02*
X13455349Y-10212960D01*
X13455349Y-10212960D02*
X13445825Y-10222484D01*
X13445825Y-10222484D02*
X13436302Y-10212960D01*
X13436302Y-10212960D02*
X13445825Y-10203436D01*
X13445825Y-10203436D02*
X13445825Y-10222484D01*
X13445825Y-10098674D02*
X13455349Y-10108198D01*
X13455349Y-10108198D02*
X13445825Y-10117722D01*
X13445825Y-10117722D02*
X13436302Y-10108198D01*
X13436302Y-10108198D02*
X13445825Y-10098674D01*
X13445825Y-10098674D02*
X13445825Y-10117722D01*
X11613620Y-10451000D02*
X11813620Y-10651000D01*
X11813620Y-10451000D02*
X11613620Y-10651000D01*
X12055349Y-10442484D02*
X12179159Y-10442484D01*
X12179159Y-10442484D02*
X12112492Y-10518674D01*
X12112492Y-10518674D02*
X12141063Y-10518674D01*
X12141063Y-10518674D02*
X12160111Y-10528198D01*
X12160111Y-10528198D02*
X12169635Y-10537722D01*
X12169635Y-10537722D02*
X12179159Y-10556770D01*
X12179159Y-10556770D02*
X12179159Y-10604389D01*
X12179159Y-10604389D02*
X12169635Y-10623436D01*
X12169635Y-10623436D02*
X12160111Y-10632960D01*
X12160111Y-10632960D02*
X12141063Y-10642484D01*
X12141063Y-10642484D02*
X12083921Y-10642484D01*
X12083921Y-10642484D02*
X12064873Y-10632960D01*
X12064873Y-10632960D02*
X12055349Y-10623436D01*
X12264873Y-10623436D02*
X12274397Y-10632960D01*
X12274397Y-10632960D02*
X12264873Y-10642484D01*
X12264873Y-10642484D02*
X12255349Y-10632960D01*
X12255349Y-10632960D02*
X12264873Y-10623436D01*
X12264873Y-10623436D02*
X12264873Y-10642484D01*
X12350587Y-10461531D02*
X12360111Y-10452008D01*
X12360111Y-10452008D02*
X12379159Y-10442484D01*
X12379159Y-10442484D02*
X12426778Y-10442484D01*
X12426778Y-10442484D02*
X12445825Y-10452008D01*
X12445825Y-10452008D02*
X12455349Y-10461531D01*
X12455349Y-10461531D02*
X12464873Y-10480579D01*
X12464873Y-10480579D02*
X12464873Y-10499627D01*
X12464873Y-10499627D02*
X12455349Y-10528198D01*
X12455349Y-10528198D02*
X12341063Y-10642484D01*
X12341063Y-10642484D02*
X12464873Y-10642484D01*
X12588682Y-10442484D02*
X12607730Y-10442484D01*
X12607730Y-10442484D02*
X12626778Y-10452008D01*
X12626778Y-10452008D02*
X12636302Y-10461531D01*
X12636302Y-10461531D02*
X12645825Y-10480579D01*
X12645825Y-10480579D02*
X12655349Y-10518674D01*
X12655349Y-10518674D02*
X12655349Y-10566293D01*
X12655349Y-10566293D02*
X12645825Y-10604389D01*
X12645825Y-10604389D02*
X12636302Y-10623436D01*
X12636302Y-10623436D02*
X12626778Y-10632960D01*
X12626778Y-10632960D02*
X12607730Y-10642484D01*
X12607730Y-10642484D02*
X12588682Y-10642484D01*
X12588682Y-10642484D02*
X12569635Y-10632960D01*
X12569635Y-10632960D02*
X12560111Y-10623436D01*
X12560111Y-10623436D02*
X12550587Y-10604389D01*
X12550587Y-10604389D02*
X12541063Y-10566293D01*
X12541063Y-10566293D02*
X12541063Y-10518674D01*
X12541063Y-10518674D02*
X12550587Y-10480579D01*
X12550587Y-10480579D02*
X12560111Y-10461531D01*
X12560111Y-10461531D02*
X12569635Y-10452008D01*
X12569635Y-10452008D02*
X12588682Y-10442484D01*
X12779159Y-10442484D02*
X12798206Y-10442484D01*
X12798206Y-10442484D02*
X12817254Y-10452008D01*
X12817254Y-10452008D02*
X12826778Y-10461531D01*
X12826778Y-10461531D02*
X12836302Y-10480579D01*
X12836302Y-10480579D02*
X12845825Y-10518674D01*
X12845825Y-10518674D02*
X12845825Y-10566293D01*
X12845825Y-10566293D02*
X12836302Y-10604389D01*
X12836302Y-10604389D02*
X12826778Y-10623436D01*
X12826778Y-10623436D02*
X12817254Y-10632960D01*
X12817254Y-10632960D02*
X12798206Y-10642484D01*
X12798206Y-10642484D02*
X12779159Y-10642484D01*
X12779159Y-10642484D02*
X12760111Y-10632960D01*
X12760111Y-10632960D02*
X12750587Y-10623436D01*
X12750587Y-10623436D02*
X12741063Y-10604389D01*
X12741063Y-10604389D02*
X12731540Y-10566293D01*
X12731540Y-10566293D02*
X12731540Y-10518674D01*
X12731540Y-10518674D02*
X12741063Y-10480579D01*
X12741063Y-10480579D02*
X12750587Y-10461531D01*
X12750587Y-10461531D02*
X12760111Y-10452008D01*
X12760111Y-10452008D02*
X12779159Y-10442484D01*
X12931540Y-10642484D02*
X12931540Y-10509150D01*
X12931540Y-10528198D02*
X12941063Y-10518674D01*
X12941063Y-10518674D02*
X12960111Y-10509150D01*
X12960111Y-10509150D02*
X12988683Y-10509150D01*
X12988683Y-10509150D02*
X13007730Y-10518674D01*
X13007730Y-10518674D02*
X13017254Y-10537722D01*
X13017254Y-10537722D02*
X13017254Y-10642484D01*
X13017254Y-10537722D02*
X13026778Y-10518674D01*
X13026778Y-10518674D02*
X13045825Y-10509150D01*
X13045825Y-10509150D02*
X13074397Y-10509150D01*
X13074397Y-10509150D02*
X13093444Y-10518674D01*
X13093444Y-10518674D02*
X13102968Y-10537722D01*
X13102968Y-10537722D02*
X13102968Y-10642484D01*
X13198206Y-10642484D02*
X13198206Y-10509150D01*
X13198206Y-10528198D02*
X13207730Y-10518674D01*
X13207730Y-10518674D02*
X13226778Y-10509150D01*
X13226778Y-10509150D02*
X13255349Y-10509150D01*
X13255349Y-10509150D02*
X13274397Y-10518674D01*
X13274397Y-10518674D02*
X13283921Y-10537722D01*
X13283921Y-10537722D02*
X13283921Y-10642484D01*
X13283921Y-10537722D02*
X13293444Y-10518674D01*
X13293444Y-10518674D02*
X13312492Y-10509150D01*
X13312492Y-10509150D02*
X13341063Y-10509150D01*
X13341063Y-10509150D02*
X13360111Y-10518674D01*
X13360111Y-10518674D02*
X13369635Y-10537722D01*
X13369635Y-10537722D02*
X13369635Y-10642484D01*
X13760111Y-10432960D02*
X13588683Y-10690103D01*
X14017254Y-10442484D02*
X14036302Y-10442484D01*
X14036302Y-10442484D02*
X14055349Y-10452008D01*
X14055349Y-10452008D02*
X14064873Y-10461531D01*
X14064873Y-10461531D02*
X14074397Y-10480579D01*
X14074397Y-10480579D02*
X14083921Y-10518674D01*
X14083921Y-10518674D02*
X14083921Y-10566293D01*
X14083921Y-10566293D02*
X14074397Y-10604389D01*
X14074397Y-10604389D02*
X14064873Y-10623436D01*
X14064873Y-10623436D02*
X14055349Y-10632960D01*
X14055349Y-10632960D02*
X14036302Y-10642484D01*
X14036302Y-10642484D02*
X14017254Y-10642484D01*
X14017254Y-10642484D02*
X13998206Y-10632960D01*
X13998206Y-10632960D02*
X13988683Y-10623436D01*
X13988683Y-10623436D02*
X13979159Y-10604389D01*
X13979159Y-10604389D02*
X13969635Y-10566293D01*
X13969635Y-10566293D02*
X13969635Y-10518674D01*
X13969635Y-10518674D02*
X13979159Y-10480579D01*
X13979159Y-10480579D02*
X13988683Y-10461531D01*
X13988683Y-10461531D02*
X13998206Y-10452008D01*
X13998206Y-10452008D02*
X14017254Y-10442484D01*
X14169635Y-10623436D02*
X14179159Y-10632960D01*
X14179159Y-10632960D02*
X14169635Y-10642484D01*
X14169635Y-10642484D02*
X14160111Y-10632960D01*
X14160111Y-10632960D02*
X14169635Y-10623436D01*
X14169635Y-10623436D02*
X14169635Y-10642484D01*
X14369635Y-10642484D02*
X14255349Y-10642484D01*
X14312492Y-10642484D02*
X14312492Y-10442484D01*
X14312492Y-10442484D02*
X14293445Y-10471055D01*
X14293445Y-10471055D02*
X14274397Y-10490103D01*
X14274397Y-10490103D02*
X14255349Y-10499627D01*
X14445826Y-10461531D02*
X14455349Y-10452008D01*
X14455349Y-10452008D02*
X14474397Y-10442484D01*
X14474397Y-10442484D02*
X14522016Y-10442484D01*
X14522016Y-10442484D02*
X14541064Y-10452008D01*
X14541064Y-10452008D02*
X14550587Y-10461531D01*
X14550587Y-10461531D02*
X14560111Y-10480579D01*
X14560111Y-10480579D02*
X14560111Y-10499627D01*
X14560111Y-10499627D02*
X14550587Y-10528198D01*
X14550587Y-10528198D02*
X14436302Y-10642484D01*
X14436302Y-10642484D02*
X14560111Y-10642484D01*
X14731540Y-10442484D02*
X14693445Y-10442484D01*
X14693445Y-10442484D02*
X14674397Y-10452008D01*
X14674397Y-10452008D02*
X14664873Y-10461531D01*
X14664873Y-10461531D02*
X14645826Y-10490103D01*
X14645826Y-10490103D02*
X14636302Y-10528198D01*
X14636302Y-10528198D02*
X14636302Y-10604389D01*
X14636302Y-10604389D02*
X14645826Y-10623436D01*
X14645826Y-10623436D02*
X14655349Y-10632960D01*
X14655349Y-10632960D02*
X14674397Y-10642484D01*
X14674397Y-10642484D02*
X14712492Y-10642484D01*
X14712492Y-10642484D02*
X14731540Y-10632960D01*
X14731540Y-10632960D02*
X14741064Y-10623436D01*
X14741064Y-10623436D02*
X14750587Y-10604389D01*
X14750587Y-10604389D02*
X14750587Y-10556770D01*
X14750587Y-10556770D02*
X14741064Y-10537722D01*
X14741064Y-10537722D02*
X14731540Y-10528198D01*
X14731540Y-10528198D02*
X14712492Y-10518674D01*
X14712492Y-10518674D02*
X14674397Y-10518674D01*
X14674397Y-10518674D02*
X14655349Y-10528198D01*
X14655349Y-10528198D02*
X14645826Y-10537722D01*
X14645826Y-10537722D02*
X14636302Y-10556770D01*
X14874397Y-10442484D02*
X14893445Y-10442484D01*
X14893445Y-10442484D02*
X14912492Y-10452008D01*
X14912492Y-10452008D02*
X14922016Y-10461531D01*
X14922016Y-10461531D02*
X14931540Y-10480579D01*
X14931540Y-10480579D02*
X14941064Y-10518674D01*
X14941064Y-10518674D02*
X14941064Y-10566293D01*
X14941064Y-10566293D02*
X14931540Y-10604389D01*
X14931540Y-10604389D02*
X14922016Y-10623436D01*
X14922016Y-10623436D02*
X14912492Y-10632960D01*
X14912492Y-10632960D02*
X14893445Y-10642484D01*
X14893445Y-10642484D02*
X14874397Y-10642484D01*
X14874397Y-10642484D02*
X14855349Y-10632960D01*
X14855349Y-10632960D02*
X14845826Y-10623436D01*
X14845826Y-10623436D02*
X14836302Y-10604389D01*
X14836302Y-10604389D02*
X14826778Y-10566293D01*
X14826778Y-10566293D02*
X14826778Y-10518674D01*
X14826778Y-10518674D02*
X14836302Y-10480579D01*
X14836302Y-10480579D02*
X14845826Y-10461531D01*
X14845826Y-10461531D02*
X14855349Y-10452008D01*
X14855349Y-10452008D02*
X14874397Y-10442484D01*
X15017254Y-10442484D02*
X15017254Y-10480579D01*
X15093445Y-10442484D02*
X15093445Y-10480579D01*
X15388683Y-10718674D02*
X15379159Y-10709150D01*
X15379159Y-10709150D02*
X15360111Y-10680579D01*
X15360111Y-10680579D02*
X15350588Y-10661531D01*
X15350588Y-10661531D02*
X15341064Y-10632960D01*
X15341064Y-10632960D02*
X15331540Y-10585341D01*
X15331540Y-10585341D02*
X15331540Y-10547246D01*
X15331540Y-10547246D02*
X15341064Y-10499627D01*
X15341064Y-10499627D02*
X15350588Y-10471055D01*
X15350588Y-10471055D02*
X15360111Y-10452008D01*
X15360111Y-10452008D02*
X15379159Y-10423436D01*
X15379159Y-10423436D02*
X15388683Y-10413912D01*
X15455349Y-10461531D02*
X15464873Y-10452008D01*
X15464873Y-10452008D02*
X15483921Y-10442484D01*
X15483921Y-10442484D02*
X15531540Y-10442484D01*
X15531540Y-10442484D02*
X15550588Y-10452008D01*
X15550588Y-10452008D02*
X15560111Y-10461531D01*
X15560111Y-10461531D02*
X15569635Y-10480579D01*
X15569635Y-10480579D02*
X15569635Y-10499627D01*
X15569635Y-10499627D02*
X15560111Y-10528198D01*
X15560111Y-10528198D02*
X15445826Y-10642484D01*
X15445826Y-10642484D02*
X15569635Y-10642484D01*
X15807730Y-10642484D02*
X15807730Y-10442484D01*
X15893445Y-10642484D02*
X15893445Y-10537722D01*
X15893445Y-10537722D02*
X15883921Y-10518674D01*
X15883921Y-10518674D02*
X15864873Y-10509150D01*
X15864873Y-10509150D02*
X15836302Y-10509150D01*
X15836302Y-10509150D02*
X15817254Y-10518674D01*
X15817254Y-10518674D02*
X15807730Y-10528198D01*
X16017254Y-10642484D02*
X15998207Y-10632960D01*
X15998207Y-10632960D02*
X15988683Y-10623436D01*
X15988683Y-10623436D02*
X15979159Y-10604389D01*
X15979159Y-10604389D02*
X15979159Y-10547246D01*
X15979159Y-10547246D02*
X15988683Y-10528198D01*
X15988683Y-10528198D02*
X15998207Y-10518674D01*
X15998207Y-10518674D02*
X16017254Y-10509150D01*
X16017254Y-10509150D02*
X16045826Y-10509150D01*
X16045826Y-10509150D02*
X16064873Y-10518674D01*
X16064873Y-10518674D02*
X16074397Y-10528198D01*
X16074397Y-10528198D02*
X16083921Y-10547246D01*
X16083921Y-10547246D02*
X16083921Y-10604389D01*
X16083921Y-10604389D02*
X16074397Y-10623436D01*
X16074397Y-10623436D02*
X16064873Y-10632960D01*
X16064873Y-10632960D02*
X16045826Y-10642484D01*
X16045826Y-10642484D02*
X16017254Y-10642484D01*
X16198207Y-10642484D02*
X16179159Y-10632960D01*
X16179159Y-10632960D02*
X16169635Y-10613912D01*
X16169635Y-10613912D02*
X16169635Y-10442484D01*
X16350588Y-10632960D02*
X16331540Y-10642484D01*
X16331540Y-10642484D02*
X16293445Y-10642484D01*
X16293445Y-10642484D02*
X16274397Y-10632960D01*
X16274397Y-10632960D02*
X16264873Y-10613912D01*
X16264873Y-10613912D02*
X16264873Y-10537722D01*
X16264873Y-10537722D02*
X16274397Y-10518674D01*
X16274397Y-10518674D02*
X16293445Y-10509150D01*
X16293445Y-10509150D02*
X16331540Y-10509150D01*
X16331540Y-10509150D02*
X16350588Y-10518674D01*
X16350588Y-10518674D02*
X16360111Y-10537722D01*
X16360111Y-10537722D02*
X16360111Y-10556770D01*
X16360111Y-10556770D02*
X16264873Y-10575817D01*
X16436302Y-10632960D02*
X16455350Y-10642484D01*
X16455350Y-10642484D02*
X16493445Y-10642484D01*
X16493445Y-10642484D02*
X16512492Y-10632960D01*
X16512492Y-10632960D02*
X16522016Y-10613912D01*
X16522016Y-10613912D02*
X16522016Y-10604389D01*
X16522016Y-10604389D02*
X16512492Y-10585341D01*
X16512492Y-10585341D02*
X16493445Y-10575817D01*
X16493445Y-10575817D02*
X16464873Y-10575817D01*
X16464873Y-10575817D02*
X16445826Y-10566293D01*
X16445826Y-10566293D02*
X16436302Y-10547246D01*
X16436302Y-10547246D02*
X16436302Y-10537722D01*
X16436302Y-10537722D02*
X16445826Y-10518674D01*
X16445826Y-10518674D02*
X16464873Y-10509150D01*
X16464873Y-10509150D02*
X16493445Y-10509150D01*
X16493445Y-10509150D02*
X16512492Y-10518674D01*
X16588683Y-10718674D02*
X16598207Y-10709150D01*
X16598207Y-10709150D02*
X16617254Y-10680579D01*
X16617254Y-10680579D02*
X16626778Y-10661531D01*
X16626778Y-10661531D02*
X16636302Y-10632960D01*
X16636302Y-10632960D02*
X16645826Y-10585341D01*
X16645826Y-10585341D02*
X16645826Y-10547246D01*
X16645826Y-10547246D02*
X16636302Y-10499627D01*
X16636302Y-10499627D02*
X16626778Y-10471055D01*
X16626778Y-10471055D02*
X16617254Y-10452008D01*
X16617254Y-10452008D02*
X16598207Y-10423436D01*
X16598207Y-10423436D02*
X16588683Y-10413912D01*
X16950588Y-10718674D02*
X16941064Y-10709150D01*
X16941064Y-10709150D02*
X16922016Y-10680579D01*
X16922016Y-10680579D02*
X16912493Y-10661531D01*
X16912493Y-10661531D02*
X16902969Y-10632960D01*
X16902969Y-10632960D02*
X16893445Y-10585341D01*
X16893445Y-10585341D02*
X16893445Y-10547246D01*
X16893445Y-10547246D02*
X16902969Y-10499627D01*
X16902969Y-10499627D02*
X16912493Y-10471055D01*
X16912493Y-10471055D02*
X16922016Y-10452008D01*
X16922016Y-10452008D02*
X16941064Y-10423436D01*
X16941064Y-10423436D02*
X16950588Y-10413912D01*
X17026778Y-10509150D02*
X17026778Y-10642484D01*
X17026778Y-10528198D02*
X17036302Y-10518674D01*
X17036302Y-10518674D02*
X17055350Y-10509150D01*
X17055350Y-10509150D02*
X17083921Y-10509150D01*
X17083921Y-10509150D02*
X17102969Y-10518674D01*
X17102969Y-10518674D02*
X17112493Y-10537722D01*
X17112493Y-10537722D02*
X17112493Y-10642484D01*
X17236302Y-10642484D02*
X17217254Y-10632960D01*
X17217254Y-10632960D02*
X17207731Y-10623436D01*
X17207731Y-10623436D02*
X17198207Y-10604389D01*
X17198207Y-10604389D02*
X17198207Y-10547246D01*
X17198207Y-10547246D02*
X17207731Y-10528198D01*
X17207731Y-10528198D02*
X17217254Y-10518674D01*
X17217254Y-10518674D02*
X17236302Y-10509150D01*
X17236302Y-10509150D02*
X17264874Y-10509150D01*
X17264874Y-10509150D02*
X17283921Y-10518674D01*
X17283921Y-10518674D02*
X17293445Y-10528198D01*
X17293445Y-10528198D02*
X17302969Y-10547246D01*
X17302969Y-10547246D02*
X17302969Y-10604389D01*
X17302969Y-10604389D02*
X17293445Y-10623436D01*
X17293445Y-10623436D02*
X17283921Y-10632960D01*
X17283921Y-10632960D02*
X17264874Y-10642484D01*
X17264874Y-10642484D02*
X17236302Y-10642484D01*
X17360112Y-10509150D02*
X17436302Y-10509150D01*
X17388683Y-10442484D02*
X17388683Y-10613912D01*
X17388683Y-10613912D02*
X17398207Y-10632960D01*
X17398207Y-10632960D02*
X17417254Y-10642484D01*
X17417254Y-10642484D02*
X17436302Y-10642484D01*
X17655350Y-10509150D02*
X17655350Y-10709150D01*
X17655350Y-10518674D02*
X17674397Y-10509150D01*
X17674397Y-10509150D02*
X17712493Y-10509150D01*
X17712493Y-10509150D02*
X17731540Y-10518674D01*
X17731540Y-10518674D02*
X17741064Y-10528198D01*
X17741064Y-10528198D02*
X17750588Y-10547246D01*
X17750588Y-10547246D02*
X17750588Y-10604389D01*
X17750588Y-10604389D02*
X17741064Y-10623436D01*
X17741064Y-10623436D02*
X17731540Y-10632960D01*
X17731540Y-10632960D02*
X17712493Y-10642484D01*
X17712493Y-10642484D02*
X17674397Y-10642484D01*
X17674397Y-10642484D02*
X17655350Y-10632960D01*
X17864874Y-10642484D02*
X17845826Y-10632960D01*
X17845826Y-10632960D02*
X17836302Y-10613912D01*
X17836302Y-10613912D02*
X17836302Y-10442484D01*
X18026778Y-10642484D02*
X18026778Y-10537722D01*
X18026778Y-10537722D02*
X18017255Y-10518674D01*
X18017255Y-10518674D02*
X17998207Y-10509150D01*
X17998207Y-10509150D02*
X17960112Y-10509150D01*
X17960112Y-10509150D02*
X17941064Y-10518674D01*
X18026778Y-10632960D02*
X18007731Y-10642484D01*
X18007731Y-10642484D02*
X17960112Y-10642484D01*
X17960112Y-10642484D02*
X17941064Y-10632960D01*
X17941064Y-10632960D02*
X17931540Y-10613912D01*
X17931540Y-10613912D02*
X17931540Y-10594865D01*
X17931540Y-10594865D02*
X17941064Y-10575817D01*
X17941064Y-10575817D02*
X17960112Y-10566293D01*
X17960112Y-10566293D02*
X18007731Y-10566293D01*
X18007731Y-10566293D02*
X18026778Y-10556770D01*
X18093445Y-10509150D02*
X18169635Y-10509150D01*
X18122016Y-10442484D02*
X18122016Y-10613912D01*
X18122016Y-10613912D02*
X18131540Y-10632960D01*
X18131540Y-10632960D02*
X18150588Y-10642484D01*
X18150588Y-10642484D02*
X18169635Y-10642484D01*
X18312493Y-10632960D02*
X18293445Y-10642484D01*
X18293445Y-10642484D02*
X18255350Y-10642484D01*
X18255350Y-10642484D02*
X18236302Y-10632960D01*
X18236302Y-10632960D02*
X18226778Y-10613912D01*
X18226778Y-10613912D02*
X18226778Y-10537722D01*
X18226778Y-10537722D02*
X18236302Y-10518674D01*
X18236302Y-10518674D02*
X18255350Y-10509150D01*
X18255350Y-10509150D02*
X18293445Y-10509150D01*
X18293445Y-10509150D02*
X18312493Y-10518674D01*
X18312493Y-10518674D02*
X18322016Y-10537722D01*
X18322016Y-10537722D02*
X18322016Y-10556770D01*
X18322016Y-10556770D02*
X18226778Y-10575817D01*
X18493445Y-10642484D02*
X18493445Y-10442484D01*
X18493445Y-10632960D02*
X18474397Y-10642484D01*
X18474397Y-10642484D02*
X18436302Y-10642484D01*
X18436302Y-10642484D02*
X18417255Y-10632960D01*
X18417255Y-10632960D02*
X18407731Y-10623436D01*
X18407731Y-10623436D02*
X18398207Y-10604389D01*
X18398207Y-10604389D02*
X18398207Y-10547246D01*
X18398207Y-10547246D02*
X18407731Y-10528198D01*
X18407731Y-10528198D02*
X18417255Y-10518674D01*
X18417255Y-10518674D02*
X18436302Y-10509150D01*
X18436302Y-10509150D02*
X18474397Y-10509150D01*
X18474397Y-10509150D02*
X18493445Y-10518674D01*
X18569636Y-10718674D02*
X18579159Y-10709150D01*
X18579159Y-10709150D02*
X18598207Y-10680579D01*
X18598207Y-10680579D02*
X18607731Y-10661531D01*
X18607731Y-10661531D02*
X18617255Y-10632960D01*
X18617255Y-10632960D02*
X18626778Y-10585341D01*
X18626778Y-10585341D02*
X18626778Y-10547246D01*
X18626778Y-10547246D02*
X18617255Y-10499627D01*
X18617255Y-10499627D02*
X18607731Y-10471055D01*
X18607731Y-10471055D02*
X18598207Y-10452008D01*
X18598207Y-10452008D02*
X18579159Y-10423436D01*
X18579159Y-10423436D02*
X18569636Y-10413912D01*
M02*
