G04 #@! TF.GenerationSoftware,KiCad,Pcbnew,8.0.9-8.0.9-0~ubuntu22.04.1*
G04 #@! TF.CreationDate,2025-12-26T22:23:02+02:00*
G04 #@! TF.ProjectId,usb-atx-ctrl-redux,7573622d-6174-4782-9d63-74726c2d7265,rev?*
G04 #@! TF.SameCoordinates,Original*
G04 #@! TF.FileFunction,Copper,L1,Top*
G04 #@! TF.FilePolarity,Positive*
%FSLAX46Y46*%
G04 Gerber Fmt 4.6, Leading zero omitted, Abs format (unit mm)*
G04 Created by KiCad (PCBNEW 8.0.9-8.0.9-0~ubuntu22.04.1) date 2025-12-26 22:23:02*
%MOMM*%
%LPD*%
G01*
G04 APERTURE LIST*
G04 Aperture macros list*
%AMRoundRect*
0 Rectangle with rounded corners*
0 $1 Rounding radius*
0 $2 $3 $4 $5 $6 $7 $8 $9 X,Y pos of 4 corners*
0 Add a 4 corners polygon primitive as box body*
4,1,4,$2,$3,$4,$5,$6,$7,$8,$9,$2,$3,0*
0 Add four circle primitives for the rounded corners*
1,1,$1+$1,$2,$3*
1,1,$1+$1,$4,$5*
1,1,$1+$1,$6,$7*
1,1,$1+$1,$8,$9*
0 Add four rect primitives between the rounded corners*
20,1,$1+$1,$2,$3,$4,$5,0*
20,1,$1+$1,$4,$5,$6,$7,0*
20,1,$1+$1,$6,$7,$8,$9,0*
20,1,$1+$1,$8,$9,$2,$3,0*%
G04 Aperture macros list end*
G04 #@! TA.AperFunction,ComponentPad*
%ADD10O,1.250000X1.750000*%
G04 #@! TD*
G04 #@! TA.AperFunction,SMDPad,CuDef*
%ADD11RoundRect,0.237500X-0.250000X-0.237500X0.250000X-0.237500X0.250000X0.237500X-0.250000X0.237500X0*%
G04 #@! TD*
G04 #@! TA.AperFunction,SMDPad,CuDef*
%ADD12R,2.510000X1.000000*%
G04 #@! TD*
G04 #@! TA.AperFunction,SMDPad,CuDef*
%ADD13R,1.000000X2.510000*%
G04 #@! TD*
G04 #@! TA.AperFunction,SMDPad,CuDef*
%ADD14RoundRect,0.237500X-0.237500X0.250000X-0.237500X-0.250000X0.237500X-0.250000X0.237500X0.250000X0*%
G04 #@! TD*
G04 #@! TA.AperFunction,SMDPad,CuDef*
%ADD15RoundRect,0.250000X0.450000X-0.325000X0.450000X0.325000X-0.450000X0.325000X-0.450000X-0.325000X0*%
G04 #@! TD*
G04 #@! TA.AperFunction,ComponentPad*
%ADD16R,1.500000X1.500000*%
G04 #@! TD*
G04 #@! TA.AperFunction,ComponentPad*
%ADD17C,1.500000*%
G04 #@! TD*
G04 #@! TA.AperFunction,ViaPad*
%ADD18C,0.800000*%
G04 #@! TD*
G04 #@! TA.AperFunction,Conductor*
%ADD19C,0.250000*%
G04 #@! TD*
G04 #@! TA.AperFunction,Conductor*
%ADD20C,0.200000*%
G04 #@! TD*
G04 APERTURE END LIST*
D10*
X120732800Y-95453200D03*
X122732800Y-96723200D03*
X122732800Y-94183200D03*
D11*
X131142100Y-64465200D03*
X132967100Y-64465200D03*
D12*
X139519200Y-52180400D03*
X136209200Y-54720400D03*
X139519200Y-57260400D03*
X136209200Y-59800400D03*
X139519200Y-62340400D03*
X136209200Y-64880400D03*
X139519200Y-67420400D03*
X136209200Y-69960400D03*
X139519200Y-72500400D03*
D13*
X135345200Y-74139200D03*
X132805200Y-70829200D03*
X130265200Y-74139200D03*
X127725200Y-70829200D03*
X125185200Y-74139200D03*
D12*
X120970400Y-72500400D03*
X124280400Y-69960400D03*
X120970400Y-67420400D03*
X124280400Y-64880400D03*
X120970400Y-62340400D03*
X124280400Y-59800400D03*
X120970400Y-57260400D03*
X120970400Y-52180400D03*
X124280400Y-54720400D03*
D14*
X128398007Y-76928081D03*
X128398007Y-78753081D03*
D15*
X120343357Y-80240529D03*
X120343357Y-78190529D03*
D14*
X123012200Y-82731600D03*
X123012200Y-84556600D03*
D16*
X128387100Y-84384200D03*
D17*
X129657100Y-81844200D03*
X130927100Y-84384200D03*
X132197100Y-81844200D03*
X133467100Y-84384200D03*
X134737100Y-81844200D03*
X136007100Y-84384200D03*
X137277100Y-81844200D03*
D14*
X130934980Y-76899087D03*
X130934980Y-78724087D03*
D11*
X127435600Y-67233800D03*
X129260600Y-67233800D03*
X131142100Y-67233800D03*
X132967100Y-67233800D03*
D14*
X123005554Y-78186096D03*
X123005554Y-80011096D03*
D15*
X120343357Y-84787129D03*
X120343357Y-82737129D03*
D10*
X120738200Y-89408000D03*
X122738200Y-90678000D03*
X122738200Y-88138000D03*
D11*
X127484500Y-64465200D03*
X129309500Y-64465200D03*
D18*
X134620000Y-78054200D03*
X139700000Y-64795400D03*
X139700000Y-69875400D03*
X125501400Y-76936600D03*
X127457200Y-74853800D03*
X124333000Y-81381600D03*
X120802400Y-69824600D03*
X139519200Y-72500400D03*
X136209200Y-69960400D03*
X120970400Y-57260400D03*
X120802400Y-64744600D03*
X120970400Y-76150942D03*
D19*
X121192729Y-82737129D02*
X123012200Y-84556600D01*
X120343357Y-82737129D02*
X121192729Y-82737129D01*
X120343357Y-78190529D02*
X121184987Y-78190529D01*
X121184987Y-78190529D02*
X123005554Y-80011096D01*
X128387100Y-78763988D02*
X128387100Y-84384200D01*
D20*
X128398007Y-78753081D02*
X128387100Y-78763988D01*
D19*
X130927100Y-78731967D02*
X130927100Y-84384200D01*
D20*
X130934980Y-78724087D02*
X130927100Y-78731967D01*
D19*
X134620000Y-78054200D02*
X132197100Y-80477100D01*
X132197100Y-80477100D02*
X132197100Y-81844200D01*
X122738200Y-97231200D02*
X126009400Y-97231200D01*
X136007100Y-87233500D02*
X136007100Y-84384200D01*
X126009400Y-97231200D02*
X136007100Y-87233500D01*
X134721600Y-87503000D02*
X127533400Y-94691200D01*
X127533400Y-94691200D02*
X122738200Y-94691200D01*
X136721500Y-81844200D02*
X134721600Y-83844100D01*
X137277100Y-81844200D02*
X136721500Y-81844200D01*
X134721600Y-83844100D02*
X134721600Y-87503000D01*
X133934200Y-63500000D02*
X138404600Y-63500000D01*
X132969000Y-64465200D02*
X133934200Y-63500000D01*
X138404600Y-63500000D02*
X139700000Y-64795400D01*
X132967100Y-64465200D02*
X132969000Y-64465200D01*
X138379200Y-68554600D02*
X139700000Y-69875400D01*
X132967100Y-67233800D02*
X134287900Y-68554600D01*
X134287900Y-68554600D02*
X138379200Y-68554600D01*
X125501400Y-76936600D02*
X128389488Y-76936600D01*
X128389488Y-76936600D02*
X128398007Y-76928081D01*
X128244600Y-74853800D02*
X127457200Y-74853800D01*
X130934980Y-76899087D02*
X130289887Y-76899087D01*
X130289887Y-76899087D02*
X128244600Y-74853800D01*
X124333000Y-81381600D02*
X124333000Y-81410800D01*
X120938200Y-69960400D02*
X120802400Y-69824600D01*
X124333000Y-81410800D02*
X123012200Y-82731600D01*
X127007000Y-67233800D02*
X124280400Y-69960400D01*
X127435600Y-67233800D02*
X127007000Y-67233800D01*
X124280400Y-69960400D02*
X120938200Y-69960400D01*
X121869200Y-63677800D02*
X120802400Y-64744600D01*
X126949200Y-64465200D02*
X126161800Y-63677800D01*
X127484500Y-64465200D02*
X126949200Y-64465200D01*
X126161800Y-63677800D02*
X121869200Y-63677800D01*
X123005554Y-78186096D02*
X120970400Y-76150942D01*
X120970400Y-76150942D02*
X120970400Y-72500400D01*
G04 #@! TA.AperFunction,Conductor*
G36*
X142283721Y-50210402D02*
G01*
X142330214Y-50264058D01*
X142341600Y-50316400D01*
X142341600Y-98883200D01*
X142321598Y-98951321D01*
X142267942Y-98997814D01*
X142215600Y-99009200D01*
X118363000Y-99009200D01*
X118294879Y-98989198D01*
X118248386Y-98935542D01*
X118237000Y-98883200D01*
X118237000Y-95113992D01*
X119599300Y-95113992D01*
X119599300Y-95792408D01*
X119613033Y-95879113D01*
X119627212Y-95968634D01*
X119649780Y-96038091D01*
X119682344Y-96138313D01*
X119763344Y-96297283D01*
X119868215Y-96441626D01*
X119868217Y-96441628D01*
X119868219Y-96441631D01*
X119994368Y-96567780D01*
X119994371Y-96567782D01*
X119994374Y-96567785D01*
X120138717Y-96672656D01*
X120297687Y-96753656D01*
X120467365Y-96808787D01*
X120467366Y-96808787D01*
X120467371Y-96808789D01*
X120643592Y-96836700D01*
X120643595Y-96836700D01*
X120822005Y-96836700D01*
X120822008Y-96836700D01*
X120998229Y-96808789D01*
X121167913Y-96753656D01*
X121326883Y-96672656D01*
X121399240Y-96620085D01*
X121466106Y-96596228D01*
X121535258Y-96612308D01*
X121584738Y-96663221D01*
X121599300Y-96722022D01*
X121599300Y-97062408D01*
X121627211Y-97238629D01*
X121627212Y-97238634D01*
X121682342Y-97408308D01*
X121682344Y-97408313D01*
X121763344Y-97567283D01*
X121868215Y-97711626D01*
X121868217Y-97711628D01*
X121868219Y-97711631D01*
X121994368Y-97837780D01*
X121994371Y-97837782D01*
X121994374Y-97837785D01*
X122138717Y-97942656D01*
X122297687Y-98023656D01*
X122467365Y-98078787D01*
X122467366Y-98078787D01*
X122467371Y-98078789D01*
X122643592Y-98106700D01*
X122643595Y-98106700D01*
X122822005Y-98106700D01*
X122822008Y-98106700D01*
X122998229Y-98078789D01*
X123167913Y-98023656D01*
X123326883Y-97942656D01*
X123326889Y-97942652D01*
X123401061Y-97888764D01*
X123467928Y-97864905D01*
X123475121Y-97864700D01*
X126071793Y-97864700D01*
X126071794Y-97864700D01*
X126194185Y-97840355D01*
X126309475Y-97792600D01*
X126413233Y-97723271D01*
X133523595Y-90612909D01*
X136696600Y-90612909D01*
X136696600Y-90855490D01*
X136728260Y-91095982D01*
X136791044Y-91330295D01*
X136791045Y-91330297D01*
X136791046Y-91330300D01*
X136883876Y-91554412D01*
X136883877Y-91554413D01*
X136883882Y-91554424D01*
X137005161Y-91764485D01*
X137005163Y-91764488D01*
X137005164Y-91764489D01*
X137152835Y-91956938D01*
X137152839Y-91956942D01*
X137152844Y-91956948D01*
X137324351Y-92128455D01*
X137324356Y-92128459D01*
X137324362Y-92128465D01*
X137516811Y-92276136D01*
X137516814Y-92276138D01*
X137726875Y-92397417D01*
X137726879Y-92397418D01*
X137726888Y-92397424D01*
X137951000Y-92490254D01*
X138185311Y-92553038D01*
X138185315Y-92553038D01*
X138185317Y-92553039D01*
X138247302Y-92561199D01*
X138425812Y-92584700D01*
X138425819Y-92584700D01*
X138668381Y-92584700D01*
X138668388Y-92584700D01*
X138885737Y-92556085D01*
X138908882Y-92553039D01*
X138908882Y-92553038D01*
X138908889Y-92553038D01*
X139143200Y-92490254D01*
X139367312Y-92397424D01*
X139577389Y-92276136D01*
X139769838Y-92128465D01*
X139941365Y-91956938D01*
X140089036Y-91764489D01*
X140210324Y-91554412D01*
X140303154Y-91330300D01*
X140365938Y-91095989D01*
X140397600Y-90855488D01*
X140397600Y-90612912D01*
X140365938Y-90372411D01*
X140303154Y-90138100D01*
X140210324Y-89913988D01*
X140210318Y-89913979D01*
X140210317Y-89913975D01*
X140089038Y-89703914D01*
X140089036Y-89703911D01*
X139941365Y-89511462D01*
X139941359Y-89511456D01*
X139941355Y-89511451D01*
X139769848Y-89339944D01*
X139769842Y-89339939D01*
X139769838Y-89339935D01*
X139577389Y-89192264D01*
X139577388Y-89192263D01*
X139577385Y-89192261D01*
X139367324Y-89070982D01*
X139367316Y-89070978D01*
X139367312Y-89070976D01*
X139143200Y-88978146D01*
X139143197Y-88978145D01*
X139143195Y-88978144D01*
X138908882Y-88915360D01*
X138668390Y-88883700D01*
X138668388Y-88883700D01*
X138425812Y-88883700D01*
X138425809Y-88883700D01*
X138185317Y-88915360D01*
X137951004Y-88978144D01*
X137951000Y-88978146D01*
X137732154Y-89068795D01*
X137726886Y-89070977D01*
X137726875Y-89070982D01*
X137516814Y-89192261D01*
X137324362Y-89339935D01*
X137324351Y-89339944D01*
X137152844Y-89511451D01*
X137152835Y-89511462D01*
X137005161Y-89703914D01*
X136883882Y-89913975D01*
X136883877Y-89913986D01*
X136883876Y-89913988D01*
X136851196Y-89992885D01*
X136791046Y-90138100D01*
X136791044Y-90138104D01*
X136728260Y-90372417D01*
X136696600Y-90612909D01*
X133523595Y-90612909D01*
X136499171Y-87637333D01*
X136568500Y-87533575D01*
X136616255Y-87418285D01*
X136640600Y-87295894D01*
X136640600Y-87171106D01*
X136640600Y-85542554D01*
X136660602Y-85474433D01*
X136694330Y-85439341D01*
X136819129Y-85351955D01*
X136819138Y-85351949D01*
X136974849Y-85196238D01*
X137101156Y-85015854D01*
X137194220Y-84816276D01*
X137251215Y-84603571D01*
X137270407Y-84384200D01*
X137251215Y-84164829D01*
X137194220Y-83952124D01*
X137101156Y-83752547D01*
X136974849Y-83572162D01*
X136819138Y-83416451D01*
X136638754Y-83290144D01*
X136603275Y-83273600D01*
X136483152Y-83217586D01*
X136429867Y-83170669D01*
X136410406Y-83102392D01*
X136430948Y-83034432D01*
X136447302Y-83014301D01*
X136499793Y-82961810D01*
X136562103Y-82927786D01*
X136632918Y-82932851D01*
X136642136Y-82936712D01*
X136645443Y-82938254D01*
X136645446Y-82938256D01*
X136845024Y-83031320D01*
X137057729Y-83088315D01*
X137277100Y-83107507D01*
X137496471Y-83088315D01*
X137709176Y-83031320D01*
X137908754Y-82938256D01*
X138089138Y-82811949D01*
X138244849Y-82656238D01*
X138371156Y-82475854D01*
X138464220Y-82276276D01*
X138521215Y-82063571D01*
X138540407Y-81844200D01*
X138521215Y-81624829D01*
X138464220Y-81412124D01*
X138371156Y-81212547D01*
X138244849Y-81032162D01*
X138089138Y-80876451D01*
X138051716Y-80850248D01*
X138026583Y-80832649D01*
X137908754Y-80750144D01*
X137908750Y-80750142D01*
X137709179Y-80657081D01*
X137709173Y-80657079D01*
X137581034Y-80622744D01*
X137496471Y-80600085D01*
X137277100Y-80580893D01*
X137057729Y-80600085D01*
X136845026Y-80657079D01*
X136845020Y-80657081D01*
X136645446Y-80750144D01*
X136465065Y-80876448D01*
X136465059Y-80876453D01*
X136309353Y-81032159D01*
X136309348Y-81032165D01*
X136183044Y-81212546D01*
X136121295Y-81344968D01*
X136074378Y-81398253D01*
X136006100Y-81417714D01*
X135938140Y-81397172D01*
X135892905Y-81344968D01*
X135851971Y-81257186D01*
X135831156Y-81212547D01*
X135704849Y-81032162D01*
X135549138Y-80876451D01*
X135511716Y-80850248D01*
X135486583Y-80832649D01*
X135368754Y-80750144D01*
X135368750Y-80750142D01*
X135169179Y-80657081D01*
X135169173Y-80657079D01*
X135041034Y-80622744D01*
X134956471Y-80600085D01*
X134737100Y-80580893D01*
X134517729Y-80600085D01*
X134305026Y-80657079D01*
X134305020Y-80657081D01*
X134105446Y-80750144D01*
X133925065Y-80876448D01*
X133925059Y-80876453D01*
X133769353Y-81032159D01*
X133769348Y-81032165D01*
X133643044Y-81212546D01*
X133581295Y-81344968D01*
X133534378Y-81398253D01*
X133466100Y-81417714D01*
X133398140Y-81397172D01*
X133352905Y-81344968D01*
X133311971Y-81257186D01*
X133291156Y-81212547D01*
X133164849Y-81032162D01*
X133009138Y-80876451D01*
X133009134Y-80876448D01*
X132946584Y-80832649D01*
X132902256Y-80777191D01*
X132894948Y-80706571D01*
X132926980Y-80643212D01*
X132929729Y-80640374D01*
X134570499Y-78999605D01*
X134632811Y-78965579D01*
X134659594Y-78962700D01*
X134715487Y-78962700D01*
X134902288Y-78922994D01*
X135076752Y-78845318D01*
X135231253Y-78733066D01*
X135231255Y-78733064D01*
X135359034Y-78591151D01*
X135359035Y-78591149D01*
X135359040Y-78591144D01*
X135454527Y-78425756D01*
X135513542Y-78244128D01*
X135533504Y-78054200D01*
X135513542Y-77864272D01*
X135454527Y-77682644D01*
X135359040Y-77517256D01*
X135359038Y-77517254D01*
X135359034Y-77517248D01*
X135231255Y-77375335D01*
X135076752Y-77263082D01*
X134902288Y-77185406D01*
X134715487Y-77145700D01*
X134524513Y-77145700D01*
X134337711Y-77185406D01*
X134163247Y-77263082D01*
X134008744Y-77375335D01*
X133880965Y-77517248D01*
X133880958Y-77517258D01*
X133801992Y-77654032D01*
X133785473Y-77682644D01*
X133770999Y-77727186D01*
X133726457Y-77864272D01*
X133709092Y-78029493D01*
X133682079Y-78095150D01*
X133672877Y-78105417D01*
X131793267Y-79985029D01*
X131775695Y-80002601D01*
X131713383Y-80036627D01*
X131642568Y-80031562D01*
X131585732Y-79989015D01*
X131560921Y-79922495D01*
X131560600Y-79913506D01*
X131560600Y-79681509D01*
X131580602Y-79613388D01*
X131620455Y-79574267D01*
X131638326Y-79563245D01*
X131761638Y-79439933D01*
X131853189Y-79291507D01*
X131908042Y-79125968D01*
X131918480Y-79023800D01*
X131918479Y-78424375D01*
X131908042Y-78322206D01*
X131853189Y-78156667D01*
X131761638Y-78008241D01*
X131761637Y-78008240D01*
X131761632Y-78008234D01*
X131654080Y-77900682D01*
X131620054Y-77838370D01*
X131625119Y-77767555D01*
X131654080Y-77722492D01*
X131761632Y-77614939D01*
X131761638Y-77614933D01*
X131853189Y-77466507D01*
X131908042Y-77300968D01*
X131918480Y-77198800D01*
X131918479Y-76599375D01*
X131910625Y-76522496D01*
X131908042Y-76497206D01*
X131875718Y-76399658D01*
X131853189Y-76331667D01*
X131761638Y-76183241D01*
X131761637Y-76183240D01*
X131761632Y-76183234D01*
X131638332Y-76059934D01*
X131638326Y-76059929D01*
X131616768Y-76046632D01*
X131489900Y-75968378D01*
X131324361Y-75913525D01*
X131324359Y-75913524D01*
X131324357Y-75913524D01*
X131255333Y-75906472D01*
X131189598Y-75879650D01*
X131148800Y-75821546D01*
X131145891Y-75750609D01*
X131167272Y-75705616D01*
X131216087Y-75640407D01*
X131216087Y-75640406D01*
X131216089Y-75640404D01*
X131260160Y-75522245D01*
X131267188Y-75503404D01*
X131267190Y-75503396D01*
X131273699Y-75442849D01*
X131273700Y-75442832D01*
X131273700Y-72835567D01*
X131273699Y-72835550D01*
X134336700Y-72835550D01*
X134336700Y-75442849D01*
X134343209Y-75503396D01*
X134343211Y-75503404D01*
X134394310Y-75640402D01*
X134394312Y-75640407D01*
X134481938Y-75757461D01*
X134598992Y-75845087D01*
X134598994Y-75845088D01*
X134598996Y-75845089D01*
X134612466Y-75850113D01*
X134735995Y-75896188D01*
X134736003Y-75896190D01*
X134796550Y-75902699D01*
X134796555Y-75902699D01*
X134796562Y-75902700D01*
X134796568Y-75902700D01*
X135893832Y-75902700D01*
X135893838Y-75902700D01*
X135893845Y-75902699D01*
X135893849Y-75902699D01*
X135954396Y-75896190D01*
X135954399Y-75896189D01*
X135954401Y-75896189D01*
X136091404Y-75845089D01*
X136208461Y-75757461D01*
X136296089Y-75640404D01*
X136340160Y-75522245D01*
X136347188Y-75503404D01*
X136347190Y-75503396D01*
X136353699Y-75442849D01*
X136353700Y-75442832D01*
X136353700Y-72835567D01*
X136353699Y-72835550D01*
X136347190Y-72775003D01*
X136347188Y-72774995D01*
X136296089Y-72637997D01*
X136296087Y-72637992D01*
X136208461Y-72520938D01*
X136091407Y-72433312D01*
X136091402Y-72433310D01*
X135954404Y-72382211D01*
X135954396Y-72382209D01*
X135893849Y-72375700D01*
X135893838Y-72375700D01*
X134796562Y-72375700D01*
X134796550Y-72375700D01*
X134736003Y-72382209D01*
X134735995Y-72382211D01*
X134598997Y-72433310D01*
X134598992Y-72433312D01*
X134481938Y-72520938D01*
X134394312Y-72637992D01*
X134394310Y-72637997D01*
X134343211Y-72774995D01*
X134343209Y-72775003D01*
X134336700Y-72835550D01*
X131273699Y-72835550D01*
X131267190Y-72775003D01*
X131267188Y-72774995D01*
X131216089Y-72637997D01*
X131216087Y-72637992D01*
X131128461Y-72520938D01*
X131011407Y-72433312D01*
X131011402Y-72433310D01*
X130874404Y-72382211D01*
X130874396Y-72382209D01*
X130813849Y-72375700D01*
X130813838Y-72375700D01*
X129716562Y-72375700D01*
X129716550Y-72375700D01*
X129656003Y-72382209D01*
X129655995Y-72382211D01*
X129518997Y-72433310D01*
X129518992Y-72433312D01*
X129401938Y-72520938D01*
X129314312Y-72637992D01*
X129314310Y-72637997D01*
X129263211Y-72774995D01*
X129263209Y-72775003D01*
X129256700Y-72835550D01*
X129256700Y-74665804D01*
X129236698Y-74733925D01*
X129183042Y-74780418D01*
X129112768Y-74790522D01*
X129048188Y-74761028D01*
X129041605Y-74754900D01*
X128768942Y-74482238D01*
X128648433Y-74361729D01*
X128544675Y-74292400D01*
X128429385Y-74244645D01*
X128355686Y-74229985D01*
X128306996Y-74220300D01*
X128306994Y-74220300D01*
X128165400Y-74220300D01*
X128097279Y-74200298D01*
X128071763Y-74178610D01*
X128068452Y-74174933D01*
X127913952Y-74062682D01*
X127739488Y-73985006D01*
X127552687Y-73945300D01*
X127361713Y-73945300D01*
X127174911Y-73985006D01*
X127000447Y-74062682D01*
X126845944Y-74174935D01*
X126718165Y-74316848D01*
X126718158Y-74316858D01*
X126622676Y-74482238D01*
X126622673Y-74482245D01*
X126563657Y-74663872D01*
X126543696Y-74853800D01*
X126563657Y-75043727D01*
X126593726Y-75136270D01*
X126622673Y-75225356D01*
X126622676Y-75225361D01*
X126718158Y-75390741D01*
X126718165Y-75390751D01*
X126845944Y-75532664D01*
X126869630Y-75549873D01*
X127000448Y-75644918D01*
X127174912Y-75722594D01*
X127361713Y-75762300D01*
X127552687Y-75762300D01*
X127739488Y-75722594D01*
X127913952Y-75644918D01*
X127957709Y-75613126D01*
X128024572Y-75589268D01*
X128093724Y-75605346D01*
X128120863Y-75625967D01*
X128211882Y-75716986D01*
X128245908Y-75779298D01*
X128240843Y-75850113D01*
X128198296Y-75906949D01*
X128131776Y-75931760D01*
X128122795Y-75932081D01*
X128110796Y-75932081D01*
X128008626Y-75942518D01*
X127843086Y-75997372D01*
X127694660Y-76088923D01*
X127694654Y-76088928D01*
X127571354Y-76212228D01*
X127571349Y-76212234D01*
X127562406Y-76226732D01*
X127552219Y-76243248D01*
X127499435Y-76290725D01*
X127444980Y-76303100D01*
X126209600Y-76303100D01*
X126141479Y-76283098D01*
X126115963Y-76261410D01*
X126112652Y-76257733D01*
X125958152Y-76145482D01*
X125860501Y-76102005D01*
X125806405Y-76056024D01*
X125785756Y-75988097D01*
X125805109Y-75919789D01*
X125858319Y-75872788D01*
X125867698Y-75868850D01*
X125931404Y-75845089D01*
X126048461Y-75757461D01*
X126136089Y-75640404D01*
X126180160Y-75522245D01*
X126187188Y-75503404D01*
X126187190Y-75503396D01*
X126193699Y-75442849D01*
X126193700Y-75442832D01*
X126193700Y-72835567D01*
X126193699Y-72835550D01*
X126187190Y-72775003D01*
X126187188Y-72774995D01*
X126136089Y-72637997D01*
X126136087Y-72637992D01*
X126048461Y-72520938D01*
X125931407Y-72433312D01*
X125931402Y-72433310D01*
X125794404Y-72382211D01*
X125794396Y-72382209D01*
X125733849Y-72375700D01*
X125733838Y-72375700D01*
X124636562Y-72375700D01*
X124636550Y-72375700D01*
X124576003Y-72382209D01*
X124575995Y-72382211D01*
X124438997Y-72433310D01*
X124438992Y-72433312D01*
X124321938Y-72520938D01*
X124234312Y-72637992D01*
X124234310Y-72637997D01*
X124183211Y-72774995D01*
X124183209Y-72775003D01*
X124176700Y-72835550D01*
X124176700Y-75442849D01*
X124183209Y-75503396D01*
X124183211Y-75503404D01*
X124234310Y-75640402D01*
X124234312Y-75640407D01*
X124321938Y-75757461D01*
X124438992Y-75845087D01*
X124438994Y-75845088D01*
X124438996Y-75845089D01*
X124452466Y-75850113D01*
X124575995Y-75896188D01*
X124576003Y-75896190D01*
X124636550Y-75902699D01*
X124636555Y-75902699D01*
X124636562Y-75902700D01*
X124636568Y-75902700D01*
X124997162Y-75902700D01*
X125065283Y-75922702D01*
X125111776Y-75976358D01*
X125121880Y-76046632D01*
X125092386Y-76111212D01*
X125048412Y-76143806D01*
X125046659Y-76144586D01*
X125044647Y-76145482D01*
X124890144Y-76257735D01*
X124762365Y-76399648D01*
X124762358Y-76399658D01*
X124666876Y-76565038D01*
X124666873Y-76565045D01*
X124607857Y-76746672D01*
X124587896Y-76936600D01*
X124607857Y-77126527D01*
X124628743Y-77190804D01*
X124666873Y-77308156D01*
X124666876Y-77308161D01*
X124762358Y-77473541D01*
X124762365Y-77473551D01*
X124890144Y-77615464D01*
X124890147Y-77615466D01*
X125044648Y-77727718D01*
X125219112Y-77805394D01*
X125405913Y-77845100D01*
X125596887Y-77845100D01*
X125783688Y-77805394D01*
X125958152Y-77727718D01*
X126112653Y-77615466D01*
X126115963Y-77611790D01*
X126176409Y-77574550D01*
X126209600Y-77570100D01*
X127455489Y-77570100D01*
X127523610Y-77590102D01*
X127562729Y-77629952D01*
X127571347Y-77643925D01*
X127571354Y-77643933D01*
X127678907Y-77751486D01*
X127712933Y-77813798D01*
X127707868Y-77884613D01*
X127678907Y-77929676D01*
X127571354Y-78037228D01*
X127571349Y-78037234D01*
X127479798Y-78185661D01*
X127424944Y-78351203D01*
X127414507Y-78453359D01*
X127414507Y-79052793D01*
X127424944Y-79154961D01*
X127479798Y-79320501D01*
X127571349Y-79468927D01*
X127571354Y-79468933D01*
X127694654Y-79592233D01*
X127694658Y-79592236D01*
X127694661Y-79592239D01*
X127694663Y-79592240D01*
X127700416Y-79596789D01*
X127699446Y-79598015D01*
X127741219Y-79644447D01*
X127753600Y-79698915D01*
X127753600Y-82999700D01*
X127733598Y-83067821D01*
X127679942Y-83114314D01*
X127627600Y-83125700D01*
X127588450Y-83125700D01*
X127527903Y-83132209D01*
X127527895Y-83132211D01*
X127390897Y-83183310D01*
X127390892Y-83183312D01*
X127273838Y-83270938D01*
X127186212Y-83387992D01*
X127186210Y-83387997D01*
X127135111Y-83524995D01*
X127135109Y-83525003D01*
X127128600Y-83585550D01*
X127128600Y-85182849D01*
X127135109Y-85243396D01*
X127135111Y-85243404D01*
X127186210Y-85380402D01*
X127186212Y-85380407D01*
X127273838Y-85497461D01*
X127390892Y-85585087D01*
X127390894Y-85585088D01*
X127390896Y-85585089D01*
X127449975Y-85607124D01*
X127527895Y-85636188D01*
X127527903Y-85636190D01*
X127588450Y-85642699D01*
X127588455Y-85642699D01*
X127588462Y-85642700D01*
X127588468Y-85642700D01*
X129185732Y-85642700D01*
X129185738Y-85642700D01*
X129185745Y-85642699D01*
X129185749Y-85642699D01*
X129246296Y-85636190D01*
X129246299Y-85636189D01*
X129246301Y-85636189D01*
X129383304Y-85585089D01*
X129407721Y-85566811D01*
X129500361Y-85497461D01*
X129587987Y-85380407D01*
X129587987Y-85380406D01*
X129587989Y-85380404D01*
X129639089Y-85243401D01*
X129644160Y-85196238D01*
X129645599Y-85182849D01*
X129645600Y-85182832D01*
X129645600Y-85147776D01*
X129665602Y-85079655D01*
X129719258Y-85033162D01*
X129789532Y-85023058D01*
X129854112Y-85052552D01*
X129874813Y-85075506D01*
X129959347Y-85196233D01*
X129959354Y-85196242D01*
X130115057Y-85351945D01*
X130115061Y-85351948D01*
X130115062Y-85351949D01*
X130295446Y-85478256D01*
X130495024Y-85571320D01*
X130707729Y-85628315D01*
X130927100Y-85647507D01*
X131146471Y-85628315D01*
X131359176Y-85571320D01*
X131558754Y-85478256D01*
X131739138Y-85351949D01*
X131894849Y-85196238D01*
X132021156Y-85015854D01*
X132082905Y-84883432D01*
X132129822Y-84830146D01*
X132198099Y-84810685D01*
X132266059Y-84831226D01*
X132311295Y-84883432D01*
X132373044Y-85015854D01*
X132475829Y-85162645D01*
X132499351Y-85196238D01*
X132499354Y-85196242D01*
X132655057Y-85351945D01*
X132655061Y-85351948D01*
X132655062Y-85351949D01*
X132835446Y-85478256D01*
X133035024Y-85571320D01*
X133247729Y-85628315D01*
X133467100Y-85647507D01*
X133686471Y-85628315D01*
X133899176Y-85571320D01*
X133908846Y-85566810D01*
X133979035Y-85556146D01*
X134043849Y-85585123D01*
X134082709Y-85644540D01*
X134088100Y-85681003D01*
X134088100Y-87188406D01*
X134068098Y-87256527D01*
X134051195Y-87277501D01*
X127307901Y-94020795D01*
X127245589Y-94054821D01*
X127218806Y-94057700D01*
X123992300Y-94057700D01*
X123924179Y-94037698D01*
X123877686Y-93984042D01*
X123866300Y-93931700D01*
X123866300Y-93843995D01*
X123866300Y-93843992D01*
X123838389Y-93667771D01*
X123783256Y-93498087D01*
X123702256Y-93339117D01*
X123597385Y-93194774D01*
X123597382Y-93194771D01*
X123597380Y-93194768D01*
X123471231Y-93068619D01*
X123471228Y-93068617D01*
X123471226Y-93068615D01*
X123326883Y-92963744D01*
X123167913Y-92882744D01*
X123167910Y-92882743D01*
X123167908Y-92882742D01*
X122998233Y-92827612D01*
X122998236Y-92827612D01*
X122965425Y-92822415D01*
X122822008Y-92799700D01*
X122643592Y-92799700D01*
X122467371Y-92827611D01*
X122467365Y-92827612D01*
X122297691Y-92882742D01*
X122297685Y-92882745D01*
X122138713Y-92963746D01*
X121994371Y-93068617D01*
X121994368Y-93068619D01*
X121868219Y-93194768D01*
X121868217Y-93194771D01*
X121763346Y-93339113D01*
X121682345Y-93498085D01*
X121682342Y-93498091D01*
X121627212Y-93667765D01*
X121599300Y-93843995D01*
X121599300Y-94184377D01*
X121579298Y-94252498D01*
X121525642Y-94298991D01*
X121455368Y-94309095D01*
X121399240Y-94286313D01*
X121326889Y-94233747D01*
X121310290Y-94225289D01*
X121167913Y-94152744D01*
X121167910Y-94152743D01*
X121167908Y-94152742D01*
X120998233Y-94097612D01*
X120998236Y-94097612D01*
X120965425Y-94092415D01*
X120822008Y-94069700D01*
X120643592Y-94069700D01*
X120467371Y-94097611D01*
X120467365Y-94097612D01*
X120297691Y-94152742D01*
X120297685Y-94152745D01*
X120138713Y-94233746D01*
X119994371Y-94338617D01*
X119994368Y-94338619D01*
X119868219Y-94464768D01*
X119868217Y-94464771D01*
X119763346Y-94609113D01*
X119682345Y-94768085D01*
X119682342Y-94768091D01*
X119627212Y-94937765D01*
X119627211Y-94937770D01*
X119627211Y-94937771D01*
X119599300Y-95113992D01*
X118237000Y-95113992D01*
X118237000Y-89068792D01*
X119604700Y-89068792D01*
X119604700Y-89747208D01*
X119631116Y-89913988D01*
X119632612Y-89923434D01*
X119655180Y-89992891D01*
X119687744Y-90093113D01*
X119768744Y-90252083D01*
X119873615Y-90396426D01*
X119873617Y-90396428D01*
X119873619Y-90396431D01*
X119999768Y-90522580D01*
X119999771Y-90522582D01*
X119999774Y-90522585D01*
X120144117Y-90627456D01*
X120303087Y-90708456D01*
X120472765Y-90763587D01*
X120472766Y-90763587D01*
X120472771Y-90763589D01*
X120648992Y-90791500D01*
X120648995Y-90791500D01*
X120827405Y-90791500D01*
X120827408Y-90791500D01*
X121003629Y-90763589D01*
X121173313Y-90708456D01*
X121332283Y-90627456D01*
X121404640Y-90574885D01*
X121471506Y-90551028D01*
X121540658Y-90567108D01*
X121590138Y-90618021D01*
X121604700Y-90676822D01*
X121604700Y-91017208D01*
X121617177Y-91095982D01*
X121632612Y-91193434D01*
X121687742Y-91363108D01*
X121687744Y-91363113D01*
X121768744Y-91522083D01*
X121873615Y-91666426D01*
X121873617Y-91666428D01*
X121873619Y-91666431D01*
X121999768Y-91792580D01*
X121999771Y-91792582D01*
X121999774Y-91792585D01*
X122144117Y-91897456D01*
X122303087Y-91978456D01*
X122472765Y-92033587D01*
X122472766Y-92033587D01*
X122472771Y-92033589D01*
X122648992Y-92061500D01*
X122648995Y-92061500D01*
X122827405Y-92061500D01*
X122827408Y-92061500D01*
X123003629Y-92033589D01*
X123173313Y-91978456D01*
X123332283Y-91897456D01*
X123476626Y-91792585D01*
X123602785Y-91666426D01*
X123707656Y-91522083D01*
X123788656Y-91363113D01*
X123843789Y-91193429D01*
X123871700Y-91017208D01*
X123871700Y-90612909D01*
X125266600Y-90612909D01*
X125266600Y-90855490D01*
X125298260Y-91095982D01*
X125361044Y-91330295D01*
X125361045Y-91330297D01*
X125361046Y-91330300D01*
X125453876Y-91554412D01*
X125453877Y-91554413D01*
X125453882Y-91554424D01*
X125575161Y-91764485D01*
X125575163Y-91764488D01*
X125575164Y-91764489D01*
X125722835Y-91956938D01*
X125722839Y-91956942D01*
X125722844Y-91956948D01*
X125894351Y-92128455D01*
X125894356Y-92128459D01*
X125894362Y-92128465D01*
X126086811Y-92276136D01*
X126086814Y-92276138D01*
X126296875Y-92397417D01*
X126296879Y-92397418D01*
X126296888Y-92397424D01*
X126521000Y-92490254D01*
X126755311Y-92553038D01*
X126755315Y-92553038D01*
X126755317Y-92553039D01*
X126817302Y-92561199D01*
X126995812Y-92584700D01*
X126995819Y-92584700D01*
X127238381Y-92584700D01*
X127238388Y-92584700D01*
X127455737Y-92556085D01*
X127478882Y-92553039D01*
X127478882Y-92553038D01*
X127478889Y-92553038D01*
X127713200Y-92490254D01*
X127937312Y-92397424D01*
X128147389Y-92276136D01*
X128339838Y-92128465D01*
X128511365Y-91956938D01*
X128659036Y-91764489D01*
X128780324Y-91554412D01*
X128873154Y-91330300D01*
X128935938Y-91095989D01*
X128967600Y-90855488D01*
X128967600Y-90612912D01*
X128935938Y-90372411D01*
X128873154Y-90138100D01*
X128780324Y-89913988D01*
X128780318Y-89913979D01*
X128780317Y-89913975D01*
X128659038Y-89703914D01*
X128659036Y-89703911D01*
X128511365Y-89511462D01*
X128511359Y-89511456D01*
X128511355Y-89511451D01*
X128339848Y-89339944D01*
X128339842Y-89339939D01*
X128339838Y-89339935D01*
X128147389Y-89192264D01*
X128147388Y-89192263D01*
X128147385Y-89192261D01*
X127937324Y-89070982D01*
X127937316Y-89070978D01*
X127937312Y-89070976D01*
X127713200Y-88978146D01*
X127713197Y-88978145D01*
X127713195Y-88978144D01*
X127478882Y-88915360D01*
X127238390Y-88883700D01*
X127238388Y-88883700D01*
X126995812Y-88883700D01*
X126995809Y-88883700D01*
X126755317Y-88915360D01*
X126521004Y-88978144D01*
X126521000Y-88978146D01*
X126302154Y-89068795D01*
X126296886Y-89070977D01*
X126296875Y-89070982D01*
X126086814Y-89192261D01*
X125894362Y-89339935D01*
X125894351Y-89339944D01*
X125722844Y-89511451D01*
X125722835Y-89511462D01*
X125575161Y-89703914D01*
X125453882Y-89913975D01*
X125453877Y-89913986D01*
X125453876Y-89913988D01*
X125421196Y-89992885D01*
X125361046Y-90138100D01*
X125361044Y-90138104D01*
X125298260Y-90372417D01*
X125266600Y-90612909D01*
X123871700Y-90612909D01*
X123871700Y-90338792D01*
X123843789Y-90162571D01*
X123788656Y-89992887D01*
X123707656Y-89833917D01*
X123602785Y-89689574D01*
X123602782Y-89689571D01*
X123602780Y-89689568D01*
X123476631Y-89563419D01*
X123476628Y-89563417D01*
X123476626Y-89563415D01*
X123403017Y-89509935D01*
X123359664Y-89453714D01*
X123353589Y-89382978D01*
X123386720Y-89320186D01*
X123403018Y-89306064D01*
X123476626Y-89252585D01*
X123602785Y-89126426D01*
X123707656Y-88982083D01*
X123788656Y-88823113D01*
X123843789Y-88653429D01*
X123871700Y-88477208D01*
X123871700Y-87798792D01*
X123843789Y-87622571D01*
X123788656Y-87452887D01*
X123707656Y-87293917D01*
X123602785Y-87149574D01*
X123602782Y-87149571D01*
X123602780Y-87149568D01*
X123476631Y-87023419D01*
X123476628Y-87023417D01*
X123476626Y-87023415D01*
X123332283Y-86918544D01*
X123173313Y-86837544D01*
X123173310Y-86837543D01*
X123173308Y-86837542D01*
X123003633Y-86782412D01*
X123003636Y-86782412D01*
X122970825Y-86777215D01*
X122827408Y-86754500D01*
X122648992Y-86754500D01*
X122472771Y-86782411D01*
X122472765Y-86782412D01*
X122303091Y-86837542D01*
X122303085Y-86837545D01*
X122144113Y-86918546D01*
X121999771Y-87023417D01*
X121999768Y-87023419D01*
X121873619Y-87149568D01*
X121873617Y-87149571D01*
X121768746Y-87293913D01*
X121687745Y-87452885D01*
X121687742Y-87452891D01*
X121632612Y-87622565D01*
X121604700Y-87798795D01*
X121604700Y-88139177D01*
X121584698Y-88207298D01*
X121531042Y-88253791D01*
X121460768Y-88263895D01*
X121404640Y-88241113D01*
X121332289Y-88188547D01*
X121315690Y-88180089D01*
X121173313Y-88107544D01*
X121173310Y-88107543D01*
X121173308Y-88107542D01*
X121003633Y-88052412D01*
X121003636Y-88052412D01*
X120970825Y-88047215D01*
X120827408Y-88024500D01*
X120648992Y-88024500D01*
X120472771Y-88052411D01*
X120472765Y-88052412D01*
X120303091Y-88107542D01*
X120303085Y-88107545D01*
X120144113Y-88188546D01*
X119999771Y-88293417D01*
X119999768Y-88293419D01*
X119873619Y-88419568D01*
X119873617Y-88419571D01*
X119768746Y-88563913D01*
X119687745Y-88722885D01*
X119687742Y-88722891D01*
X119632612Y-88892565D01*
X119632611Y-88892570D01*
X119632611Y-88892571D01*
X119604700Y-89068792D01*
X118237000Y-89068792D01*
X118237000Y-85162645D01*
X119135357Y-85162645D01*
X119145962Y-85266447D01*
X119145963Y-85266450D01*
X119201699Y-85434654D01*
X119294722Y-85585468D01*
X119294727Y-85585474D01*
X119420011Y-85710758D01*
X119420017Y-85710763D01*
X119570831Y-85803786D01*
X119739035Y-85859522D01*
X119739038Y-85859523D01*
X119842840Y-85870128D01*
X119842840Y-85870129D01*
X120089357Y-85870129D01*
X120597357Y-85870129D01*
X120843874Y-85870129D01*
X120843873Y-85870128D01*
X120947675Y-85859523D01*
X120947678Y-85859522D01*
X121115882Y-85803786D01*
X121266696Y-85710763D01*
X121266702Y-85710758D01*
X121391986Y-85585474D01*
X121391991Y-85585468D01*
X121485014Y-85434654D01*
X121540750Y-85266450D01*
X121540751Y-85266447D01*
X121551356Y-85162645D01*
X121551357Y-85162645D01*
X121551357Y-85041129D01*
X120597357Y-85041129D01*
X120597357Y-85870129D01*
X120089357Y-85870129D01*
X120089357Y-85041129D01*
X119135357Y-85041129D01*
X119135357Y-85162645D01*
X118237000Y-85162645D01*
X118237000Y-80616045D01*
X119135357Y-80616045D01*
X119145962Y-80719847D01*
X119145963Y-80719850D01*
X119201699Y-80888054D01*
X119294722Y-81038868D01*
X119294727Y-81038874D01*
X119420011Y-81164158D01*
X119420017Y-81164163D01*
X119570831Y-81257186D01*
X119739035Y-81312922D01*
X119739038Y-81312923D01*
X119842840Y-81323528D01*
X119842840Y-81323529D01*
X120089357Y-81323529D01*
X120597357Y-81323529D01*
X120843874Y-81323529D01*
X120843873Y-81323528D01*
X120947675Y-81312923D01*
X120947678Y-81312922D01*
X121115882Y-81257186D01*
X121266696Y-81164163D01*
X121266702Y-81164158D01*
X121391986Y-81038874D01*
X121391991Y-81038868D01*
X121485014Y-80888054D01*
X121540750Y-80719850D01*
X121540751Y-80719847D01*
X121551356Y-80616045D01*
X121551357Y-80616045D01*
X121551357Y-80494529D01*
X120597357Y-80494529D01*
X120597357Y-81323529D01*
X120089357Y-81323529D01*
X120089357Y-80494529D01*
X119135357Y-80494529D01*
X119135357Y-80616045D01*
X118237000Y-80616045D01*
X118237000Y-77814975D01*
X119134857Y-77814975D01*
X119134857Y-78566073D01*
X119145469Y-78669954D01*
X119201242Y-78838267D01*
X119294327Y-78989181D01*
X119294332Y-78989187D01*
X119419702Y-79114557D01*
X119422807Y-79117012D01*
X119424384Y-79119239D01*
X119424894Y-79119749D01*
X119424806Y-79119836D01*
X119463838Y-79174951D01*
X119467030Y-79245876D01*
X119431371Y-79307268D01*
X119422811Y-79314686D01*
X119420011Y-79316899D01*
X119294727Y-79442183D01*
X119294722Y-79442189D01*
X119201699Y-79593003D01*
X119145963Y-79761207D01*
X119145962Y-79761210D01*
X119135357Y-79865012D01*
X119135357Y-79986529D01*
X121551357Y-79986529D01*
X121551357Y-79865012D01*
X121540448Y-79758239D01*
X121553422Y-79688438D01*
X121602074Y-79636732D01*
X121670957Y-79619538D01*
X121738201Y-79642314D01*
X121754886Y-79656333D01*
X121963565Y-79865012D01*
X121985150Y-79886597D01*
X122019175Y-79948909D01*
X122022054Y-79975692D01*
X122022054Y-80310808D01*
X122032491Y-80412976D01*
X122087345Y-80578516D01*
X122178896Y-80726942D01*
X122178901Y-80726948D01*
X122302201Y-80850248D01*
X122302207Y-80850253D01*
X122302208Y-80850254D01*
X122450634Y-80941805D01*
X122616173Y-80996658D01*
X122718341Y-81007096D01*
X123292766Y-81007095D01*
X123292772Y-81007095D01*
X123292772Y-81007094D01*
X123303167Y-81006032D01*
X123314119Y-81004914D01*
X123383920Y-81017888D01*
X123435626Y-81066540D01*
X123452820Y-81135423D01*
X123446760Y-81169193D01*
X123439458Y-81191667D01*
X123439457Y-81191669D01*
X123418806Y-81388167D01*
X123416069Y-81387879D01*
X123399494Y-81444330D01*
X123382595Y-81465299D01*
X123223066Y-81624829D01*
X123149199Y-81698696D01*
X123086887Y-81732721D01*
X123060104Y-81735600D01*
X122724987Y-81735600D01*
X122622819Y-81746037D01*
X122457279Y-81800891D01*
X122308853Y-81892442D01*
X122308847Y-81892447D01*
X122185547Y-82015747D01*
X122185542Y-82015753D01*
X122093991Y-82164180D01*
X122039137Y-82329722D01*
X122032909Y-82390677D01*
X122006086Y-82456411D01*
X121947982Y-82497209D01*
X121877045Y-82500117D01*
X121818468Y-82466964D01*
X121596562Y-82245058D01*
X121596558Y-82245055D01*
X121556118Y-82218033D01*
X121510591Y-82163556D01*
X121506519Y-82152911D01*
X121485472Y-82089391D01*
X121392387Y-81938477D01*
X121392386Y-81938476D01*
X121392381Y-81938470D01*
X121267015Y-81813104D01*
X121267009Y-81813099D01*
X121247217Y-81800891D01*
X121116095Y-81720014D01*
X121005753Y-81683451D01*
X120947784Y-81664242D01*
X120947777Y-81664241D01*
X120843910Y-81653629D01*
X119842812Y-81653629D01*
X119738931Y-81664241D01*
X119570618Y-81720014D01*
X119419704Y-81813099D01*
X119419698Y-81813104D01*
X119294332Y-81938470D01*
X119294327Y-81938476D01*
X119201242Y-82089391D01*
X119145470Y-82257701D01*
X119145469Y-82257708D01*
X119134857Y-82361575D01*
X119134857Y-83112673D01*
X119145469Y-83216554D01*
X119201242Y-83384867D01*
X119294327Y-83535781D01*
X119294332Y-83535787D01*
X119419702Y-83661157D01*
X119422807Y-83663612D01*
X119424384Y-83665839D01*
X119424894Y-83666349D01*
X119424806Y-83666436D01*
X119463838Y-83721551D01*
X119467030Y-83792476D01*
X119431371Y-83853868D01*
X119422811Y-83861286D01*
X119420011Y-83863499D01*
X119294727Y-83988783D01*
X119294722Y-83988789D01*
X119201699Y-84139603D01*
X119145963Y-84307807D01*
X119145962Y-84307810D01*
X119135357Y-84411612D01*
X119135357Y-84533129D01*
X121551357Y-84533129D01*
X121551357Y-84411612D01*
X121540052Y-84300963D01*
X121541652Y-84300799D01*
X121546326Y-84238317D01*
X121589058Y-84181620D01*
X121655659Y-84157026D01*
X121724983Y-84172344D01*
X121753333Y-84193639D01*
X121991795Y-84432101D01*
X122025821Y-84494413D01*
X122028700Y-84521196D01*
X122028700Y-84856312D01*
X122039137Y-84958480D01*
X122093991Y-85124020D01*
X122185542Y-85272446D01*
X122185547Y-85272452D01*
X122308847Y-85395752D01*
X122308853Y-85395757D01*
X122308854Y-85395758D01*
X122457280Y-85487309D01*
X122622819Y-85542162D01*
X122724987Y-85552600D01*
X123299412Y-85552599D01*
X123401581Y-85542162D01*
X123567120Y-85487309D01*
X123715546Y-85395758D01*
X123838858Y-85272446D01*
X123930409Y-85124020D01*
X123985262Y-84958481D01*
X123995700Y-84856313D01*
X123995699Y-84256888D01*
X123985262Y-84154719D01*
X123930409Y-83989180D01*
X123838858Y-83840754D01*
X123838857Y-83840753D01*
X123838852Y-83840747D01*
X123731300Y-83733195D01*
X123697274Y-83670883D01*
X123702339Y-83600068D01*
X123731300Y-83555005D01*
X123838852Y-83447452D01*
X123838858Y-83447446D01*
X123930409Y-83299020D01*
X123985262Y-83133481D01*
X123995700Y-83031313D01*
X123995699Y-82696193D01*
X124015701Y-82628074D01*
X124032599Y-82607103D01*
X124312700Y-82327004D01*
X124375012Y-82292979D01*
X124401795Y-82290100D01*
X124428487Y-82290100D01*
X124615288Y-82250394D01*
X124789752Y-82172718D01*
X124944253Y-82060466D01*
X124984518Y-82015747D01*
X125072034Y-81918551D01*
X125072035Y-81918549D01*
X125072040Y-81918544D01*
X125167527Y-81753156D01*
X125226542Y-81571528D01*
X125246504Y-81381600D01*
X125226542Y-81191672D01*
X125167527Y-81010044D01*
X125072040Y-80844656D01*
X125072038Y-80844654D01*
X125072034Y-80844648D01*
X124944255Y-80702735D01*
X124789752Y-80590482D01*
X124615288Y-80512806D01*
X124428487Y-80473100D01*
X124237513Y-80473100D01*
X124237511Y-80473100D01*
X124135706Y-80494739D01*
X124064916Y-80489337D01*
X124008283Y-80446520D01*
X123983790Y-80379882D01*
X123984163Y-80358684D01*
X123989053Y-80310816D01*
X123989054Y-80310809D01*
X123989053Y-79711384D01*
X123978616Y-79609215D01*
X123923763Y-79443676D01*
X123832212Y-79295250D01*
X123832211Y-79295249D01*
X123832206Y-79295243D01*
X123724654Y-79187691D01*
X123690628Y-79125379D01*
X123695693Y-79054564D01*
X123724654Y-79009501D01*
X123832206Y-78901948D01*
X123832212Y-78901942D01*
X123923763Y-78753516D01*
X123978616Y-78587977D01*
X123989054Y-78485809D01*
X123989053Y-77886384D01*
X123978616Y-77784215D01*
X123923763Y-77618676D01*
X123832212Y-77470250D01*
X123832211Y-77470249D01*
X123832206Y-77470243D01*
X123708906Y-77346943D01*
X123708900Y-77346938D01*
X123646025Y-77308156D01*
X123560474Y-77255387D01*
X123394935Y-77200534D01*
X123394933Y-77200533D01*
X123394931Y-77200533D01*
X123292775Y-77190096D01*
X123292767Y-77190096D01*
X122957648Y-77190096D01*
X122889527Y-77170094D01*
X122868553Y-77153191D01*
X121917522Y-76202160D01*
X121883496Y-76139848D01*
X121881307Y-76126235D01*
X121878760Y-76102005D01*
X121863942Y-75961014D01*
X121804927Y-75779386D01*
X121724686Y-75640404D01*
X121709442Y-75614001D01*
X121709441Y-75614000D01*
X121709440Y-75613998D01*
X121636263Y-75532726D01*
X121605546Y-75468718D01*
X121603900Y-75448416D01*
X121603900Y-73634900D01*
X121623902Y-73566779D01*
X121677558Y-73520286D01*
X121729900Y-73508900D01*
X122274032Y-73508900D01*
X122274038Y-73508900D01*
X122274045Y-73508899D01*
X122274049Y-73508899D01*
X122334596Y-73502390D01*
X122334599Y-73502389D01*
X122334601Y-73502389D01*
X122471604Y-73451289D01*
X122588661Y-73363661D01*
X122676289Y-73246604D01*
X122727389Y-73109601D01*
X122733900Y-73049038D01*
X122733900Y-71951762D01*
X122733899Y-71951750D01*
X122727390Y-71891203D01*
X122727388Y-71891195D01*
X122676289Y-71754197D01*
X122676287Y-71754192D01*
X122588661Y-71637138D01*
X122471607Y-71549512D01*
X122471602Y-71549510D01*
X122334604Y-71498411D01*
X122334596Y-71498409D01*
X122274049Y-71491900D01*
X122274038Y-71491900D01*
X119666762Y-71491900D01*
X119666750Y-71491900D01*
X119606203Y-71498409D01*
X119606195Y-71498411D01*
X119469197Y-71549510D01*
X119469192Y-71549512D01*
X119352138Y-71637138D01*
X119264512Y-71754192D01*
X119264510Y-71754197D01*
X119213411Y-71891195D01*
X119213409Y-71891203D01*
X119206900Y-71951750D01*
X119206900Y-73049049D01*
X119213409Y-73109596D01*
X119213411Y-73109604D01*
X119264510Y-73246602D01*
X119264512Y-73246607D01*
X119352138Y-73363661D01*
X119469192Y-73451287D01*
X119469194Y-73451288D01*
X119469196Y-73451289D01*
X119528275Y-73473324D01*
X119606195Y-73502388D01*
X119606203Y-73502390D01*
X119666750Y-73508899D01*
X119666755Y-73508899D01*
X119666762Y-73508900D01*
X120210900Y-73508900D01*
X120279021Y-73528902D01*
X120325514Y-73582558D01*
X120336900Y-73634900D01*
X120336900Y-75448416D01*
X120316898Y-75516537D01*
X120304537Y-75532726D01*
X120231357Y-75614001D01*
X120135876Y-75779380D01*
X120135873Y-75779387D01*
X120076857Y-75961014D01*
X120056896Y-76150942D01*
X120076857Y-76340869D01*
X120106926Y-76433412D01*
X120135873Y-76522498D01*
X120135876Y-76522503D01*
X120231358Y-76687883D01*
X120231365Y-76687893D01*
X120359144Y-76829806D01*
X120426982Y-76879093D01*
X120470336Y-76935315D01*
X120476411Y-77006051D01*
X120443280Y-77068843D01*
X120381460Y-77103754D01*
X120352921Y-77107029D01*
X119842812Y-77107029D01*
X119738931Y-77117641D01*
X119570618Y-77173414D01*
X119419704Y-77266499D01*
X119419698Y-77266504D01*
X119294332Y-77391870D01*
X119294327Y-77391876D01*
X119201242Y-77542791D01*
X119145470Y-77711101D01*
X119145469Y-77711108D01*
X119134857Y-77814975D01*
X118237000Y-77814975D01*
X118237000Y-69824600D01*
X119888896Y-69824600D01*
X119908857Y-70014527D01*
X119925364Y-70065328D01*
X119967873Y-70196156D01*
X119967876Y-70196161D01*
X120063358Y-70361541D01*
X120063365Y-70361551D01*
X120191144Y-70503464D01*
X120191147Y-70503466D01*
X120345648Y-70615718D01*
X120520112Y-70693394D01*
X120706913Y-70733100D01*
X120897887Y-70733100D01*
X121084688Y-70693394D01*
X121259152Y-70615718D01*
X121259154Y-70615716D01*
X121259157Y-70615715D01*
X121264876Y-70612414D01*
X121266026Y-70614407D01*
X121322936Y-70594105D01*
X121330123Y-70593900D01*
X122444991Y-70593900D01*
X122513112Y-70613902D01*
X122559605Y-70667558D01*
X122563046Y-70675866D01*
X122574511Y-70706604D01*
X122574512Y-70706607D01*
X122662138Y-70823661D01*
X122779192Y-70911287D01*
X122779194Y-70911288D01*
X122779196Y-70911289D01*
X122838275Y-70933324D01*
X122916195Y-70962388D01*
X122916203Y-70962390D01*
X122976750Y-70968899D01*
X122976755Y-70968899D01*
X122976762Y-70968900D01*
X122976768Y-70968900D01*
X125584032Y-70968900D01*
X125584038Y-70968900D01*
X125584045Y-70968899D01*
X125584049Y-70968899D01*
X125644596Y-70962390D01*
X125644599Y-70962389D01*
X125644601Y-70962389D01*
X125781604Y-70911289D01*
X125898661Y-70823661D01*
X125928426Y-70783900D01*
X125986287Y-70706607D01*
X125986287Y-70706606D01*
X125986289Y-70706604D01*
X126037389Y-70569601D01*
X126043900Y-70509038D01*
X126043900Y-69525550D01*
X126716700Y-69525550D01*
X126716700Y-72132849D01*
X126723209Y-72193396D01*
X126723211Y-72193404D01*
X126774310Y-72330402D01*
X126774312Y-72330407D01*
X126861938Y-72447461D01*
X126978992Y-72535087D01*
X126978994Y-72535088D01*
X126978996Y-72535089D01*
X127038075Y-72557124D01*
X127115995Y-72586188D01*
X127116003Y-72586190D01*
X127176550Y-72592699D01*
X127176555Y-72592699D01*
X127176562Y-72592700D01*
X127176568Y-72592700D01*
X128273832Y-72592700D01*
X128273838Y-72592700D01*
X128273845Y-72592699D01*
X128273849Y-72592699D01*
X128334396Y-72586190D01*
X128334399Y-72586189D01*
X128334401Y-72586189D01*
X128471404Y-72535089D01*
X128490308Y-72520938D01*
X128588461Y-72447461D01*
X128676087Y-72330407D01*
X128676087Y-72330406D01*
X128676089Y-72330404D01*
X128727189Y-72193401D01*
X128733700Y-72132838D01*
X128733700Y-69525562D01*
X128733699Y-69525550D01*
X131796700Y-69525550D01*
X131796700Y-72132849D01*
X131803209Y-72193396D01*
X131803211Y-72193404D01*
X131854310Y-72330402D01*
X131854312Y-72330407D01*
X131941938Y-72447461D01*
X132058992Y-72535087D01*
X132058994Y-72535088D01*
X132058996Y-72535089D01*
X132118075Y-72557124D01*
X132195995Y-72586188D01*
X132196003Y-72586190D01*
X132256550Y-72592699D01*
X132256555Y-72592699D01*
X132256562Y-72592700D01*
X132256568Y-72592700D01*
X133353832Y-72592700D01*
X133353838Y-72592700D01*
X133353845Y-72592699D01*
X133353849Y-72592699D01*
X133414396Y-72586190D01*
X133414399Y-72586189D01*
X133414401Y-72586189D01*
X133551404Y-72535089D01*
X133570308Y-72520938D01*
X133668461Y-72447461D01*
X133756087Y-72330407D01*
X133756087Y-72330406D01*
X133756089Y-72330404D01*
X133807189Y-72193401D01*
X133813700Y-72132838D01*
X133813700Y-71951750D01*
X137755700Y-71951750D01*
X137755700Y-73049049D01*
X137762209Y-73109596D01*
X137762211Y-73109604D01*
X137813310Y-73246602D01*
X137813312Y-73246607D01*
X137900938Y-73363661D01*
X138017992Y-73451287D01*
X138017994Y-73451288D01*
X138017996Y-73451289D01*
X138077075Y-73473324D01*
X138154995Y-73502388D01*
X138155003Y-73502390D01*
X138215550Y-73508899D01*
X138215555Y-73508899D01*
X138215562Y-73508900D01*
X138215568Y-73508900D01*
X140822832Y-73508900D01*
X140822838Y-73508900D01*
X140822845Y-73508899D01*
X140822849Y-73508899D01*
X140883396Y-73502390D01*
X140883399Y-73502389D01*
X140883401Y-73502389D01*
X141020404Y-73451289D01*
X141137461Y-73363661D01*
X141225089Y-73246604D01*
X141276189Y-73109601D01*
X141282700Y-73049038D01*
X141282700Y-71951762D01*
X141282699Y-71951750D01*
X141276190Y-71891203D01*
X141276188Y-71891195D01*
X141225089Y-71754197D01*
X141225087Y-71754192D01*
X141137461Y-71637138D01*
X141020407Y-71549512D01*
X141020402Y-71549510D01*
X140883404Y-71498411D01*
X140883396Y-71498409D01*
X140822849Y-71491900D01*
X140822838Y-71491900D01*
X138215562Y-71491900D01*
X138215550Y-71491900D01*
X138155003Y-71498409D01*
X138154995Y-71498411D01*
X138017997Y-71549510D01*
X138017992Y-71549512D01*
X137900938Y-71637138D01*
X137813312Y-71754192D01*
X137813310Y-71754197D01*
X137762211Y-71891195D01*
X137762209Y-71891203D01*
X137755700Y-71951750D01*
X133813700Y-71951750D01*
X133813700Y-69525562D01*
X133813699Y-69525550D01*
X133807190Y-69465003D01*
X133807188Y-69464995D01*
X133778124Y-69387075D01*
X133756089Y-69327996D01*
X133756088Y-69327994D01*
X133756087Y-69327992D01*
X133668461Y-69210938D01*
X133551407Y-69123312D01*
X133551402Y-69123310D01*
X133414404Y-69072211D01*
X133414396Y-69072209D01*
X133353849Y-69065700D01*
X133353838Y-69065700D01*
X132256562Y-69065700D01*
X132256550Y-69065700D01*
X132196003Y-69072209D01*
X132195995Y-69072211D01*
X132058997Y-69123310D01*
X132058992Y-69123312D01*
X131941938Y-69210938D01*
X131854312Y-69327992D01*
X131854310Y-69327997D01*
X131803211Y-69464995D01*
X131803209Y-69465003D01*
X131796700Y-69525550D01*
X128733699Y-69525550D01*
X128727190Y-69465003D01*
X128727188Y-69464995D01*
X128698124Y-69387075D01*
X128676089Y-69327996D01*
X128676088Y-69327994D01*
X128676087Y-69327992D01*
X128588461Y-69210938D01*
X128471407Y-69123312D01*
X128471402Y-69123310D01*
X128334404Y-69072211D01*
X128334396Y-69072209D01*
X128273849Y-69065700D01*
X128273838Y-69065700D01*
X127176562Y-69065700D01*
X127176550Y-69065700D01*
X127116003Y-69072209D01*
X127115995Y-69072211D01*
X126978997Y-69123310D01*
X126978992Y-69123312D01*
X126861938Y-69210938D01*
X126774312Y-69327992D01*
X126774310Y-69327997D01*
X126723211Y-69464995D01*
X126723209Y-69465003D01*
X126716700Y-69525550D01*
X126043900Y-69525550D01*
X126043900Y-69411762D01*
X126043899Y-69411750D01*
X126037390Y-69351203D01*
X126037388Y-69351195D01*
X125997260Y-69243610D01*
X125992194Y-69172795D01*
X126026216Y-69110486D01*
X126900744Y-68235959D01*
X126963052Y-68201936D01*
X127029469Y-68205453D01*
X127033719Y-68206862D01*
X127135887Y-68217300D01*
X127735312Y-68217299D01*
X127837481Y-68206862D01*
X128003020Y-68152009D01*
X128151446Y-68060458D01*
X128182308Y-68029596D01*
X128259359Y-67952546D01*
X128321671Y-67918520D01*
X128392486Y-67923585D01*
X128437549Y-67952546D01*
X128545060Y-68060057D01*
X128545066Y-68060062D01*
X128693392Y-68151551D01*
X128858823Y-68206368D01*
X128858826Y-68206369D01*
X128960915Y-68216799D01*
X128960915Y-68216800D01*
X129006600Y-68216800D01*
X129514600Y-68216800D01*
X129560285Y-68216800D01*
X129560284Y-68216799D01*
X129662373Y-68206369D01*
X129662376Y-68206368D01*
X129827807Y-68151551D01*
X129976133Y-68060062D01*
X129976139Y-68060057D01*
X130099356Y-67936840D01*
X130102509Y-67932853D01*
X130160447Y-67891821D01*
X130231372Y-67888626D01*
X130292765Y-67924283D01*
X130300191Y-67932853D01*
X130303343Y-67936840D01*
X130426560Y-68060057D01*
X130426566Y-68060062D01*
X130574892Y-68151551D01*
X130740323Y-68206368D01*
X130740326Y-68206369D01*
X130842415Y-68216799D01*
X130842415Y-68216800D01*
X130888100Y-68216800D01*
X130888100Y-67487800D01*
X129514600Y-67487800D01*
X129514600Y-68216800D01*
X129006600Y-68216800D01*
X129006600Y-66979800D01*
X129514600Y-66979800D01*
X130888100Y-66979800D01*
X130888100Y-66250800D01*
X131396100Y-66250800D01*
X131396100Y-68216800D01*
X131441785Y-68216800D01*
X131441784Y-68216799D01*
X131543873Y-68206369D01*
X131543876Y-68206368D01*
X131709307Y-68151551D01*
X131857633Y-68060062D01*
X131857639Y-68060057D01*
X131965151Y-67952546D01*
X132027463Y-67918520D01*
X132098278Y-67923585D01*
X132143341Y-67952546D01*
X132251247Y-68060452D01*
X132251253Y-68060457D01*
X132251254Y-68060458D01*
X132399680Y-68152009D01*
X132565219Y-68206862D01*
X132667387Y-68217300D01*
X133002505Y-68217299D01*
X133070625Y-68237301D01*
X133091600Y-68254204D01*
X133795829Y-68958433D01*
X133884067Y-69046671D01*
X133987825Y-69116000D01*
X134103115Y-69163755D01*
X134225506Y-69188100D01*
X134331569Y-69188100D01*
X134399690Y-69208102D01*
X134446183Y-69261758D01*
X134456287Y-69332032D01*
X134453392Y-69343382D01*
X134454023Y-69343532D01*
X134452209Y-69351203D01*
X134445700Y-69411750D01*
X134445700Y-70509049D01*
X134452209Y-70569596D01*
X134452211Y-70569604D01*
X134503310Y-70706602D01*
X134503312Y-70706607D01*
X134590938Y-70823661D01*
X134707992Y-70911287D01*
X134707994Y-70911288D01*
X134707996Y-70911289D01*
X134767075Y-70933324D01*
X134844995Y-70962388D01*
X134845003Y-70962390D01*
X134905550Y-70968899D01*
X134905555Y-70968899D01*
X134905562Y-70968900D01*
X134905568Y-70968900D01*
X137512832Y-70968900D01*
X137512838Y-70968900D01*
X137512845Y-70968899D01*
X137512849Y-70968899D01*
X137573396Y-70962390D01*
X137573399Y-70962389D01*
X137573401Y-70962389D01*
X137710404Y-70911289D01*
X137827461Y-70823661D01*
X137857226Y-70783900D01*
X137915087Y-70706607D01*
X137915087Y-70706606D01*
X137915089Y-70706604D01*
X137966189Y-70569601D01*
X137972700Y-70509038D01*
X137972700Y-69411762D01*
X137966578Y-69354818D01*
X137979183Y-69284951D01*
X138027562Y-69232988D01*
X138096353Y-69215430D01*
X138163716Y-69237851D01*
X138180951Y-69252255D01*
X138752877Y-69824181D01*
X138786903Y-69886493D01*
X138789092Y-69900105D01*
X138806457Y-70065327D01*
X138836526Y-70157870D01*
X138865473Y-70246956D01*
X138865476Y-70246961D01*
X138960958Y-70412341D01*
X138960965Y-70412351D01*
X139088744Y-70554264D01*
X139088747Y-70554266D01*
X139243248Y-70666518D01*
X139417712Y-70744194D01*
X139604513Y-70783900D01*
X139795487Y-70783900D01*
X139982288Y-70744194D01*
X140156752Y-70666518D01*
X140311253Y-70554266D01*
X140351967Y-70509049D01*
X140439034Y-70412351D01*
X140439035Y-70412349D01*
X140439040Y-70412344D01*
X140534527Y-70246956D01*
X140593542Y-70065328D01*
X140613504Y-69875400D01*
X140593542Y-69685472D01*
X140534527Y-69503844D01*
X140439040Y-69338456D01*
X140439038Y-69338454D01*
X140439034Y-69338448D01*
X140311255Y-69196535D01*
X140156752Y-69084282D01*
X139982288Y-69006606D01*
X139795487Y-68966900D01*
X139739594Y-68966900D01*
X139671473Y-68946898D01*
X139650499Y-68929995D01*
X139364499Y-68643995D01*
X139330473Y-68581683D01*
X139335538Y-68510868D01*
X139378085Y-68454032D01*
X139444605Y-68429221D01*
X139453594Y-68428900D01*
X140822832Y-68428900D01*
X140822838Y-68428900D01*
X140822845Y-68428899D01*
X140822849Y-68428899D01*
X140883396Y-68422390D01*
X140883399Y-68422389D01*
X140883401Y-68422389D01*
X141020404Y-68371289D01*
X141137461Y-68283661D01*
X141187513Y-68216800D01*
X141225087Y-68166607D01*
X141225087Y-68166606D01*
X141225089Y-68166604D01*
X141276189Y-68029601D01*
X141282700Y-67969038D01*
X141282700Y-66871762D01*
X141279761Y-66844420D01*
X141276190Y-66811203D01*
X141276188Y-66811195D01*
X141226836Y-66678880D01*
X141225089Y-66674196D01*
X141225088Y-66674194D01*
X141225087Y-66674192D01*
X141137461Y-66557138D01*
X141020407Y-66469512D01*
X141020402Y-66469510D01*
X140883404Y-66418411D01*
X140883396Y-66418409D01*
X140822849Y-66411900D01*
X140822838Y-66411900D01*
X138215562Y-66411900D01*
X138215550Y-66411900D01*
X138155003Y-66418409D01*
X138154995Y-66418411D01*
X138017997Y-66469510D01*
X138017992Y-66469512D01*
X137900938Y-66557138D01*
X137813312Y-66674192D01*
X137813310Y-66674197D01*
X137762211Y-66811195D01*
X137762209Y-66811203D01*
X137755700Y-66871750D01*
X137755700Y-67795100D01*
X137735698Y-67863221D01*
X137682042Y-67909714D01*
X137629700Y-67921100D01*
X134602494Y-67921100D01*
X134534373Y-67901098D01*
X134513399Y-67884195D01*
X134000004Y-67370800D01*
X133965978Y-67308488D01*
X133963099Y-67281705D01*
X133963099Y-66946587D01*
X133952662Y-66844419D01*
X133897809Y-66678880D01*
X133806258Y-66530454D01*
X133806257Y-66530453D01*
X133806252Y-66530447D01*
X133682952Y-66407147D01*
X133682946Y-66407142D01*
X133534520Y-66315591D01*
X133368981Y-66260738D01*
X133368979Y-66260737D01*
X133368977Y-66260737D01*
X133266821Y-66250300D01*
X132667387Y-66250300D01*
X132565219Y-66260737D01*
X132399679Y-66315591D01*
X132251253Y-66407142D01*
X132251247Y-66407147D01*
X132143341Y-66515054D01*
X132081029Y-66549080D01*
X132010214Y-66544015D01*
X131965151Y-66515054D01*
X131857639Y-66407542D01*
X131857633Y-66407537D01*
X131709307Y-66316048D01*
X131543876Y-66261231D01*
X131543873Y-66261230D01*
X131441784Y-66250800D01*
X131396100Y-66250800D01*
X130888100Y-66250800D01*
X130842415Y-66250800D01*
X130740326Y-66261230D01*
X130740323Y-66261231D01*
X130574892Y-66316048D01*
X130426566Y-66407537D01*
X130426560Y-66407542D01*
X130303341Y-66530761D01*
X130300187Y-66534751D01*
X130242247Y-66575780D01*
X130171322Y-66578972D01*
X130109931Y-66543312D01*
X130102513Y-66534751D01*
X130099358Y-66530761D01*
X129976139Y-66407542D01*
X129976133Y-66407537D01*
X129827807Y-66316048D01*
X129662376Y-66261231D01*
X129662373Y-66261230D01*
X129560284Y-66250800D01*
X129514600Y-66250800D01*
X129514600Y-66979800D01*
X129006600Y-66979800D01*
X129006600Y-66250800D01*
X128960915Y-66250800D01*
X128858826Y-66261230D01*
X128858823Y-66261231D01*
X128693392Y-66316048D01*
X128545066Y-66407537D01*
X128545060Y-66407542D01*
X128437549Y-66515054D01*
X128375237Y-66549080D01*
X128304422Y-66544015D01*
X128259359Y-66515054D01*
X128151452Y-66407147D01*
X128151446Y-66407142D01*
X128003020Y-66315591D01*
X127837481Y-66260738D01*
X127837479Y-66260737D01*
X127837477Y-66260737D01*
X127735321Y-66250300D01*
X127135887Y-66250300D01*
X127033719Y-66260737D01*
X126868179Y-66315591D01*
X126719753Y-66407142D01*
X126719747Y-66407147D01*
X126596447Y-66530447D01*
X126596442Y-66530453D01*
X126504891Y-66678880D01*
X126450037Y-66844420D01*
X126450037Y-66844422D01*
X126448854Y-66856004D01*
X126422031Y-66921739D01*
X126412602Y-66932291D01*
X124429899Y-68914996D01*
X124367589Y-68949020D01*
X124340806Y-68951900D01*
X122976750Y-68951900D01*
X122916203Y-68958409D01*
X122916195Y-68958411D01*
X122779197Y-69009510D01*
X122779192Y-69009512D01*
X122662138Y-69097138D01*
X122574512Y-69214192D01*
X122574511Y-69214195D01*
X122563046Y-69244934D01*
X122520499Y-69301769D01*
X122453978Y-69326579D01*
X122444991Y-69326900D01*
X121632874Y-69326900D01*
X121564753Y-69306898D01*
X121539239Y-69285212D01*
X121413653Y-69145734D01*
X121259152Y-69033482D01*
X121084688Y-68955806D01*
X120897887Y-68916100D01*
X120706913Y-68916100D01*
X120520111Y-68955806D01*
X120345647Y-69033482D01*
X120191144Y-69145735D01*
X120063365Y-69287648D01*
X120063358Y-69287658D01*
X119967876Y-69453038D01*
X119967873Y-69453045D01*
X119908857Y-69634672D01*
X119888896Y-69824600D01*
X118237000Y-69824600D01*
X118237000Y-66871750D01*
X119206900Y-66871750D01*
X119206900Y-67969049D01*
X119213409Y-68029596D01*
X119213411Y-68029604D01*
X119264510Y-68166602D01*
X119264512Y-68166607D01*
X119352138Y-68283661D01*
X119469192Y-68371287D01*
X119469194Y-68371288D01*
X119469196Y-68371289D01*
X119528275Y-68393324D01*
X119606195Y-68422388D01*
X119606203Y-68422390D01*
X119666750Y-68428899D01*
X119666755Y-68428899D01*
X119666762Y-68428900D01*
X119666768Y-68428900D01*
X122274032Y-68428900D01*
X122274038Y-68428900D01*
X122274045Y-68428899D01*
X122274049Y-68428899D01*
X122334596Y-68422390D01*
X122334599Y-68422389D01*
X122334601Y-68422389D01*
X122471604Y-68371289D01*
X122588661Y-68283661D01*
X122638713Y-68216800D01*
X122676287Y-68166607D01*
X122676287Y-68166606D01*
X122676289Y-68166604D01*
X122727389Y-68029601D01*
X122733900Y-67969038D01*
X122733900Y-66871762D01*
X122730961Y-66844420D01*
X122727390Y-66811203D01*
X122727388Y-66811195D01*
X122678036Y-66678880D01*
X122676289Y-66674196D01*
X122676288Y-66674194D01*
X122676287Y-66674192D01*
X122588661Y-66557138D01*
X122471607Y-66469512D01*
X122471602Y-66469510D01*
X122334604Y-66418411D01*
X122334596Y-66418409D01*
X122274049Y-66411900D01*
X122274038Y-66411900D01*
X119666762Y-66411900D01*
X119666750Y-66411900D01*
X119606203Y-66418409D01*
X119606195Y-66418411D01*
X119469197Y-66469510D01*
X119469192Y-66469512D01*
X119352138Y-66557138D01*
X119264512Y-66674192D01*
X119264510Y-66674197D01*
X119213411Y-66811195D01*
X119213409Y-66811203D01*
X119206900Y-66871750D01*
X118237000Y-66871750D01*
X118237000Y-61791750D01*
X119206900Y-61791750D01*
X119206900Y-62889049D01*
X119213409Y-62949596D01*
X119213411Y-62949604D01*
X119264510Y-63086602D01*
X119264512Y-63086607D01*
X119352138Y-63203661D01*
X119469192Y-63291287D01*
X119469194Y-63291288D01*
X119469196Y-63291289D01*
X119528275Y-63313324D01*
X119606195Y-63342388D01*
X119606203Y-63342390D01*
X119666750Y-63348899D01*
X119666755Y-63348899D01*
X119666762Y-63348900D01*
X120998006Y-63348900D01*
X121066127Y-63368902D01*
X121112620Y-63422558D01*
X121122724Y-63492832D01*
X121093230Y-63557412D01*
X121087101Y-63563995D01*
X120851901Y-63799195D01*
X120789589Y-63833221D01*
X120762806Y-63836100D01*
X120706913Y-63836100D01*
X120520111Y-63875806D01*
X120345647Y-63953482D01*
X120191144Y-64065735D01*
X120063365Y-64207648D01*
X120063358Y-64207658D01*
X119967876Y-64373038D01*
X119967873Y-64373045D01*
X119908857Y-64554672D01*
X119888896Y-64744600D01*
X119908857Y-64934527D01*
X119925364Y-64985328D01*
X119967873Y-65116156D01*
X119967876Y-65116161D01*
X120063358Y-65281541D01*
X120063365Y-65281551D01*
X120191144Y-65423464D01*
X120191147Y-65423466D01*
X120345648Y-65535718D01*
X120520112Y-65613394D01*
X120706913Y-65653100D01*
X120897887Y-65653100D01*
X121084688Y-65613394D01*
X121259152Y-65535718D01*
X121413653Y-65423466D01*
X121413655Y-65423464D01*
X121541434Y-65281551D01*
X121541435Y-65281549D01*
X121541440Y-65281544D01*
X121636927Y-65116156D01*
X121695942Y-64934528D01*
X121713307Y-64769304D01*
X121740320Y-64703649D01*
X121749512Y-64693390D01*
X122094700Y-64348204D01*
X122157012Y-64314179D01*
X122183795Y-64311300D01*
X122390900Y-64311300D01*
X122459021Y-64331302D01*
X122505514Y-64384958D01*
X122516900Y-64437300D01*
X122516900Y-65429049D01*
X122523409Y-65489596D01*
X122523411Y-65489604D01*
X122574510Y-65626602D01*
X122574512Y-65626607D01*
X122662138Y-65743661D01*
X122779192Y-65831287D01*
X122779194Y-65831288D01*
X122779196Y-65831289D01*
X122838275Y-65853324D01*
X122916195Y-65882388D01*
X122916203Y-65882390D01*
X122976750Y-65888899D01*
X122976755Y-65888899D01*
X122976762Y-65888900D01*
X122976768Y-65888900D01*
X125584032Y-65888900D01*
X125584038Y-65888900D01*
X125584045Y-65888899D01*
X125584049Y-65888899D01*
X125644596Y-65882390D01*
X125644599Y-65882389D01*
X125644601Y-65882389D01*
X125781604Y-65831289D01*
X125898661Y-65743661D01*
X125928426Y-65703900D01*
X125986287Y-65626607D01*
X125986287Y-65626606D01*
X125986289Y-65626604D01*
X126037389Y-65489601D01*
X126041787Y-65448699D01*
X126043899Y-65429049D01*
X126043900Y-65429032D01*
X126043900Y-64759995D01*
X126063902Y-64691874D01*
X126117558Y-64645381D01*
X126187832Y-64635277D01*
X126252412Y-64664771D01*
X126258989Y-64670894D01*
X126383495Y-64795400D01*
X126505704Y-64917609D01*
X126536212Y-64967071D01*
X126553789Y-65020116D01*
X126645342Y-65168546D01*
X126645347Y-65168552D01*
X126768647Y-65291852D01*
X126768653Y-65291857D01*
X126768654Y-65291858D01*
X126917080Y-65383409D01*
X127082619Y-65438262D01*
X127184787Y-65448700D01*
X127784212Y-65448699D01*
X127886381Y-65438262D01*
X128051920Y-65383409D01*
X128200346Y-65291858D01*
X128210663Y-65281541D01*
X128308259Y-65183946D01*
X128370571Y-65149920D01*
X128441386Y-65154985D01*
X128486449Y-65183946D01*
X128593960Y-65291457D01*
X128593966Y-65291462D01*
X128742292Y-65382951D01*
X128907723Y-65437768D01*
X128907726Y-65437769D01*
X129009815Y-65448199D01*
X129009815Y-65448200D01*
X129055500Y-65448200D01*
X129563500Y-65448200D01*
X129609185Y-65448200D01*
X129609184Y-65448199D01*
X129711273Y-65437769D01*
X129711276Y-65437768D01*
X129876707Y-65382951D01*
X130025033Y-65291462D01*
X130025039Y-65291457D01*
X130136705Y-65179792D01*
X130199017Y-65145766D01*
X130269832Y-65150831D01*
X130314895Y-65179792D01*
X130426560Y-65291457D01*
X130426566Y-65291462D01*
X130574892Y-65382951D01*
X130740323Y-65437768D01*
X130740326Y-65437769D01*
X130842415Y-65448199D01*
X130842415Y-65448200D01*
X130888100Y-65448200D01*
X130888100Y-64719200D01*
X129563500Y-64719200D01*
X129563500Y-65448200D01*
X129055500Y-65448200D01*
X129055500Y-64211200D01*
X129563500Y-64211200D01*
X130888100Y-64211200D01*
X130888100Y-63482200D01*
X131396100Y-63482200D01*
X131396100Y-65448200D01*
X131441785Y-65448200D01*
X131441784Y-65448199D01*
X131543873Y-65437769D01*
X131543876Y-65437768D01*
X131709307Y-65382951D01*
X131857633Y-65291462D01*
X131857639Y-65291457D01*
X131965151Y-65183946D01*
X132027463Y-65149920D01*
X132098278Y-65154985D01*
X132143341Y-65183946D01*
X132251247Y-65291852D01*
X132251253Y-65291857D01*
X132251254Y-65291858D01*
X132399680Y-65383409D01*
X132565219Y-65438262D01*
X132667387Y-65448700D01*
X133266812Y-65448699D01*
X133368981Y-65438262D01*
X133534520Y-65383409D01*
X133682946Y-65291858D01*
X133806258Y-65168546D01*
X133897809Y-65020120D01*
X133952662Y-64854581D01*
X133963100Y-64752413D01*
X133963099Y-64419194D01*
X133983101Y-64351075D01*
X134000004Y-64330099D01*
X134159700Y-64170404D01*
X134222012Y-64136379D01*
X134248795Y-64133500D01*
X134326742Y-64133500D01*
X134394863Y-64153502D01*
X134441356Y-64207158D01*
X134452020Y-64272967D01*
X134445701Y-64331747D01*
X134445700Y-64331767D01*
X134445700Y-65429049D01*
X134452209Y-65489596D01*
X134452211Y-65489604D01*
X134503310Y-65626602D01*
X134503312Y-65626607D01*
X134590938Y-65743661D01*
X134707992Y-65831287D01*
X134707994Y-65831288D01*
X134707996Y-65831289D01*
X134767075Y-65853324D01*
X134844995Y-65882388D01*
X134845003Y-65882390D01*
X134905550Y-65888899D01*
X134905555Y-65888899D01*
X134905562Y-65888900D01*
X134905568Y-65888900D01*
X137512832Y-65888900D01*
X137512838Y-65888900D01*
X137512845Y-65888899D01*
X137512849Y-65888899D01*
X137573396Y-65882390D01*
X137573399Y-65882389D01*
X137573401Y-65882389D01*
X137710404Y-65831289D01*
X137827461Y-65743661D01*
X137857226Y-65703900D01*
X137915087Y-65626607D01*
X137915087Y-65626606D01*
X137915089Y-65626604D01*
X137966189Y-65489601D01*
X137970587Y-65448699D01*
X137972699Y-65429049D01*
X137972700Y-65429032D01*
X137972700Y-64331767D01*
X137972699Y-64331752D01*
X137966578Y-64274819D01*
X137979183Y-64204951D01*
X138027562Y-64152988D01*
X138096353Y-64135430D01*
X138163716Y-64157851D01*
X138180951Y-64172255D01*
X138752877Y-64744181D01*
X138786903Y-64806493D01*
X138789092Y-64820105D01*
X138806457Y-64985327D01*
X138836526Y-65077870D01*
X138865473Y-65166956D01*
X138872884Y-65179792D01*
X138960958Y-65332341D01*
X138960965Y-65332351D01*
X139088744Y-65474264D01*
X139088747Y-65474266D01*
X139243248Y-65586518D01*
X139417712Y-65664194D01*
X139604513Y-65703900D01*
X139795487Y-65703900D01*
X139982288Y-65664194D01*
X140156752Y-65586518D01*
X140311253Y-65474266D01*
X140351967Y-65429049D01*
X140439034Y-65332351D01*
X140439035Y-65332349D01*
X140439040Y-65332344D01*
X140534527Y-65166956D01*
X140593542Y-64985328D01*
X140613504Y-64795400D01*
X140593542Y-64605472D01*
X140534527Y-64423844D01*
X140439040Y-64258456D01*
X140439038Y-64258454D01*
X140439034Y-64258448D01*
X140311255Y-64116535D01*
X140156752Y-64004282D01*
X139982288Y-63926606D01*
X139795487Y-63886900D01*
X139739594Y-63886900D01*
X139671473Y-63866898D01*
X139650499Y-63849995D01*
X139364499Y-63563995D01*
X139330473Y-63501683D01*
X139335538Y-63430868D01*
X139378085Y-63374032D01*
X139444605Y-63349221D01*
X139453594Y-63348900D01*
X140822832Y-63348900D01*
X140822838Y-63348900D01*
X140822845Y-63348899D01*
X140822849Y-63348899D01*
X140883396Y-63342390D01*
X140883399Y-63342389D01*
X140883401Y-63342389D01*
X141020404Y-63291289D01*
X141137461Y-63203661D01*
X141225089Y-63086604D01*
X141276189Y-62949601D01*
X141281003Y-62904829D01*
X141282699Y-62889049D01*
X141282699Y-62889045D01*
X141282700Y-62889038D01*
X141282700Y-61791762D01*
X141282699Y-61791750D01*
X141276190Y-61731203D01*
X141276188Y-61731195D01*
X141225089Y-61594197D01*
X141225087Y-61594192D01*
X141137461Y-61477138D01*
X141020407Y-61389512D01*
X141020402Y-61389510D01*
X140883404Y-61338411D01*
X140883396Y-61338409D01*
X140822849Y-61331900D01*
X140822838Y-61331900D01*
X138215562Y-61331900D01*
X138215550Y-61331900D01*
X138155003Y-61338409D01*
X138154995Y-61338411D01*
X138017997Y-61389510D01*
X138017992Y-61389512D01*
X137900938Y-61477138D01*
X137813312Y-61594192D01*
X137813310Y-61594197D01*
X137762211Y-61731195D01*
X137762209Y-61731203D01*
X137755700Y-61791750D01*
X137755700Y-62740500D01*
X137735698Y-62808621D01*
X137682042Y-62855114D01*
X137629700Y-62866500D01*
X133871803Y-62866500D01*
X133798768Y-62881028D01*
X133749415Y-62890845D01*
X133749413Y-62890845D01*
X133749412Y-62890846D01*
X133634123Y-62938601D01*
X133530371Y-63007926D01*
X133530369Y-63007927D01*
X133093499Y-63444796D01*
X133031187Y-63478821D01*
X133004404Y-63481700D01*
X132667387Y-63481700D01*
X132565219Y-63492137D01*
X132399679Y-63546991D01*
X132251253Y-63638542D01*
X132251247Y-63638547D01*
X132143341Y-63746454D01*
X132081029Y-63780480D01*
X132010214Y-63775415D01*
X131965151Y-63746454D01*
X131857639Y-63638942D01*
X131857633Y-63638937D01*
X131709307Y-63547448D01*
X131543876Y-63492631D01*
X131543873Y-63492630D01*
X131441784Y-63482200D01*
X131396100Y-63482200D01*
X130888100Y-63482200D01*
X130842415Y-63482200D01*
X130740326Y-63492630D01*
X130740323Y-63492631D01*
X130574892Y-63547448D01*
X130426566Y-63638937D01*
X130426560Y-63638942D01*
X130314895Y-63750608D01*
X130252583Y-63784634D01*
X130181768Y-63779569D01*
X130136705Y-63750608D01*
X130025039Y-63638942D01*
X130025033Y-63638937D01*
X129876707Y-63547448D01*
X129711276Y-63492631D01*
X129711273Y-63492630D01*
X129609184Y-63482200D01*
X129563500Y-63482200D01*
X129563500Y-64211200D01*
X129055500Y-64211200D01*
X129055500Y-63482200D01*
X129009815Y-63482200D01*
X128907726Y-63492630D01*
X128907723Y-63492631D01*
X128742292Y-63547448D01*
X128593966Y-63638937D01*
X128593960Y-63638942D01*
X128486449Y-63746454D01*
X128424137Y-63780480D01*
X128353322Y-63775415D01*
X128308259Y-63746454D01*
X128200352Y-63638547D01*
X128200346Y-63638542D01*
X128051920Y-63546991D01*
X127886381Y-63492138D01*
X127886379Y-63492137D01*
X127886377Y-63492137D01*
X127784221Y-63481700D01*
X127184787Y-63481700D01*
X127082617Y-63492138D01*
X127082615Y-63492138D01*
X126998222Y-63520102D01*
X126927267Y-63522541D01*
X126869496Y-63489592D01*
X126565635Y-63185731D01*
X126565633Y-63185729D01*
X126461875Y-63116400D01*
X126346585Y-63068645D01*
X126272886Y-63053985D01*
X126224196Y-63044300D01*
X126224194Y-63044300D01*
X122857480Y-63044300D01*
X122789359Y-63024298D01*
X122742866Y-62970642D01*
X122732202Y-62904829D01*
X122733900Y-62889038D01*
X122733900Y-61791762D01*
X122733899Y-61791750D01*
X122727390Y-61731203D01*
X122727388Y-61731195D01*
X122676289Y-61594197D01*
X122676287Y-61594192D01*
X122588661Y-61477138D01*
X122471607Y-61389512D01*
X122471602Y-61389510D01*
X122334604Y-61338411D01*
X122334596Y-61338409D01*
X122274049Y-61331900D01*
X122274038Y-61331900D01*
X119666762Y-61331900D01*
X119666750Y-61331900D01*
X119606203Y-61338409D01*
X119606195Y-61338411D01*
X119469197Y-61389510D01*
X119469192Y-61389512D01*
X119352138Y-61477138D01*
X119264512Y-61594192D01*
X119264510Y-61594197D01*
X119213411Y-61731195D01*
X119213409Y-61731203D01*
X119206900Y-61791750D01*
X118237000Y-61791750D01*
X118237000Y-59251750D01*
X122516900Y-59251750D01*
X122516900Y-60349049D01*
X122523409Y-60409596D01*
X122523411Y-60409604D01*
X122574510Y-60546602D01*
X122574512Y-60546607D01*
X122662138Y-60663661D01*
X122779192Y-60751287D01*
X122779194Y-60751288D01*
X122779196Y-60751289D01*
X122838275Y-60773324D01*
X122916195Y-60802388D01*
X122916203Y-60802390D01*
X122976750Y-60808899D01*
X122976755Y-60808899D01*
X122976762Y-60808900D01*
X122976768Y-60808900D01*
X125584032Y-60808900D01*
X125584038Y-60808900D01*
X125584045Y-60808899D01*
X125584049Y-60808899D01*
X125644596Y-60802390D01*
X125644599Y-60802389D01*
X125644601Y-60802389D01*
X125781604Y-60751289D01*
X125898661Y-60663661D01*
X125986289Y-60546604D01*
X126037389Y-60409601D01*
X126043900Y-60349038D01*
X126043900Y-59251762D01*
X126043899Y-59251750D01*
X134445700Y-59251750D01*
X134445700Y-60349049D01*
X134452209Y-60409596D01*
X134452211Y-60409604D01*
X134503310Y-60546602D01*
X134503312Y-60546607D01*
X134590938Y-60663661D01*
X134707992Y-60751287D01*
X134707994Y-60751288D01*
X134707996Y-60751289D01*
X134767075Y-60773324D01*
X134844995Y-60802388D01*
X134845003Y-60802390D01*
X134905550Y-60808899D01*
X134905555Y-60808899D01*
X134905562Y-60808900D01*
X134905568Y-60808900D01*
X137512832Y-60808900D01*
X137512838Y-60808900D01*
X137512845Y-60808899D01*
X137512849Y-60808899D01*
X137573396Y-60802390D01*
X137573399Y-60802389D01*
X137573401Y-60802389D01*
X137710404Y-60751289D01*
X137827461Y-60663661D01*
X137915089Y-60546604D01*
X137966189Y-60409601D01*
X137972700Y-60349038D01*
X137972700Y-59251762D01*
X137972699Y-59251750D01*
X137966190Y-59191203D01*
X137966188Y-59191195D01*
X137915089Y-59054197D01*
X137915087Y-59054192D01*
X137827461Y-58937138D01*
X137710407Y-58849512D01*
X137710402Y-58849510D01*
X137573404Y-58798411D01*
X137573396Y-58798409D01*
X137512849Y-58791900D01*
X137512838Y-58791900D01*
X134905562Y-58791900D01*
X134905550Y-58791900D01*
X134845003Y-58798409D01*
X134844995Y-58798411D01*
X134707997Y-58849510D01*
X134707992Y-58849512D01*
X134590938Y-58937138D01*
X134503312Y-59054192D01*
X134503310Y-59054197D01*
X134452211Y-59191195D01*
X134452209Y-59191203D01*
X134445700Y-59251750D01*
X126043899Y-59251750D01*
X126037390Y-59191203D01*
X126037388Y-59191195D01*
X125986289Y-59054197D01*
X125986287Y-59054192D01*
X125898661Y-58937138D01*
X125781607Y-58849512D01*
X125781602Y-58849510D01*
X125644604Y-58798411D01*
X125644596Y-58798409D01*
X125584049Y-58791900D01*
X125584038Y-58791900D01*
X122976762Y-58791900D01*
X122976750Y-58791900D01*
X122916203Y-58798409D01*
X122916195Y-58798411D01*
X122779197Y-58849510D01*
X122779192Y-58849512D01*
X122662138Y-58937138D01*
X122574512Y-59054192D01*
X122574510Y-59054197D01*
X122523411Y-59191195D01*
X122523409Y-59191203D01*
X122516900Y-59251750D01*
X118237000Y-59251750D01*
X118237000Y-56711750D01*
X119206900Y-56711750D01*
X119206900Y-57809049D01*
X119213409Y-57869596D01*
X119213411Y-57869604D01*
X119264510Y-58006602D01*
X119264512Y-58006607D01*
X119352138Y-58123661D01*
X119469192Y-58211287D01*
X119469194Y-58211288D01*
X119469196Y-58211289D01*
X119528275Y-58233324D01*
X119606195Y-58262388D01*
X119606203Y-58262390D01*
X119666750Y-58268899D01*
X119666755Y-58268899D01*
X119666762Y-58268900D01*
X119666768Y-58268900D01*
X122274032Y-58268900D01*
X122274038Y-58268900D01*
X122274045Y-58268899D01*
X122274049Y-58268899D01*
X122334596Y-58262390D01*
X122334599Y-58262389D01*
X122334601Y-58262389D01*
X122471604Y-58211289D01*
X122588661Y-58123661D01*
X122676289Y-58006604D01*
X122727389Y-57869601D01*
X122733900Y-57809038D01*
X122733900Y-56711762D01*
X122733899Y-56711750D01*
X137755700Y-56711750D01*
X137755700Y-57809049D01*
X137762209Y-57869596D01*
X137762211Y-57869604D01*
X137813310Y-58006602D01*
X137813312Y-58006607D01*
X137900938Y-58123661D01*
X138017992Y-58211287D01*
X138017994Y-58211288D01*
X138017996Y-58211289D01*
X138077075Y-58233324D01*
X138154995Y-58262388D01*
X138155003Y-58262390D01*
X138215550Y-58268899D01*
X138215555Y-58268899D01*
X138215562Y-58268900D01*
X138215568Y-58268900D01*
X140822832Y-58268900D01*
X140822838Y-58268900D01*
X140822845Y-58268899D01*
X140822849Y-58268899D01*
X140883396Y-58262390D01*
X140883399Y-58262389D01*
X140883401Y-58262389D01*
X141020404Y-58211289D01*
X141137461Y-58123661D01*
X141225089Y-58006604D01*
X141276189Y-57869601D01*
X141282700Y-57809038D01*
X141282700Y-56711762D01*
X141282699Y-56711750D01*
X141276190Y-56651203D01*
X141276188Y-56651195D01*
X141225089Y-56514197D01*
X141225087Y-56514192D01*
X141137461Y-56397138D01*
X141020407Y-56309512D01*
X141020402Y-56309510D01*
X140883404Y-56258411D01*
X140883396Y-56258409D01*
X140822849Y-56251900D01*
X140822838Y-56251900D01*
X138215562Y-56251900D01*
X138215550Y-56251900D01*
X138155003Y-56258409D01*
X138154995Y-56258411D01*
X138017997Y-56309510D01*
X138017992Y-56309512D01*
X137900938Y-56397138D01*
X137813312Y-56514192D01*
X137813310Y-56514197D01*
X137762211Y-56651195D01*
X137762209Y-56651203D01*
X137755700Y-56711750D01*
X122733899Y-56711750D01*
X122727390Y-56651203D01*
X122727388Y-56651195D01*
X122676289Y-56514197D01*
X122676287Y-56514192D01*
X122588661Y-56397138D01*
X122471607Y-56309512D01*
X122471602Y-56309510D01*
X122334604Y-56258411D01*
X122334596Y-56258409D01*
X122274049Y-56251900D01*
X122274038Y-56251900D01*
X119666762Y-56251900D01*
X119666750Y-56251900D01*
X119606203Y-56258409D01*
X119606195Y-56258411D01*
X119469197Y-56309510D01*
X119469192Y-56309512D01*
X119352138Y-56397138D01*
X119264512Y-56514192D01*
X119264510Y-56514197D01*
X119213411Y-56651195D01*
X119213409Y-56651203D01*
X119206900Y-56711750D01*
X118237000Y-56711750D01*
X118237000Y-55268997D01*
X122517400Y-55268997D01*
X122523905Y-55329493D01*
X122574955Y-55466364D01*
X122574955Y-55466365D01*
X122662495Y-55583304D01*
X122779434Y-55670844D01*
X122916306Y-55721894D01*
X122976802Y-55728399D01*
X122976815Y-55728400D01*
X124026400Y-55728400D01*
X124534400Y-55728400D01*
X125583985Y-55728400D01*
X125583997Y-55728399D01*
X125644493Y-55721894D01*
X125781364Y-55670844D01*
X125781365Y-55670844D01*
X125898304Y-55583304D01*
X125985844Y-55466365D01*
X125985844Y-55466364D01*
X126036894Y-55329493D01*
X126043399Y-55268997D01*
X126043400Y-55268985D01*
X126043400Y-54974400D01*
X124534400Y-54974400D01*
X124534400Y-55728400D01*
X124026400Y-55728400D01*
X124026400Y-54974400D01*
X122517400Y-54974400D01*
X122517400Y-55268997D01*
X118237000Y-55268997D01*
X118237000Y-54171802D01*
X122517400Y-54171802D01*
X122517400Y-54466400D01*
X124026400Y-54466400D01*
X124534400Y-54466400D01*
X126043400Y-54466400D01*
X126043400Y-54171814D01*
X126043399Y-54171802D01*
X126043393Y-54171750D01*
X134445700Y-54171750D01*
X134445700Y-55269049D01*
X134452209Y-55329596D01*
X134452211Y-55329604D01*
X134503310Y-55466602D01*
X134503312Y-55466607D01*
X134590938Y-55583661D01*
X134707992Y-55671287D01*
X134707994Y-55671288D01*
X134707996Y-55671289D01*
X134767075Y-55693324D01*
X134844995Y-55722388D01*
X134845003Y-55722390D01*
X134905550Y-55728899D01*
X134905555Y-55728899D01*
X134905562Y-55728900D01*
X134905568Y-55728900D01*
X137512832Y-55728900D01*
X137512838Y-55728900D01*
X137512845Y-55728899D01*
X137512849Y-55728899D01*
X137573396Y-55722390D01*
X137573399Y-55722389D01*
X137573401Y-55722389D01*
X137710404Y-55671289D01*
X137710999Y-55670844D01*
X137827461Y-55583661D01*
X137915087Y-55466607D01*
X137915087Y-55466606D01*
X137915089Y-55466604D01*
X137966189Y-55329601D01*
X137972700Y-55269038D01*
X137972700Y-54171762D01*
X137966201Y-54111306D01*
X137966190Y-54111203D01*
X137966188Y-54111195D01*
X137915178Y-53974435D01*
X137915089Y-53974196D01*
X137915088Y-53974194D01*
X137915087Y-53974192D01*
X137827461Y-53857138D01*
X137710407Y-53769512D01*
X137710402Y-53769510D01*
X137573404Y-53718411D01*
X137573396Y-53718409D01*
X137512849Y-53711900D01*
X137512838Y-53711900D01*
X134905562Y-53711900D01*
X134905550Y-53711900D01*
X134845003Y-53718409D01*
X134844995Y-53718411D01*
X134707997Y-53769510D01*
X134707992Y-53769512D01*
X134590938Y-53857138D01*
X134503312Y-53974192D01*
X134503310Y-53974197D01*
X134452211Y-54111195D01*
X134452209Y-54111203D01*
X134445700Y-54171750D01*
X126043393Y-54171750D01*
X126036894Y-54111306D01*
X125985844Y-53974435D01*
X125985844Y-53974434D01*
X125898304Y-53857495D01*
X125781365Y-53769955D01*
X125644493Y-53718905D01*
X125583997Y-53712400D01*
X124534400Y-53712400D01*
X124534400Y-54466400D01*
X124026400Y-54466400D01*
X124026400Y-53712400D01*
X122976802Y-53712400D01*
X122916306Y-53718905D01*
X122779435Y-53769955D01*
X122779434Y-53769955D01*
X122662495Y-53857495D01*
X122574955Y-53974434D01*
X122574955Y-53974435D01*
X122523905Y-54111306D01*
X122517400Y-54171802D01*
X118237000Y-54171802D01*
X118237000Y-51631750D01*
X119206900Y-51631750D01*
X119206900Y-52729049D01*
X119213409Y-52789596D01*
X119213411Y-52789604D01*
X119264510Y-52926602D01*
X119264512Y-52926607D01*
X119352138Y-53043661D01*
X119469192Y-53131287D01*
X119469194Y-53131288D01*
X119469196Y-53131289D01*
X119528275Y-53153324D01*
X119606195Y-53182388D01*
X119606203Y-53182390D01*
X119666750Y-53188899D01*
X119666755Y-53188899D01*
X119666762Y-53188900D01*
X119666768Y-53188900D01*
X122274032Y-53188900D01*
X122274038Y-53188900D01*
X122274045Y-53188899D01*
X122274049Y-53188899D01*
X122334596Y-53182390D01*
X122334599Y-53182389D01*
X122334601Y-53182389D01*
X122471604Y-53131289D01*
X122588661Y-53043661D01*
X122676289Y-52926604D01*
X122727389Y-52789601D01*
X122733900Y-52729038D01*
X122733900Y-51631762D01*
X122733899Y-51631750D01*
X137755700Y-51631750D01*
X137755700Y-52729049D01*
X137762209Y-52789596D01*
X137762211Y-52789604D01*
X137813310Y-52926602D01*
X137813312Y-52926607D01*
X137900938Y-53043661D01*
X138017992Y-53131287D01*
X138017994Y-53131288D01*
X138017996Y-53131289D01*
X138077075Y-53153324D01*
X138154995Y-53182388D01*
X138155003Y-53182390D01*
X138215550Y-53188899D01*
X138215555Y-53188899D01*
X138215562Y-53188900D01*
X138215568Y-53188900D01*
X140822832Y-53188900D01*
X140822838Y-53188900D01*
X140822845Y-53188899D01*
X140822849Y-53188899D01*
X140883396Y-53182390D01*
X140883399Y-53182389D01*
X140883401Y-53182389D01*
X141020404Y-53131289D01*
X141137461Y-53043661D01*
X141225089Y-52926604D01*
X141276189Y-52789601D01*
X141282700Y-52729038D01*
X141282700Y-51631762D01*
X141282699Y-51631750D01*
X141276190Y-51571203D01*
X141276188Y-51571195D01*
X141225089Y-51434197D01*
X141225087Y-51434192D01*
X141137461Y-51317138D01*
X141020407Y-51229512D01*
X141020402Y-51229510D01*
X140883404Y-51178411D01*
X140883396Y-51178409D01*
X140822849Y-51171900D01*
X140822838Y-51171900D01*
X138215562Y-51171900D01*
X138215550Y-51171900D01*
X138155003Y-51178409D01*
X138154995Y-51178411D01*
X138017997Y-51229510D01*
X138017992Y-51229512D01*
X137900938Y-51317138D01*
X137813312Y-51434192D01*
X137813310Y-51434197D01*
X137762211Y-51571195D01*
X137762209Y-51571203D01*
X137755700Y-51631750D01*
X122733899Y-51631750D01*
X122727390Y-51571203D01*
X122727388Y-51571195D01*
X122676289Y-51434197D01*
X122676287Y-51434192D01*
X122588661Y-51317138D01*
X122471607Y-51229512D01*
X122471602Y-51229510D01*
X122334604Y-51178411D01*
X122334596Y-51178409D01*
X122274049Y-51171900D01*
X122274038Y-51171900D01*
X119666762Y-51171900D01*
X119666750Y-51171900D01*
X119606203Y-51178409D01*
X119606195Y-51178411D01*
X119469197Y-51229510D01*
X119469192Y-51229512D01*
X119352138Y-51317138D01*
X119264512Y-51434192D01*
X119264510Y-51434197D01*
X119213411Y-51571195D01*
X119213409Y-51571203D01*
X119206900Y-51631750D01*
X118237000Y-51631750D01*
X118237000Y-50316400D01*
X118257002Y-50248279D01*
X118310658Y-50201786D01*
X118363000Y-50190400D01*
X142215600Y-50190400D01*
X142283721Y-50210402D01*
G37*
G04 #@! TD.AperFunction*
M02*
