G04 #@! TF.GenerationSoftware,KiCad,Pcbnew,8.0.9-8.0.9-0~ubuntu22.04.1*
G04 #@! TF.CreationDate,2025-12-26T22:23:02+02:00*
G04 #@! TF.ProjectId,usb-atx-ctrl-redux,7573622d-6174-4782-9d63-74726c2d7265,rev?*
G04 #@! TF.SameCoordinates,Original*
G04 #@! TF.FileFunction,Copper,L2,Bot*
G04 #@! TF.FilePolarity,Positive*
%FSLAX46Y46*%
G04 Gerber Fmt 4.6, Leading zero omitted, Abs format (unit mm)*
G04 Created by KiCad (PCBNEW 8.0.9-8.0.9-0~ubuntu22.04.1) date 2025-12-26 22:23:02*
%MOMM*%
%LPD*%
G01*
G04 APERTURE LIST*
G04 #@! TA.AperFunction,ComponentPad*
%ADD10O,1.250000X1.750000*%
G04 #@! TD*
G04 #@! TA.AperFunction,ComponentPad*
%ADD11R,1.500000X1.500000*%
G04 #@! TD*
G04 #@! TA.AperFunction,ComponentPad*
%ADD12C,1.500000*%
G04 #@! TD*
G04 #@! TA.AperFunction,SMDPad,CuDef*
%ADD13R,2.000000X1.780000*%
G04 #@! TD*
G04 #@! TA.AperFunction,ViaPad*
%ADD14C,0.800000*%
G04 #@! TD*
G04 #@! TA.AperFunction,Conductor*
%ADD15C,0.250000*%
G04 #@! TD*
G04 #@! TA.AperFunction,Conductor*
%ADD16C,0.200000*%
G04 #@! TD*
G04 APERTURE END LIST*
D10*
X120732800Y-95453200D03*
X122732800Y-96723200D03*
X122732800Y-94183200D03*
D11*
X128387100Y-84384200D03*
D12*
X129657100Y-81844200D03*
X130927100Y-84384200D03*
X132197100Y-81844200D03*
X133467100Y-84384200D03*
X134737100Y-81844200D03*
X136007100Y-84384200D03*
X137277100Y-81844200D03*
D10*
X120738200Y-89408000D03*
X122738200Y-90678000D03*
X122738200Y-88138000D03*
D13*
X139700000Y-62255400D03*
X139700000Y-64795400D03*
X139700000Y-67335400D03*
X139700000Y-69875400D03*
X132080000Y-69875400D03*
X132080000Y-67335400D03*
X132080000Y-64795400D03*
X132080000Y-62255400D03*
X128422400Y-62204600D03*
X128422400Y-64744600D03*
X128422400Y-67284600D03*
X128422400Y-69824600D03*
X120802400Y-69824600D03*
X120802400Y-67284600D03*
X120802400Y-64744600D03*
X120802400Y-62204600D03*
D14*
X134620000Y-78054200D03*
X139700000Y-64795400D03*
X139700000Y-69875400D03*
X125501400Y-76936600D03*
X127457200Y-74853800D03*
X124333000Y-81381600D03*
X120802400Y-69824600D03*
X139519200Y-72500400D03*
X136209200Y-69960400D03*
X120970400Y-57260400D03*
X120802400Y-64744600D03*
X120970400Y-76150942D03*
D15*
X126339600Y-65557400D02*
X127152400Y-64744600D01*
X126339600Y-78526700D02*
X126339600Y-65557400D01*
X127152400Y-64744600D02*
X128422400Y-64744600D01*
X129657100Y-81844200D02*
X126339600Y-78526700D01*
X132080000Y-64795400D02*
X130505200Y-66370200D01*
X130505200Y-66370200D02*
X130505200Y-73939400D01*
X122738200Y-88138000D02*
X129057400Y-88138000D01*
X129057400Y-88138000D02*
X132207000Y-84988400D01*
X130505200Y-73939400D02*
X134620000Y-78054200D01*
X132207000Y-84988400D02*
X132207000Y-81854100D01*
D16*
X132207000Y-81854100D02*
X132197100Y-81844200D01*
D15*
X122738200Y-90683400D02*
X125095000Y-93040200D01*
X128066800Y-93040200D02*
X133467100Y-87639900D01*
X133467100Y-84384200D02*
X134182800Y-84384200D01*
X136017000Y-82550000D02*
X136017000Y-80619600D01*
X136017000Y-80619600D02*
X129971800Y-74574400D01*
X129971800Y-74574400D02*
X129971800Y-64363600D01*
X129971800Y-64363600D02*
X132080000Y-62255400D01*
X133467100Y-87639900D02*
X133467100Y-84384200D01*
X125095000Y-93040200D02*
X128066800Y-93040200D01*
X134182800Y-84384200D02*
X136017000Y-82550000D01*
X128422400Y-69824600D02*
X128422400Y-75529500D01*
X128422400Y-75529500D02*
X134737100Y-81844200D01*
X133781800Y-68427600D02*
X132689600Y-67335400D01*
X138684000Y-78511400D02*
X133781800Y-73609200D01*
X133781800Y-73609200D02*
X133781800Y-68427600D01*
X136007100Y-84384200D02*
X137180000Y-84384200D01*
X137180000Y-84384200D02*
X138684000Y-82880200D01*
X138684000Y-82880200D02*
X138684000Y-78511400D01*
X132689600Y-67335400D02*
X132080000Y-67335400D01*
X137277100Y-79568300D02*
X132080000Y-74371200D01*
X132080000Y-74371200D02*
X132080000Y-69875400D01*
X137277100Y-81844200D02*
X137277100Y-79568300D01*
X125501400Y-63601600D02*
X125501400Y-76936600D01*
X126898400Y-62204600D02*
X125501400Y-63601600D01*
X128422400Y-62204600D02*
X126898400Y-62204600D01*
X126923800Y-68757800D02*
X126923800Y-74320400D01*
X128397000Y-67284600D02*
X126923800Y-68757800D01*
X126923800Y-74320400D02*
X127457200Y-74853800D01*
X128422400Y-67284600D02*
X128397000Y-67284600D01*
X120802400Y-69824600D02*
X120802400Y-73888600D01*
X124256800Y-77343000D02*
X124333000Y-77419200D01*
X120802400Y-73888600D02*
X124256800Y-77343000D01*
X124333000Y-77419200D02*
X124333000Y-81381600D01*
X136483000Y-72500400D02*
X139519200Y-72500400D01*
X134950200Y-70967600D02*
X136483000Y-72500400D01*
X139700000Y-62255400D02*
X134950200Y-67005200D01*
X134950200Y-67005200D02*
X134950200Y-70967600D01*
X139700000Y-67335400D02*
X140258800Y-67335400D01*
X138834200Y-67335400D02*
X136209200Y-69960400D01*
X139700000Y-67335400D02*
X138834200Y-67335400D01*
X120802400Y-62204600D02*
X120802400Y-57428400D01*
X121488200Y-62204600D02*
X120802400Y-62204600D01*
X122402600Y-63119000D02*
X121488200Y-62204600D01*
X120802400Y-57428400D02*
X120970400Y-57260400D01*
X122402600Y-66446400D02*
X122402600Y-63119000D01*
X121564400Y-67284600D02*
X122402600Y-66446400D01*
X120802400Y-67284600D02*
X121564400Y-67284600D01*
X119126000Y-66421000D02*
X119126000Y-74306542D01*
X120802400Y-64744600D02*
X119126000Y-66421000D01*
X119126000Y-74306542D02*
X120970400Y-76150942D01*
M02*
