G04 #@! TF.GenerationSoftware,KiCad,Pcbnew,8.0.9-8.0.9-0~ubuntu22.04.1*
G04 #@! TF.CreationDate,2025-12-26T22:23:02+02:00*
G04 #@! TF.ProjectId,usb-atx-ctrl-redux,7573622d-6174-4782-9d63-74726c2d7265,rev?*
G04 #@! TF.SameCoordinates,Original*
G04 #@! TF.FileFunction,Legend,Top*
G04 #@! TF.FilePolarity,Positive*
%FSLAX46Y46*%
G04 Gerber Fmt 4.6, Leading zero omitted, Abs format (unit mm)*
G04 Created by KiCad (PCBNEW 8.0.9-8.0.9-0~ubuntu22.04.1) date 2025-12-26 22:23:02*
%MOMM*%
%LPD*%
G01*
G04 APERTURE LIST*
G04 Aperture macros list*
%AMRoundRect*
0 Rectangle with rounded corners*
0 $1 Rounding radius*
0 $2 $3 $4 $5 $6 $7 $8 $9 X,Y pos of 4 corners*
0 Add a 4 corners polygon primitive as box body*
4,1,4,$2,$3,$4,$5,$6,$7,$8,$9,$2,$3,0*
0 Add four circle primitives for the rounded corners*
1,1,$1+$1,$2,$3*
1,1,$1+$1,$4,$5*
1,1,$1+$1,$6,$7*
1,1,$1+$1,$8,$9*
0 Add four rect primitives between the rounded corners*
20,1,$1+$1,$2,$3,$4,$5,0*
20,1,$1+$1,$4,$5,$6,$7,0*
20,1,$1+$1,$6,$7,$8,$9,0*
20,1,$1+$1,$8,$9,$2,$3,0*%
G04 Aperture macros list end*
%ADD10C,0.150000*%
%ADD11C,0.120000*%
%ADD12O,1.250000X1.750000*%
%ADD13RoundRect,0.237500X-0.250000X-0.237500X0.250000X-0.237500X0.250000X0.237500X-0.250000X0.237500X0*%
%ADD14R,2.510000X1.000000*%
%ADD15R,1.000000X2.510000*%
%ADD16RoundRect,0.237500X-0.237500X0.250000X-0.237500X-0.250000X0.237500X-0.250000X0.237500X0.250000X0*%
%ADD17RoundRect,0.250000X0.450000X-0.325000X0.450000X0.325000X-0.450000X0.325000X-0.450000X-0.325000X0*%
%ADD18C,3.200000*%
%ADD19R,1.500000X1.500000*%
%ADD20C,1.500000*%
G04 APERTURE END LIST*
D10*
X130331151Y-96736819D02*
X130331151Y-97451104D01*
X130331151Y-97451104D02*
X130283532Y-97593961D01*
X130283532Y-97593961D02*
X130188294Y-97689200D01*
X130188294Y-97689200D02*
X130045437Y-97736819D01*
X130045437Y-97736819D02*
X129950199Y-97736819D01*
X131283532Y-97736819D02*
X130807342Y-97736819D01*
X130807342Y-97736819D02*
X130807342Y-96736819D01*
X132188294Y-97641580D02*
X132140675Y-97689200D01*
X132140675Y-97689200D02*
X131997818Y-97736819D01*
X131997818Y-97736819D02*
X131902580Y-97736819D01*
X131902580Y-97736819D02*
X131759723Y-97689200D01*
X131759723Y-97689200D02*
X131664485Y-97593961D01*
X131664485Y-97593961D02*
X131616866Y-97498723D01*
X131616866Y-97498723D02*
X131569247Y-97308247D01*
X131569247Y-97308247D02*
X131569247Y-97165390D01*
X131569247Y-97165390D02*
X131616866Y-96974914D01*
X131616866Y-96974914D02*
X131664485Y-96879676D01*
X131664485Y-96879676D02*
X131759723Y-96784438D01*
X131759723Y-96784438D02*
X131902580Y-96736819D01*
X131902580Y-96736819D02*
X131997818Y-96736819D01*
X131997818Y-96736819D02*
X132140675Y-96784438D01*
X132140675Y-96784438D02*
X132188294Y-96832057D01*
X132902580Y-96736819D02*
X132902580Y-97451104D01*
X132902580Y-97451104D02*
X132854961Y-97593961D01*
X132854961Y-97593961D02*
X132759723Y-97689200D01*
X132759723Y-97689200D02*
X132616866Y-97736819D01*
X132616866Y-97736819D02*
X132521628Y-97736819D01*
X133854961Y-97736819D02*
X133378771Y-97736819D01*
X133378771Y-97736819D02*
X133378771Y-96736819D01*
X134759723Y-97641580D02*
X134712104Y-97689200D01*
X134712104Y-97689200D02*
X134569247Y-97736819D01*
X134569247Y-97736819D02*
X134474009Y-97736819D01*
X134474009Y-97736819D02*
X134331152Y-97689200D01*
X134331152Y-97689200D02*
X134235914Y-97593961D01*
X134235914Y-97593961D02*
X134188295Y-97498723D01*
X134188295Y-97498723D02*
X134140676Y-97308247D01*
X134140676Y-97308247D02*
X134140676Y-97165390D01*
X134140676Y-97165390D02*
X134188295Y-96974914D01*
X134188295Y-96974914D02*
X134235914Y-96879676D01*
X134235914Y-96879676D02*
X134331152Y-96784438D01*
X134331152Y-96784438D02*
X134474009Y-96736819D01*
X134474009Y-96736819D02*
X134569247Y-96736819D01*
X134569247Y-96736819D02*
X134712104Y-96784438D01*
X134712104Y-96784438D02*
X134759723Y-96832057D01*
X135474009Y-96736819D02*
X135474009Y-97451104D01*
X135474009Y-97451104D02*
X135426390Y-97593961D01*
X135426390Y-97593961D02*
X135331152Y-97689200D01*
X135331152Y-97689200D02*
X135188295Y-97736819D01*
X135188295Y-97736819D02*
X135093057Y-97736819D01*
X136426390Y-97736819D02*
X135950200Y-97736819D01*
X135950200Y-97736819D02*
X135950200Y-96736819D01*
X137331152Y-97641580D02*
X137283533Y-97689200D01*
X137283533Y-97689200D02*
X137140676Y-97736819D01*
X137140676Y-97736819D02*
X137045438Y-97736819D01*
X137045438Y-97736819D02*
X136902581Y-97689200D01*
X136902581Y-97689200D02*
X136807343Y-97593961D01*
X136807343Y-97593961D02*
X136759724Y-97498723D01*
X136759724Y-97498723D02*
X136712105Y-97308247D01*
X136712105Y-97308247D02*
X136712105Y-97165390D01*
X136712105Y-97165390D02*
X136759724Y-96974914D01*
X136759724Y-96974914D02*
X136807343Y-96879676D01*
X136807343Y-96879676D02*
X136902581Y-96784438D01*
X136902581Y-96784438D02*
X137045438Y-96736819D01*
X137045438Y-96736819D02*
X137140676Y-96736819D01*
X137140676Y-96736819D02*
X137283533Y-96784438D01*
X137283533Y-96784438D02*
X137331152Y-96832057D01*
X138045438Y-96736819D02*
X138045438Y-97451104D01*
X138045438Y-97451104D02*
X137997819Y-97593961D01*
X137997819Y-97593961D02*
X137902581Y-97689200D01*
X137902581Y-97689200D02*
X137759724Y-97736819D01*
X137759724Y-97736819D02*
X137664486Y-97736819D01*
X138997819Y-97736819D02*
X138521629Y-97736819D01*
X138521629Y-97736819D02*
X138521629Y-96736819D01*
X139902581Y-97641580D02*
X139854962Y-97689200D01*
X139854962Y-97689200D02*
X139712105Y-97736819D01*
X139712105Y-97736819D02*
X139616867Y-97736819D01*
X139616867Y-97736819D02*
X139474010Y-97689200D01*
X139474010Y-97689200D02*
X139378772Y-97593961D01*
X139378772Y-97593961D02*
X139331153Y-97498723D01*
X139331153Y-97498723D02*
X139283534Y-97308247D01*
X139283534Y-97308247D02*
X139283534Y-97165390D01*
X139283534Y-97165390D02*
X139331153Y-96974914D01*
X139331153Y-96974914D02*
X139378772Y-96879676D01*
X139378772Y-96879676D02*
X139474010Y-96784438D01*
X139474010Y-96784438D02*
X139616867Y-96736819D01*
X139616867Y-96736819D02*
X139712105Y-96736819D01*
X139712105Y-96736819D02*
X139854962Y-96784438D01*
X139854962Y-96784438D02*
X139902581Y-96832057D01*
X121394067Y-92888600D02*
X121536924Y-92936219D01*
X121536924Y-92936219D02*
X121775019Y-92936219D01*
X121775019Y-92936219D02*
X121870257Y-92888600D01*
X121870257Y-92888600D02*
X121917876Y-92840980D01*
X121917876Y-92840980D02*
X121965495Y-92745742D01*
X121965495Y-92745742D02*
X121965495Y-92650504D01*
X121965495Y-92650504D02*
X121917876Y-92555266D01*
X121917876Y-92555266D02*
X121870257Y-92507647D01*
X121870257Y-92507647D02*
X121775019Y-92460028D01*
X121775019Y-92460028D02*
X121584543Y-92412409D01*
X121584543Y-92412409D02*
X121489305Y-92364790D01*
X121489305Y-92364790D02*
X121441686Y-92317171D01*
X121441686Y-92317171D02*
X121394067Y-92221933D01*
X121394067Y-92221933D02*
X121394067Y-92126695D01*
X121394067Y-92126695D02*
X121441686Y-92031457D01*
X121441686Y-92031457D02*
X121489305Y-91983838D01*
X121489305Y-91983838D02*
X121584543Y-91936219D01*
X121584543Y-91936219D02*
X121822638Y-91936219D01*
X121822638Y-91936219D02*
X121965495Y-91983838D01*
X122298829Y-91936219D02*
X122536924Y-92936219D01*
X122536924Y-92936219D02*
X122727400Y-92221933D01*
X122727400Y-92221933D02*
X122917876Y-92936219D01*
X122917876Y-92936219D02*
X123155972Y-91936219D01*
X123489305Y-92031457D02*
X123536924Y-91983838D01*
X123536924Y-91983838D02*
X123632162Y-91936219D01*
X123632162Y-91936219D02*
X123870257Y-91936219D01*
X123870257Y-91936219D02*
X123965495Y-91983838D01*
X123965495Y-91983838D02*
X124013114Y-92031457D01*
X124013114Y-92031457D02*
X124060733Y-92126695D01*
X124060733Y-92126695D02*
X124060733Y-92221933D01*
X124060733Y-92221933D02*
X124013114Y-92364790D01*
X124013114Y-92364790D02*
X123441686Y-92936219D01*
X123441686Y-92936219D02*
X124060733Y-92936219D01*
X131887933Y-63573819D02*
X131554600Y-63097628D01*
X131316505Y-63573819D02*
X131316505Y-62573819D01*
X131316505Y-62573819D02*
X131697457Y-62573819D01*
X131697457Y-62573819D02*
X131792695Y-62621438D01*
X131792695Y-62621438D02*
X131840314Y-62669057D01*
X131840314Y-62669057D02*
X131887933Y-62764295D01*
X131887933Y-62764295D02*
X131887933Y-62907152D01*
X131887933Y-62907152D02*
X131840314Y-63002390D01*
X131840314Y-63002390D02*
X131792695Y-63050009D01*
X131792695Y-63050009D02*
X131697457Y-63097628D01*
X131697457Y-63097628D02*
X131316505Y-63097628D01*
X132840314Y-63573819D02*
X132268886Y-63573819D01*
X132554600Y-63573819D02*
X132554600Y-62573819D01*
X132554600Y-62573819D02*
X132459362Y-62716676D01*
X132459362Y-62716676D02*
X132364124Y-62811914D01*
X132364124Y-62811914D02*
X132268886Y-62859533D01*
X129601742Y-60030019D02*
X129268409Y-59553828D01*
X129030314Y-60030019D02*
X129030314Y-59030019D01*
X129030314Y-59030019D02*
X129411266Y-59030019D01*
X129411266Y-59030019D02*
X129506504Y-59077638D01*
X129506504Y-59077638D02*
X129554123Y-59125257D01*
X129554123Y-59125257D02*
X129601742Y-59220495D01*
X129601742Y-59220495D02*
X129601742Y-59363352D01*
X129601742Y-59363352D02*
X129554123Y-59458590D01*
X129554123Y-59458590D02*
X129506504Y-59506209D01*
X129506504Y-59506209D02*
X129411266Y-59553828D01*
X129411266Y-59553828D02*
X129030314Y-59553828D01*
X129935076Y-59030019D02*
X130601742Y-59030019D01*
X130601742Y-59030019D02*
X129935076Y-60030019D01*
X129935076Y-60030019D02*
X130601742Y-60030019D01*
X131506504Y-60030019D02*
X130935076Y-60030019D01*
X131220790Y-60030019D02*
X131220790Y-59030019D01*
X131220790Y-59030019D02*
X131125552Y-59172876D01*
X131125552Y-59172876D02*
X131030314Y-59268114D01*
X131030314Y-59268114D02*
X130935076Y-59315733D01*
X130172619Y-78007247D02*
X129696428Y-78340580D01*
X130172619Y-78578675D02*
X129172619Y-78578675D01*
X129172619Y-78578675D02*
X129172619Y-78197723D01*
X129172619Y-78197723D02*
X129220238Y-78102485D01*
X129220238Y-78102485D02*
X129267857Y-78054866D01*
X129267857Y-78054866D02*
X129363095Y-78007247D01*
X129363095Y-78007247D02*
X129505952Y-78007247D01*
X129505952Y-78007247D02*
X129601190Y-78054866D01*
X129601190Y-78054866D02*
X129648809Y-78102485D01*
X129648809Y-78102485D02*
X129696428Y-78197723D01*
X129696428Y-78197723D02*
X129696428Y-78578675D01*
X129172619Y-77673913D02*
X129172619Y-77054866D01*
X129172619Y-77054866D02*
X129553571Y-77388199D01*
X129553571Y-77388199D02*
X129553571Y-77245342D01*
X129553571Y-77245342D02*
X129601190Y-77150104D01*
X129601190Y-77150104D02*
X129648809Y-77102485D01*
X129648809Y-77102485D02*
X129744047Y-77054866D01*
X129744047Y-77054866D02*
X129982142Y-77054866D01*
X129982142Y-77054866D02*
X130077380Y-77102485D01*
X130077380Y-77102485D02*
X130125000Y-77150104D01*
X130125000Y-77150104D02*
X130172619Y-77245342D01*
X130172619Y-77245342D02*
X130172619Y-77531056D01*
X130172619Y-77531056D02*
X130125000Y-77626294D01*
X130125000Y-77626294D02*
X130077380Y-77673913D01*
X120419019Y-77242894D02*
X119419019Y-77242894D01*
X119419019Y-77242894D02*
X119419019Y-77004799D01*
X119419019Y-77004799D02*
X119466638Y-76861942D01*
X119466638Y-76861942D02*
X119561876Y-76766704D01*
X119561876Y-76766704D02*
X119657114Y-76719085D01*
X119657114Y-76719085D02*
X119847590Y-76671466D01*
X119847590Y-76671466D02*
X119990447Y-76671466D01*
X119990447Y-76671466D02*
X120180923Y-76719085D01*
X120180923Y-76719085D02*
X120276161Y-76766704D01*
X120276161Y-76766704D02*
X120371400Y-76861942D01*
X120371400Y-76861942D02*
X120419019Y-77004799D01*
X120419019Y-77004799D02*
X120419019Y-77242894D01*
X119514257Y-76290513D02*
X119466638Y-76242894D01*
X119466638Y-76242894D02*
X119419019Y-76147656D01*
X119419019Y-76147656D02*
X119419019Y-75909561D01*
X119419019Y-75909561D02*
X119466638Y-75814323D01*
X119466638Y-75814323D02*
X119514257Y-75766704D01*
X119514257Y-75766704D02*
X119609495Y-75719085D01*
X119609495Y-75719085D02*
X119704733Y-75719085D01*
X119704733Y-75719085D02*
X119847590Y-75766704D01*
X119847590Y-75766704D02*
X120419019Y-76338132D01*
X120419019Y-76338132D02*
X120419019Y-75719085D01*
X124762419Y-82716666D02*
X124286228Y-83049999D01*
X124762419Y-83288094D02*
X123762419Y-83288094D01*
X123762419Y-83288094D02*
X123762419Y-82907142D01*
X123762419Y-82907142D02*
X123810038Y-82811904D01*
X123810038Y-82811904D02*
X123857657Y-82764285D01*
X123857657Y-82764285D02*
X123952895Y-82716666D01*
X123952895Y-82716666D02*
X124095752Y-82716666D01*
X124095752Y-82716666D02*
X124190990Y-82764285D01*
X124190990Y-82764285D02*
X124238609Y-82811904D01*
X124238609Y-82811904D02*
X124286228Y-82907142D01*
X124286228Y-82907142D02*
X124286228Y-83288094D01*
X123762419Y-81811904D02*
X123762419Y-82288094D01*
X123762419Y-82288094D02*
X124238609Y-82335713D01*
X124238609Y-82335713D02*
X124190990Y-82288094D01*
X124190990Y-82288094D02*
X124143371Y-82192856D01*
X124143371Y-82192856D02*
X124143371Y-81954761D01*
X124143371Y-81954761D02*
X124190990Y-81859523D01*
X124190990Y-81859523D02*
X124238609Y-81811904D01*
X124238609Y-81811904D02*
X124333847Y-81764285D01*
X124333847Y-81764285D02*
X124571942Y-81764285D01*
X124571942Y-81764285D02*
X124667180Y-81811904D01*
X124667180Y-81811904D02*
X124714800Y-81859523D01*
X124714800Y-81859523D02*
X124762419Y-81954761D01*
X124762419Y-81954761D02*
X124762419Y-82192856D01*
X124762419Y-82192856D02*
X124714800Y-82288094D01*
X124714800Y-82288094D02*
X124667180Y-82335713D01*
X139595266Y-78956819D02*
X139595266Y-79671104D01*
X139595266Y-79671104D02*
X139547647Y-79813961D01*
X139547647Y-79813961D02*
X139452409Y-79909200D01*
X139452409Y-79909200D02*
X139309552Y-79956819D01*
X139309552Y-79956819D02*
X139214314Y-79956819D01*
X140595266Y-79956819D02*
X140023838Y-79956819D01*
X140309552Y-79956819D02*
X140309552Y-78956819D01*
X140309552Y-78956819D02*
X140214314Y-79099676D01*
X140214314Y-79099676D02*
X140119076Y-79194914D01*
X140119076Y-79194914D02*
X140023838Y-79242533D01*
X132819799Y-77978253D02*
X132343608Y-78311586D01*
X132819799Y-78549681D02*
X131819799Y-78549681D01*
X131819799Y-78549681D02*
X131819799Y-78168729D01*
X131819799Y-78168729D02*
X131867418Y-78073491D01*
X131867418Y-78073491D02*
X131915037Y-78025872D01*
X131915037Y-78025872D02*
X132010275Y-77978253D01*
X132010275Y-77978253D02*
X132153132Y-77978253D01*
X132153132Y-77978253D02*
X132248370Y-78025872D01*
X132248370Y-78025872D02*
X132295989Y-78073491D01*
X132295989Y-78073491D02*
X132343608Y-78168729D01*
X132343608Y-78168729D02*
X132343608Y-78549681D01*
X132153132Y-77121110D02*
X132819799Y-77121110D01*
X131772180Y-77359205D02*
X132486465Y-77597300D01*
X132486465Y-77597300D02*
X132486465Y-76978253D01*
X128179533Y-66342419D02*
X127846200Y-65866228D01*
X127608105Y-66342419D02*
X127608105Y-65342419D01*
X127608105Y-65342419D02*
X127989057Y-65342419D01*
X127989057Y-65342419D02*
X128084295Y-65390038D01*
X128084295Y-65390038D02*
X128131914Y-65437657D01*
X128131914Y-65437657D02*
X128179533Y-65532895D01*
X128179533Y-65532895D02*
X128179533Y-65675752D01*
X128179533Y-65675752D02*
X128131914Y-65770990D01*
X128131914Y-65770990D02*
X128084295Y-65818609D01*
X128084295Y-65818609D02*
X127989057Y-65866228D01*
X127989057Y-65866228D02*
X127608105Y-65866228D01*
X128512867Y-65342419D02*
X129179533Y-65342419D01*
X129179533Y-65342419D02*
X128750962Y-66342419D01*
X131887933Y-66367819D02*
X131554600Y-65891628D01*
X131316505Y-66367819D02*
X131316505Y-65367819D01*
X131316505Y-65367819D02*
X131697457Y-65367819D01*
X131697457Y-65367819D02*
X131792695Y-65415438D01*
X131792695Y-65415438D02*
X131840314Y-65463057D01*
X131840314Y-65463057D02*
X131887933Y-65558295D01*
X131887933Y-65558295D02*
X131887933Y-65701152D01*
X131887933Y-65701152D02*
X131840314Y-65796390D01*
X131840314Y-65796390D02*
X131792695Y-65844009D01*
X131792695Y-65844009D02*
X131697457Y-65891628D01*
X131697457Y-65891628D02*
X131316505Y-65891628D01*
X132268886Y-65463057D02*
X132316505Y-65415438D01*
X132316505Y-65415438D02*
X132411743Y-65367819D01*
X132411743Y-65367819D02*
X132649838Y-65367819D01*
X132649838Y-65367819D02*
X132745076Y-65415438D01*
X132745076Y-65415438D02*
X132792695Y-65463057D01*
X132792695Y-65463057D02*
X132840314Y-65558295D01*
X132840314Y-65558295D02*
X132840314Y-65653533D01*
X132840314Y-65653533D02*
X132792695Y-65796390D01*
X132792695Y-65796390D02*
X132221267Y-66367819D01*
X132221267Y-66367819D02*
X132840314Y-66367819D01*
X124890373Y-79265262D02*
X124414182Y-79598595D01*
X124890373Y-79836690D02*
X123890373Y-79836690D01*
X123890373Y-79836690D02*
X123890373Y-79455738D01*
X123890373Y-79455738D02*
X123937992Y-79360500D01*
X123937992Y-79360500D02*
X123985611Y-79312881D01*
X123985611Y-79312881D02*
X124080849Y-79265262D01*
X124080849Y-79265262D02*
X124223706Y-79265262D01*
X124223706Y-79265262D02*
X124318944Y-79312881D01*
X124318944Y-79312881D02*
X124366563Y-79360500D01*
X124366563Y-79360500D02*
X124414182Y-79455738D01*
X124414182Y-79455738D02*
X124414182Y-79836690D01*
X123890373Y-78408119D02*
X123890373Y-78598595D01*
X123890373Y-78598595D02*
X123937992Y-78693833D01*
X123937992Y-78693833D02*
X123985611Y-78741452D01*
X123985611Y-78741452D02*
X124128468Y-78836690D01*
X124128468Y-78836690D02*
X124318944Y-78884309D01*
X124318944Y-78884309D02*
X124699896Y-78884309D01*
X124699896Y-78884309D02*
X124795134Y-78836690D01*
X124795134Y-78836690D02*
X124842754Y-78789071D01*
X124842754Y-78789071D02*
X124890373Y-78693833D01*
X124890373Y-78693833D02*
X124890373Y-78503357D01*
X124890373Y-78503357D02*
X124842754Y-78408119D01*
X124842754Y-78408119D02*
X124795134Y-78360500D01*
X124795134Y-78360500D02*
X124699896Y-78312881D01*
X124699896Y-78312881D02*
X124461801Y-78312881D01*
X124461801Y-78312881D02*
X124366563Y-78360500D01*
X124366563Y-78360500D02*
X124318944Y-78408119D01*
X124318944Y-78408119D02*
X124271325Y-78503357D01*
X124271325Y-78503357D02*
X124271325Y-78693833D01*
X124271325Y-78693833D02*
X124318944Y-78789071D01*
X124318944Y-78789071D02*
X124366563Y-78836690D01*
X124366563Y-78836690D02*
X124461801Y-78884309D01*
X120419019Y-87326694D02*
X119419019Y-87326694D01*
X119419019Y-87326694D02*
X119419019Y-87088599D01*
X119419019Y-87088599D02*
X119466638Y-86945742D01*
X119466638Y-86945742D02*
X119561876Y-86850504D01*
X119561876Y-86850504D02*
X119657114Y-86802885D01*
X119657114Y-86802885D02*
X119847590Y-86755266D01*
X119847590Y-86755266D02*
X119990447Y-86755266D01*
X119990447Y-86755266D02*
X120180923Y-86802885D01*
X120180923Y-86802885D02*
X120276161Y-86850504D01*
X120276161Y-86850504D02*
X120371400Y-86945742D01*
X120371400Y-86945742D02*
X120419019Y-87088599D01*
X120419019Y-87088599D02*
X120419019Y-87326694D01*
X120419019Y-85802885D02*
X120419019Y-86374313D01*
X120419019Y-86088599D02*
X119419019Y-86088599D01*
X119419019Y-86088599D02*
X119561876Y-86183837D01*
X119561876Y-86183837D02*
X119657114Y-86279075D01*
X119657114Y-86279075D02*
X119704733Y-86374313D01*
X121399467Y-86767200D02*
X121542324Y-86814819D01*
X121542324Y-86814819D02*
X121780419Y-86814819D01*
X121780419Y-86814819D02*
X121875657Y-86767200D01*
X121875657Y-86767200D02*
X121923276Y-86719580D01*
X121923276Y-86719580D02*
X121970895Y-86624342D01*
X121970895Y-86624342D02*
X121970895Y-86529104D01*
X121970895Y-86529104D02*
X121923276Y-86433866D01*
X121923276Y-86433866D02*
X121875657Y-86386247D01*
X121875657Y-86386247D02*
X121780419Y-86338628D01*
X121780419Y-86338628D02*
X121589943Y-86291009D01*
X121589943Y-86291009D02*
X121494705Y-86243390D01*
X121494705Y-86243390D02*
X121447086Y-86195771D01*
X121447086Y-86195771D02*
X121399467Y-86100533D01*
X121399467Y-86100533D02*
X121399467Y-86005295D01*
X121399467Y-86005295D02*
X121447086Y-85910057D01*
X121447086Y-85910057D02*
X121494705Y-85862438D01*
X121494705Y-85862438D02*
X121589943Y-85814819D01*
X121589943Y-85814819D02*
X121828038Y-85814819D01*
X121828038Y-85814819D02*
X121970895Y-85862438D01*
X122304229Y-85814819D02*
X122542324Y-86814819D01*
X122542324Y-86814819D02*
X122732800Y-86100533D01*
X122732800Y-86100533D02*
X122923276Y-86814819D01*
X122923276Y-86814819D02*
X123161372Y-85814819D01*
X124066133Y-86814819D02*
X123494705Y-86814819D01*
X123780419Y-86814819D02*
X123780419Y-85814819D01*
X123780419Y-85814819D02*
X123685181Y-85957676D01*
X123685181Y-85957676D02*
X123589943Y-86052914D01*
X123589943Y-86052914D02*
X123494705Y-86100533D01*
X128230333Y-63573819D02*
X127897000Y-63097628D01*
X127658905Y-63573819D02*
X127658905Y-62573819D01*
X127658905Y-62573819D02*
X128039857Y-62573819D01*
X128039857Y-62573819D02*
X128135095Y-62621438D01*
X128135095Y-62621438D02*
X128182714Y-62669057D01*
X128182714Y-62669057D02*
X128230333Y-62764295D01*
X128230333Y-62764295D02*
X128230333Y-62907152D01*
X128230333Y-62907152D02*
X128182714Y-63002390D01*
X128182714Y-63002390D02*
X128135095Y-63050009D01*
X128135095Y-63050009D02*
X128039857Y-63097628D01*
X128039857Y-63097628D02*
X127658905Y-63097628D01*
X128801762Y-63002390D02*
X128706524Y-62954771D01*
X128706524Y-62954771D02*
X128658905Y-62907152D01*
X128658905Y-62907152D02*
X128611286Y-62811914D01*
X128611286Y-62811914D02*
X128611286Y-62764295D01*
X128611286Y-62764295D02*
X128658905Y-62669057D01*
X128658905Y-62669057D02*
X128706524Y-62621438D01*
X128706524Y-62621438D02*
X128801762Y-62573819D01*
X128801762Y-62573819D02*
X128992238Y-62573819D01*
X128992238Y-62573819D02*
X129087476Y-62621438D01*
X129087476Y-62621438D02*
X129135095Y-62669057D01*
X129135095Y-62669057D02*
X129182714Y-62764295D01*
X129182714Y-62764295D02*
X129182714Y-62811914D01*
X129182714Y-62811914D02*
X129135095Y-62907152D01*
X129135095Y-62907152D02*
X129087476Y-62954771D01*
X129087476Y-62954771D02*
X128992238Y-63002390D01*
X128992238Y-63002390D02*
X128801762Y-63002390D01*
X128801762Y-63002390D02*
X128706524Y-63050009D01*
X128706524Y-63050009D02*
X128658905Y-63097628D01*
X128658905Y-63097628D02*
X128611286Y-63192866D01*
X128611286Y-63192866D02*
X128611286Y-63383342D01*
X128611286Y-63383342D02*
X128658905Y-63478580D01*
X128658905Y-63478580D02*
X128706524Y-63526200D01*
X128706524Y-63526200D02*
X128801762Y-63573819D01*
X128801762Y-63573819D02*
X128992238Y-63573819D01*
X128992238Y-63573819D02*
X129087476Y-63526200D01*
X129087476Y-63526200D02*
X129135095Y-63478580D01*
X129135095Y-63478580D02*
X129182714Y-63383342D01*
X129182714Y-63383342D02*
X129182714Y-63192866D01*
X129182714Y-63192866D02*
X129135095Y-63097628D01*
X129135095Y-63097628D02*
X129087476Y-63050009D01*
X129087476Y-63050009D02*
X128992238Y-63002390D01*
D11*
X120732800Y-93203200D02*
X122132800Y-93203200D01*
X120732800Y-94153200D02*
X120732800Y-93203200D01*
X120732800Y-97703200D02*
X120732800Y-96753200D01*
X120732800Y-97703200D02*
X122132800Y-97703200D01*
X123332800Y-93203200D02*
X123932800Y-93203200D01*
X123332800Y-97703200D02*
X123932800Y-97703200D01*
X123932800Y-93203200D02*
X123932800Y-97703200D01*
X131799876Y-63942700D02*
X132309324Y-63942700D01*
X131799876Y-64987700D02*
X132309324Y-64987700D01*
X121244600Y-51418400D02*
X121244600Y-50575200D01*
X121244600Y-52940400D02*
X121244600Y-56500400D01*
X121244600Y-58020400D02*
X121244600Y-61580400D01*
X121244600Y-63100400D02*
X121244600Y-66660400D01*
X121244600Y-68180400D02*
X121244600Y-71740400D01*
X121244600Y-73262400D02*
X121244600Y-74075200D01*
X124419600Y-74075200D02*
X121244600Y-74075200D01*
X125941600Y-74075200D02*
X129501600Y-74075200D01*
X131021600Y-74075200D02*
X134581600Y-74075200D01*
X136104461Y-74075200D02*
X139248654Y-74075200D01*
X139244600Y-50575200D02*
X121244600Y-50575200D01*
X139244600Y-50575200D02*
X139244600Y-51418400D01*
X139248654Y-52940400D02*
X139248654Y-56500400D01*
X139248654Y-58020400D02*
X139248654Y-61580400D01*
X139248654Y-63100400D02*
X139248654Y-66660400D01*
X139248654Y-68180400D02*
X139248654Y-71740400D01*
X139248654Y-73262400D02*
X139248654Y-74075200D01*
X127875507Y-77585857D02*
X127875507Y-78095305D01*
X128920507Y-77585857D02*
X128920507Y-78095305D01*
X119383357Y-78215529D02*
X119383357Y-81075529D01*
X119383357Y-81075529D02*
X121303357Y-81075529D01*
X121303357Y-81075529D02*
X121303357Y-78215529D01*
X122489700Y-83389376D02*
X122489700Y-83898824D01*
X123534700Y-83389376D02*
X123534700Y-83898824D01*
X124387100Y-83884200D02*
X124387100Y-84884200D01*
X124387100Y-84884200D02*
X124887100Y-84384200D01*
X124887100Y-84384200D02*
X124387100Y-83884200D01*
X125072100Y-80504200D02*
X125072100Y-98464200D01*
X125072100Y-98464200D02*
X140592100Y-98464200D01*
X140592100Y-80504200D02*
X125072100Y-80504200D01*
X140592100Y-80504200D02*
X140592100Y-98464200D01*
X130412480Y-77556863D02*
X130412480Y-78066311D01*
X131457480Y-77556863D02*
X131457480Y-78066311D01*
X128093376Y-66711300D02*
X128602824Y-66711300D01*
X128093376Y-67756300D02*
X128602824Y-67756300D01*
X131799876Y-66711300D02*
X132309324Y-66711300D01*
X131799876Y-67756300D02*
X132309324Y-67756300D01*
X122483054Y-78843872D02*
X122483054Y-79353320D01*
X123528054Y-78843872D02*
X123528054Y-79353320D01*
X119383357Y-82762129D02*
X119383357Y-85622129D01*
X119383357Y-85622129D02*
X121303357Y-85622129D01*
X121303357Y-85622129D02*
X121303357Y-82762129D01*
X120738200Y-87158000D02*
X122138200Y-87158000D01*
X120738200Y-88108000D02*
X120738200Y-87158000D01*
X120738200Y-91658000D02*
X120738200Y-90708000D01*
X120738200Y-91658000D02*
X122138200Y-91658000D01*
X123338200Y-87158000D02*
X123938200Y-87158000D01*
X123338200Y-91658000D02*
X123938200Y-91658000D01*
X123938200Y-87158000D02*
X123938200Y-91658000D01*
X128142276Y-63942700D02*
X128651724Y-63942700D01*
X128142276Y-64987700D02*
X128651724Y-64987700D01*
%LPC*%
D12*
X120732800Y-95453200D03*
X122732800Y-96723200D03*
X122732800Y-94183200D03*
D13*
X131142100Y-64465200D03*
X132967100Y-64465200D03*
D14*
X139519200Y-52180400D03*
X136209200Y-54720400D03*
X139519200Y-57260400D03*
X136209200Y-59800400D03*
X139519200Y-62340400D03*
X136209200Y-64880400D03*
X139519200Y-67420400D03*
X136209200Y-69960400D03*
X139519200Y-72500400D03*
D15*
X135345200Y-74139200D03*
X132805200Y-70829200D03*
X130265200Y-74139200D03*
X127725200Y-70829200D03*
X125185200Y-74139200D03*
D14*
X120970400Y-72500400D03*
X124280400Y-69960400D03*
X120970400Y-67420400D03*
X124280400Y-64880400D03*
X120970400Y-62340400D03*
X124280400Y-59800400D03*
X120970400Y-57260400D03*
X120970400Y-52180400D03*
X124280400Y-54720400D03*
D16*
X128398007Y-76928081D03*
X128398007Y-78753081D03*
D17*
X120343357Y-80240529D03*
X120343357Y-78190529D03*
D16*
X123012200Y-82731600D03*
X123012200Y-84556600D03*
D18*
X127117100Y-90734200D03*
X138547100Y-90734200D03*
D19*
X128387100Y-84384200D03*
D20*
X129657100Y-81844200D03*
X130927100Y-84384200D03*
X132197100Y-81844200D03*
X133467100Y-84384200D03*
X134737100Y-81844200D03*
X136007100Y-84384200D03*
X137277100Y-81844200D03*
D16*
X130934980Y-76899087D03*
X130934980Y-78724087D03*
D13*
X127435600Y-67233800D03*
X129260600Y-67233800D03*
X131142100Y-67233800D03*
X132967100Y-67233800D03*
D16*
X123005554Y-78186096D03*
X123005554Y-80011096D03*
D17*
X120343357Y-84787129D03*
X120343357Y-82737129D03*
D12*
X120738200Y-89408000D03*
X122738200Y-90678000D03*
X122738200Y-88138000D03*
D13*
X127484500Y-64465200D03*
X129309500Y-64465200D03*
%LPD*%
M02*
