%TF.GenerationSoftware,KiCad,Pcbnew,8.0.9-8.0.9-0~ubuntu22.04.1*%
%TF.CreationDate,2025-12-26T22:23:55+02:00*%
%TF.ProjectId,usb-atx-ctrl-redux,7573622d-6174-4782-9d63-74726c2d7265,rev?*%
%TF.SameCoordinates,Original*%
%TF.FileFunction,Drillmap*%
%TF.FilePolarity,Positive*%
%FSLAX45Y45*%
G04 Gerber Fmt 4.5, Leading zero omitted, Abs format (unit mm)*
G04 Created by KiCad (PCBNEW 8.0.9-8.0.9-0~ubuntu22.04.1) date 2025-12-26 22:23:55*
%MOMM*%
%LPD*%
G01*
G04 APERTURE LIST*
%ADD10C,0.100000*%
%ADD11C,0.200000*%
G04 APERTURE END LIST*
D10*
X11818620Y-5013960D02*
X14239240Y-5013960D01*
X14239240Y-9906000D01*
X11818620Y-9906000D01*
X11818620Y-5013960D01*
D11*
D10*
X12060240Y-6454460D02*
X12100240Y-6494460D01*
X12100240Y-6454460D02*
X12060240Y-6494460D01*
X12060240Y-6962460D02*
X12100240Y-7002460D01*
X12100240Y-6962460D02*
X12060240Y-7002460D01*
X12077040Y-5706040D02*
X12117040Y-5746040D01*
X12117040Y-5706040D02*
X12077040Y-5746040D01*
X12077040Y-7595094D02*
X12117040Y-7635094D01*
X12117040Y-7595094D02*
X12077040Y-7635094D01*
X12413300Y-8118160D02*
X12453300Y-8158160D01*
X12453300Y-8118160D02*
X12413300Y-8158160D01*
X12530140Y-7673660D02*
X12570140Y-7713660D01*
X12570140Y-7673660D02*
X12530140Y-7713660D01*
X12725720Y-7465380D02*
X12765720Y-7505380D01*
X12765720Y-7465380D02*
X12725720Y-7505380D01*
X13442000Y-7785420D02*
X13482000Y-7825420D01*
X13482000Y-7785420D02*
X13442000Y-7825420D01*
X13600920Y-6976040D02*
X13640920Y-7016040D01*
X13640920Y-6976040D02*
X13600920Y-7016040D01*
X13931920Y-7230040D02*
X13971920Y-7270040D01*
X13971920Y-7230040D02*
X13931920Y-7270040D01*
X13950000Y-6459540D02*
X13990000Y-6499540D01*
X13990000Y-6459540D02*
X13950000Y-6499540D01*
X13950000Y-6967540D02*
X13990000Y-7007540D01*
X13990000Y-6967540D02*
X13950000Y-7007540D01*
X12098280Y-9545320D02*
G75*
G02*
X12048280Y-9545320I-25000J0D01*
G01*
X12048280Y-9545320D02*
G75*
G02*
X12098280Y-9545320I25000J0D01*
G01*
X12098280Y-9570320D02*
X12098280Y-9520320D01*
X12048280Y-9520320D02*
G75*
G02*
X12098280Y-9520320I25000J0D01*
G01*
X12048280Y-9520320D02*
X12048280Y-9570320D01*
X12048280Y-9570320D02*
G75*
G03*
X12098280Y-9570320I25000J0D01*
G01*
X12098820Y-8940800D02*
G75*
G02*
X12048820Y-8940800I-25000J0D01*
G01*
X12048820Y-8940800D02*
G75*
G02*
X12098820Y-8940800I25000J0D01*
G01*
X12098820Y-8965800D02*
X12098820Y-8915800D01*
X12048820Y-8915800D02*
G75*
G02*
X12098820Y-8915800I25000J0D01*
G01*
X12048820Y-8915800D02*
X12048820Y-8965800D01*
X12048820Y-8965800D02*
G75*
G03*
X12098820Y-8965800I25000J0D01*
G01*
X12298280Y-9418320D02*
G75*
G02*
X12248280Y-9418320I-25000J0D01*
G01*
X12248280Y-9418320D02*
G75*
G02*
X12298280Y-9418320I25000J0D01*
G01*
X12298280Y-9443320D02*
X12298280Y-9393320D01*
X12248280Y-9393320D02*
G75*
G02*
X12298280Y-9393320I25000J0D01*
G01*
X12248280Y-9393320D02*
X12248280Y-9443320D01*
X12248280Y-9443320D02*
G75*
G03*
X12298280Y-9443320I25000J0D01*
G01*
X12298280Y-9672320D02*
G75*
G02*
X12248280Y-9672320I-25000J0D01*
G01*
X12248280Y-9672320D02*
G75*
G02*
X12298280Y-9672320I25000J0D01*
G01*
X12298280Y-9697320D02*
X12298280Y-9647320D01*
X12248280Y-9647320D02*
G75*
G02*
X12298280Y-9647320I25000J0D01*
G01*
X12248280Y-9647320D02*
X12248280Y-9697320D01*
X12248280Y-9697320D02*
G75*
G03*
X12298280Y-9697320I25000J0D01*
G01*
X12298820Y-8813800D02*
G75*
G02*
X12248820Y-8813800I-25000J0D01*
G01*
X12248820Y-8813800D02*
G75*
G02*
X12298820Y-8813800I25000J0D01*
G01*
X12298820Y-8838800D02*
X12298820Y-8788800D01*
X12248820Y-8788800D02*
G75*
G02*
X12298820Y-8788800I25000J0D01*
G01*
X12248820Y-8788800D02*
X12248820Y-8838800D01*
X12248820Y-8838800D02*
G75*
G03*
X12298820Y-8838800I25000J0D01*
G01*
X12298820Y-9067800D02*
G75*
G02*
X12248820Y-9067800I-25000J0D01*
G01*
X12248820Y-9067800D02*
G75*
G02*
X12298820Y-9067800I25000J0D01*
G01*
X12298820Y-9092800D02*
X12298820Y-9042800D01*
X12248820Y-9042800D02*
G75*
G02*
X12298820Y-9042800I25000J0D01*
G01*
X12248820Y-9042800D02*
X12248820Y-9092800D01*
X12248820Y-9092800D02*
G75*
G03*
X12298820Y-9092800I25000J0D01*
G01*
X12838710Y-8400420D02*
X12838710Y-8476420D01*
X12800710Y-8438420D02*
X12876710Y-8438420D01*
X12965710Y-8146420D02*
X12965710Y-8222420D01*
X12927710Y-8184420D02*
X13003710Y-8184420D01*
X13092710Y-8400420D02*
X13092710Y-8476420D01*
X13054710Y-8438420D02*
X13130710Y-8438420D01*
X13219710Y-8146420D02*
X13219710Y-8222420D01*
X13181710Y-8184420D02*
X13257710Y-8184420D01*
X13346710Y-8400420D02*
X13346710Y-8476420D01*
X13308710Y-8438420D02*
X13384710Y-8438420D01*
X13473710Y-8146420D02*
X13473710Y-8222420D01*
X13435710Y-8184420D02*
X13511710Y-8184420D01*
X13600710Y-8400420D02*
X13600710Y-8476420D01*
X13562710Y-8438420D02*
X13638710Y-8438420D01*
X13727710Y-8146420D02*
X13727710Y-8222420D01*
X13689710Y-8184420D02*
X13765710Y-8184420D01*
D11*
X12074397Y-10222484D02*
X12074397Y-10022484D01*
X12074397Y-10022484D02*
X12122016Y-10022484D01*
X12122016Y-10022484D02*
X12150587Y-10032008D01*
X12150587Y-10032008D02*
X12169635Y-10051055D01*
X12169635Y-10051055D02*
X12179159Y-10070103D01*
X12179159Y-10070103D02*
X12188682Y-10108198D01*
X12188682Y-10108198D02*
X12188682Y-10136770D01*
X12188682Y-10136770D02*
X12179159Y-10174865D01*
X12179159Y-10174865D02*
X12169635Y-10193912D01*
X12169635Y-10193912D02*
X12150587Y-10212960D01*
X12150587Y-10212960D02*
X12122016Y-10222484D01*
X12122016Y-10222484D02*
X12074397Y-10222484D01*
X12274397Y-10222484D02*
X12274397Y-10089150D01*
X12274397Y-10127246D02*
X12283921Y-10108198D01*
X12283921Y-10108198D02*
X12293444Y-10098674D01*
X12293444Y-10098674D02*
X12312492Y-10089150D01*
X12312492Y-10089150D02*
X12331540Y-10089150D01*
X12398206Y-10222484D02*
X12398206Y-10089150D01*
X12398206Y-10022484D02*
X12388682Y-10032008D01*
X12388682Y-10032008D02*
X12398206Y-10041531D01*
X12398206Y-10041531D02*
X12407730Y-10032008D01*
X12407730Y-10032008D02*
X12398206Y-10022484D01*
X12398206Y-10022484D02*
X12398206Y-10041531D01*
X12522016Y-10222484D02*
X12502968Y-10212960D01*
X12502968Y-10212960D02*
X12493444Y-10193912D01*
X12493444Y-10193912D02*
X12493444Y-10022484D01*
X12626778Y-10222484D02*
X12607730Y-10212960D01*
X12607730Y-10212960D02*
X12598206Y-10193912D01*
X12598206Y-10193912D02*
X12598206Y-10022484D01*
X12855349Y-10222484D02*
X12855349Y-10022484D01*
X12855349Y-10022484D02*
X12922016Y-10165341D01*
X12922016Y-10165341D02*
X12988682Y-10022484D01*
X12988682Y-10022484D02*
X12988682Y-10222484D01*
X13169635Y-10222484D02*
X13169635Y-10117722D01*
X13169635Y-10117722D02*
X13160111Y-10098674D01*
X13160111Y-10098674D02*
X13141063Y-10089150D01*
X13141063Y-10089150D02*
X13102968Y-10089150D01*
X13102968Y-10089150D02*
X13083921Y-10098674D01*
X13169635Y-10212960D02*
X13150587Y-10222484D01*
X13150587Y-10222484D02*
X13102968Y-10222484D01*
X13102968Y-10222484D02*
X13083921Y-10212960D01*
X13083921Y-10212960D02*
X13074397Y-10193912D01*
X13074397Y-10193912D02*
X13074397Y-10174865D01*
X13074397Y-10174865D02*
X13083921Y-10155817D01*
X13083921Y-10155817D02*
X13102968Y-10146293D01*
X13102968Y-10146293D02*
X13150587Y-10146293D01*
X13150587Y-10146293D02*
X13169635Y-10136770D01*
X13264873Y-10089150D02*
X13264873Y-10289150D01*
X13264873Y-10098674D02*
X13283921Y-10089150D01*
X13283921Y-10089150D02*
X13322016Y-10089150D01*
X13322016Y-10089150D02*
X13341063Y-10098674D01*
X13341063Y-10098674D02*
X13350587Y-10108198D01*
X13350587Y-10108198D02*
X13360111Y-10127246D01*
X13360111Y-10127246D02*
X13360111Y-10184389D01*
X13360111Y-10184389D02*
X13350587Y-10203436D01*
X13350587Y-10203436D02*
X13341063Y-10212960D01*
X13341063Y-10212960D02*
X13322016Y-10222484D01*
X13322016Y-10222484D02*
X13283921Y-10222484D01*
X13283921Y-10222484D02*
X13264873Y-10212960D01*
X13445825Y-10203436D02*
X13455349Y-10212960D01*
X13455349Y-10212960D02*
X13445825Y-10222484D01*
X13445825Y-10222484D02*
X13436302Y-10212960D01*
X13436302Y-10212960D02*
X13445825Y-10203436D01*
X13445825Y-10203436D02*
X13445825Y-10222484D01*
X13445825Y-10098674D02*
X13455349Y-10108198D01*
X13455349Y-10108198D02*
X13445825Y-10117722D01*
X13445825Y-10117722D02*
X13436302Y-10108198D01*
X13436302Y-10108198D02*
X13445825Y-10098674D01*
X13445825Y-10098674D02*
X13445825Y-10117722D01*
D10*
X11773620Y-10531000D02*
X11813620Y-10571000D01*
X11813620Y-10531000D02*
X11773620Y-10571000D01*
D11*
X12112492Y-10442484D02*
X12131540Y-10442484D01*
X12131540Y-10442484D02*
X12150587Y-10452008D01*
X12150587Y-10452008D02*
X12160111Y-10461531D01*
X12160111Y-10461531D02*
X12169635Y-10480579D01*
X12169635Y-10480579D02*
X12179159Y-10518674D01*
X12179159Y-10518674D02*
X12179159Y-10566293D01*
X12179159Y-10566293D02*
X12169635Y-10604389D01*
X12169635Y-10604389D02*
X12160111Y-10623436D01*
X12160111Y-10623436D02*
X12150587Y-10632960D01*
X12150587Y-10632960D02*
X12131540Y-10642484D01*
X12131540Y-10642484D02*
X12112492Y-10642484D01*
X12112492Y-10642484D02*
X12093444Y-10632960D01*
X12093444Y-10632960D02*
X12083921Y-10623436D01*
X12083921Y-10623436D02*
X12074397Y-10604389D01*
X12074397Y-10604389D02*
X12064873Y-10566293D01*
X12064873Y-10566293D02*
X12064873Y-10518674D01*
X12064873Y-10518674D02*
X12074397Y-10480579D01*
X12074397Y-10480579D02*
X12083921Y-10461531D01*
X12083921Y-10461531D02*
X12093444Y-10452008D01*
X12093444Y-10452008D02*
X12112492Y-10442484D01*
X12264873Y-10623436D02*
X12274397Y-10632960D01*
X12274397Y-10632960D02*
X12264873Y-10642484D01*
X12264873Y-10642484D02*
X12255349Y-10632960D01*
X12255349Y-10632960D02*
X12264873Y-10623436D01*
X12264873Y-10623436D02*
X12264873Y-10642484D01*
X12445825Y-10509150D02*
X12445825Y-10642484D01*
X12398206Y-10432960D02*
X12350587Y-10575817D01*
X12350587Y-10575817D02*
X12474397Y-10575817D01*
X12588682Y-10442484D02*
X12607730Y-10442484D01*
X12607730Y-10442484D02*
X12626778Y-10452008D01*
X12626778Y-10452008D02*
X12636302Y-10461531D01*
X12636302Y-10461531D02*
X12645825Y-10480579D01*
X12645825Y-10480579D02*
X12655349Y-10518674D01*
X12655349Y-10518674D02*
X12655349Y-10566293D01*
X12655349Y-10566293D02*
X12645825Y-10604389D01*
X12645825Y-10604389D02*
X12636302Y-10623436D01*
X12636302Y-10623436D02*
X12626778Y-10632960D01*
X12626778Y-10632960D02*
X12607730Y-10642484D01*
X12607730Y-10642484D02*
X12588682Y-10642484D01*
X12588682Y-10642484D02*
X12569635Y-10632960D01*
X12569635Y-10632960D02*
X12560111Y-10623436D01*
X12560111Y-10623436D02*
X12550587Y-10604389D01*
X12550587Y-10604389D02*
X12541063Y-10566293D01*
X12541063Y-10566293D02*
X12541063Y-10518674D01*
X12541063Y-10518674D02*
X12550587Y-10480579D01*
X12550587Y-10480579D02*
X12560111Y-10461531D01*
X12560111Y-10461531D02*
X12569635Y-10452008D01*
X12569635Y-10452008D02*
X12588682Y-10442484D01*
X12779159Y-10442484D02*
X12798206Y-10442484D01*
X12798206Y-10442484D02*
X12817254Y-10452008D01*
X12817254Y-10452008D02*
X12826778Y-10461531D01*
X12826778Y-10461531D02*
X12836302Y-10480579D01*
X12836302Y-10480579D02*
X12845825Y-10518674D01*
X12845825Y-10518674D02*
X12845825Y-10566293D01*
X12845825Y-10566293D02*
X12836302Y-10604389D01*
X12836302Y-10604389D02*
X12826778Y-10623436D01*
X12826778Y-10623436D02*
X12817254Y-10632960D01*
X12817254Y-10632960D02*
X12798206Y-10642484D01*
X12798206Y-10642484D02*
X12779159Y-10642484D01*
X12779159Y-10642484D02*
X12760111Y-10632960D01*
X12760111Y-10632960D02*
X12750587Y-10623436D01*
X12750587Y-10623436D02*
X12741063Y-10604389D01*
X12741063Y-10604389D02*
X12731540Y-10566293D01*
X12731540Y-10566293D02*
X12731540Y-10518674D01*
X12731540Y-10518674D02*
X12741063Y-10480579D01*
X12741063Y-10480579D02*
X12750587Y-10461531D01*
X12750587Y-10461531D02*
X12760111Y-10452008D01*
X12760111Y-10452008D02*
X12779159Y-10442484D01*
X12931540Y-10642484D02*
X12931540Y-10509150D01*
X12931540Y-10528198D02*
X12941063Y-10518674D01*
X12941063Y-10518674D02*
X12960111Y-10509150D01*
X12960111Y-10509150D02*
X12988683Y-10509150D01*
X12988683Y-10509150D02*
X13007730Y-10518674D01*
X13007730Y-10518674D02*
X13017254Y-10537722D01*
X13017254Y-10537722D02*
X13017254Y-10642484D01*
X13017254Y-10537722D02*
X13026778Y-10518674D01*
X13026778Y-10518674D02*
X13045825Y-10509150D01*
X13045825Y-10509150D02*
X13074397Y-10509150D01*
X13074397Y-10509150D02*
X13093444Y-10518674D01*
X13093444Y-10518674D02*
X13102968Y-10537722D01*
X13102968Y-10537722D02*
X13102968Y-10642484D01*
X13198206Y-10642484D02*
X13198206Y-10509150D01*
X13198206Y-10528198D02*
X13207730Y-10518674D01*
X13207730Y-10518674D02*
X13226778Y-10509150D01*
X13226778Y-10509150D02*
X13255349Y-10509150D01*
X13255349Y-10509150D02*
X13274397Y-10518674D01*
X13274397Y-10518674D02*
X13283921Y-10537722D01*
X13283921Y-10537722D02*
X13283921Y-10642484D01*
X13283921Y-10537722D02*
X13293444Y-10518674D01*
X13293444Y-10518674D02*
X13312492Y-10509150D01*
X13312492Y-10509150D02*
X13341063Y-10509150D01*
X13341063Y-10509150D02*
X13360111Y-10518674D01*
X13360111Y-10518674D02*
X13369635Y-10537722D01*
X13369635Y-10537722D02*
X13369635Y-10642484D01*
X13760111Y-10432960D02*
X13588683Y-10690103D01*
X14017254Y-10442484D02*
X14036302Y-10442484D01*
X14036302Y-10442484D02*
X14055349Y-10452008D01*
X14055349Y-10452008D02*
X14064873Y-10461531D01*
X14064873Y-10461531D02*
X14074397Y-10480579D01*
X14074397Y-10480579D02*
X14083921Y-10518674D01*
X14083921Y-10518674D02*
X14083921Y-10566293D01*
X14083921Y-10566293D02*
X14074397Y-10604389D01*
X14074397Y-10604389D02*
X14064873Y-10623436D01*
X14064873Y-10623436D02*
X14055349Y-10632960D01*
X14055349Y-10632960D02*
X14036302Y-10642484D01*
X14036302Y-10642484D02*
X14017254Y-10642484D01*
X14017254Y-10642484D02*
X13998206Y-10632960D01*
X13998206Y-10632960D02*
X13988683Y-10623436D01*
X13988683Y-10623436D02*
X13979159Y-10604389D01*
X13979159Y-10604389D02*
X13969635Y-10566293D01*
X13969635Y-10566293D02*
X13969635Y-10518674D01*
X13969635Y-10518674D02*
X13979159Y-10480579D01*
X13979159Y-10480579D02*
X13988683Y-10461531D01*
X13988683Y-10461531D02*
X13998206Y-10452008D01*
X13998206Y-10452008D02*
X14017254Y-10442484D01*
X14169635Y-10623436D02*
X14179159Y-10632960D01*
X14179159Y-10632960D02*
X14169635Y-10642484D01*
X14169635Y-10642484D02*
X14160111Y-10632960D01*
X14160111Y-10632960D02*
X14169635Y-10623436D01*
X14169635Y-10623436D02*
X14169635Y-10642484D01*
X14302968Y-10442484D02*
X14322016Y-10442484D01*
X14322016Y-10442484D02*
X14341064Y-10452008D01*
X14341064Y-10452008D02*
X14350587Y-10461531D01*
X14350587Y-10461531D02*
X14360111Y-10480579D01*
X14360111Y-10480579D02*
X14369635Y-10518674D01*
X14369635Y-10518674D02*
X14369635Y-10566293D01*
X14369635Y-10566293D02*
X14360111Y-10604389D01*
X14360111Y-10604389D02*
X14350587Y-10623436D01*
X14350587Y-10623436D02*
X14341064Y-10632960D01*
X14341064Y-10632960D02*
X14322016Y-10642484D01*
X14322016Y-10642484D02*
X14302968Y-10642484D01*
X14302968Y-10642484D02*
X14283921Y-10632960D01*
X14283921Y-10632960D02*
X14274397Y-10623436D01*
X14274397Y-10623436D02*
X14264873Y-10604389D01*
X14264873Y-10604389D02*
X14255349Y-10566293D01*
X14255349Y-10566293D02*
X14255349Y-10518674D01*
X14255349Y-10518674D02*
X14264873Y-10480579D01*
X14264873Y-10480579D02*
X14274397Y-10461531D01*
X14274397Y-10461531D02*
X14283921Y-10452008D01*
X14283921Y-10452008D02*
X14302968Y-10442484D01*
X14560111Y-10642484D02*
X14445826Y-10642484D01*
X14502968Y-10642484D02*
X14502968Y-10442484D01*
X14502968Y-10442484D02*
X14483921Y-10471055D01*
X14483921Y-10471055D02*
X14464873Y-10490103D01*
X14464873Y-10490103D02*
X14445826Y-10499627D01*
X14741064Y-10442484D02*
X14645826Y-10442484D01*
X14645826Y-10442484D02*
X14636302Y-10537722D01*
X14636302Y-10537722D02*
X14645826Y-10528198D01*
X14645826Y-10528198D02*
X14664873Y-10518674D01*
X14664873Y-10518674D02*
X14712492Y-10518674D01*
X14712492Y-10518674D02*
X14731540Y-10528198D01*
X14731540Y-10528198D02*
X14741064Y-10537722D01*
X14741064Y-10537722D02*
X14750587Y-10556770D01*
X14750587Y-10556770D02*
X14750587Y-10604389D01*
X14750587Y-10604389D02*
X14741064Y-10623436D01*
X14741064Y-10623436D02*
X14731540Y-10632960D01*
X14731540Y-10632960D02*
X14712492Y-10642484D01*
X14712492Y-10642484D02*
X14664873Y-10642484D01*
X14664873Y-10642484D02*
X14645826Y-10632960D01*
X14645826Y-10632960D02*
X14636302Y-10623436D01*
X14817254Y-10442484D02*
X14950587Y-10442484D01*
X14950587Y-10442484D02*
X14864873Y-10642484D01*
X15017254Y-10442484D02*
X15017254Y-10480579D01*
X15093445Y-10442484D02*
X15093445Y-10480579D01*
X15388683Y-10718674D02*
X15379159Y-10709150D01*
X15379159Y-10709150D02*
X15360111Y-10680579D01*
X15360111Y-10680579D02*
X15350588Y-10661531D01*
X15350588Y-10661531D02*
X15341064Y-10632960D01*
X15341064Y-10632960D02*
X15331540Y-10585341D01*
X15331540Y-10585341D02*
X15331540Y-10547246D01*
X15331540Y-10547246D02*
X15341064Y-10499627D01*
X15341064Y-10499627D02*
X15350588Y-10471055D01*
X15350588Y-10471055D02*
X15360111Y-10452008D01*
X15360111Y-10452008D02*
X15379159Y-10423436D01*
X15379159Y-10423436D02*
X15388683Y-10413912D01*
X15569635Y-10642484D02*
X15455349Y-10642484D01*
X15512492Y-10642484D02*
X15512492Y-10442484D01*
X15512492Y-10442484D02*
X15493445Y-10471055D01*
X15493445Y-10471055D02*
X15474397Y-10490103D01*
X15474397Y-10490103D02*
X15455349Y-10499627D01*
X15645826Y-10461531D02*
X15655349Y-10452008D01*
X15655349Y-10452008D02*
X15674397Y-10442484D01*
X15674397Y-10442484D02*
X15722016Y-10442484D01*
X15722016Y-10442484D02*
X15741064Y-10452008D01*
X15741064Y-10452008D02*
X15750588Y-10461531D01*
X15750588Y-10461531D02*
X15760111Y-10480579D01*
X15760111Y-10480579D02*
X15760111Y-10499627D01*
X15760111Y-10499627D02*
X15750588Y-10528198D01*
X15750588Y-10528198D02*
X15636302Y-10642484D01*
X15636302Y-10642484D02*
X15760111Y-10642484D01*
X15998207Y-10642484D02*
X15998207Y-10442484D01*
X16083921Y-10642484D02*
X16083921Y-10537722D01*
X16083921Y-10537722D02*
X16074397Y-10518674D01*
X16074397Y-10518674D02*
X16055350Y-10509150D01*
X16055350Y-10509150D02*
X16026778Y-10509150D01*
X16026778Y-10509150D02*
X16007730Y-10518674D01*
X16007730Y-10518674D02*
X15998207Y-10528198D01*
X16207730Y-10642484D02*
X16188683Y-10632960D01*
X16188683Y-10632960D02*
X16179159Y-10623436D01*
X16179159Y-10623436D02*
X16169635Y-10604389D01*
X16169635Y-10604389D02*
X16169635Y-10547246D01*
X16169635Y-10547246D02*
X16179159Y-10528198D01*
X16179159Y-10528198D02*
X16188683Y-10518674D01*
X16188683Y-10518674D02*
X16207730Y-10509150D01*
X16207730Y-10509150D02*
X16236302Y-10509150D01*
X16236302Y-10509150D02*
X16255350Y-10518674D01*
X16255350Y-10518674D02*
X16264873Y-10528198D01*
X16264873Y-10528198D02*
X16274397Y-10547246D01*
X16274397Y-10547246D02*
X16274397Y-10604389D01*
X16274397Y-10604389D02*
X16264873Y-10623436D01*
X16264873Y-10623436D02*
X16255350Y-10632960D01*
X16255350Y-10632960D02*
X16236302Y-10642484D01*
X16236302Y-10642484D02*
X16207730Y-10642484D01*
X16388683Y-10642484D02*
X16369635Y-10632960D01*
X16369635Y-10632960D02*
X16360111Y-10613912D01*
X16360111Y-10613912D02*
X16360111Y-10442484D01*
X16541064Y-10632960D02*
X16522016Y-10642484D01*
X16522016Y-10642484D02*
X16483921Y-10642484D01*
X16483921Y-10642484D02*
X16464873Y-10632960D01*
X16464873Y-10632960D02*
X16455350Y-10613912D01*
X16455350Y-10613912D02*
X16455350Y-10537722D01*
X16455350Y-10537722D02*
X16464873Y-10518674D01*
X16464873Y-10518674D02*
X16483921Y-10509150D01*
X16483921Y-10509150D02*
X16522016Y-10509150D01*
X16522016Y-10509150D02*
X16541064Y-10518674D01*
X16541064Y-10518674D02*
X16550588Y-10537722D01*
X16550588Y-10537722D02*
X16550588Y-10556770D01*
X16550588Y-10556770D02*
X16455350Y-10575817D01*
X16626778Y-10632960D02*
X16645826Y-10642484D01*
X16645826Y-10642484D02*
X16683921Y-10642484D01*
X16683921Y-10642484D02*
X16702969Y-10632960D01*
X16702969Y-10632960D02*
X16712492Y-10613912D01*
X16712492Y-10613912D02*
X16712492Y-10604389D01*
X16712492Y-10604389D02*
X16702969Y-10585341D01*
X16702969Y-10585341D02*
X16683921Y-10575817D01*
X16683921Y-10575817D02*
X16655350Y-10575817D01*
X16655350Y-10575817D02*
X16636302Y-10566293D01*
X16636302Y-10566293D02*
X16626778Y-10547246D01*
X16626778Y-10547246D02*
X16626778Y-10537722D01*
X16626778Y-10537722D02*
X16636302Y-10518674D01*
X16636302Y-10518674D02*
X16655350Y-10509150D01*
X16655350Y-10509150D02*
X16683921Y-10509150D01*
X16683921Y-10509150D02*
X16702969Y-10518674D01*
X16779159Y-10718674D02*
X16788683Y-10709150D01*
X16788683Y-10709150D02*
X16807731Y-10680579D01*
X16807731Y-10680579D02*
X16817254Y-10661531D01*
X16817254Y-10661531D02*
X16826778Y-10632960D01*
X16826778Y-10632960D02*
X16836302Y-10585341D01*
X16836302Y-10585341D02*
X16836302Y-10547246D01*
X16836302Y-10547246D02*
X16826778Y-10499627D01*
X16826778Y-10499627D02*
X16817254Y-10471055D01*
X16817254Y-10471055D02*
X16807731Y-10452008D01*
X16807731Y-10452008D02*
X16788683Y-10423436D01*
X16788683Y-10423436D02*
X16779159Y-10413912D01*
D10*
X11813620Y-10815000D02*
G75*
G02*
X11763620Y-10815000I-25000J0D01*
G01*
X11763620Y-10815000D02*
G75*
G02*
X11813620Y-10815000I25000J0D01*
G01*
D11*
X12112492Y-10706484D02*
X12131540Y-10706484D01*
X12131540Y-10706484D02*
X12150587Y-10716008D01*
X12150587Y-10716008D02*
X12160111Y-10725531D01*
X12160111Y-10725531D02*
X12169635Y-10744579D01*
X12169635Y-10744579D02*
X12179159Y-10782674D01*
X12179159Y-10782674D02*
X12179159Y-10830293D01*
X12179159Y-10830293D02*
X12169635Y-10868389D01*
X12169635Y-10868389D02*
X12160111Y-10887436D01*
X12160111Y-10887436D02*
X12150587Y-10896960D01*
X12150587Y-10896960D02*
X12131540Y-10906484D01*
X12131540Y-10906484D02*
X12112492Y-10906484D01*
X12112492Y-10906484D02*
X12093444Y-10896960D01*
X12093444Y-10896960D02*
X12083921Y-10887436D01*
X12083921Y-10887436D02*
X12074397Y-10868389D01*
X12074397Y-10868389D02*
X12064873Y-10830293D01*
X12064873Y-10830293D02*
X12064873Y-10782674D01*
X12064873Y-10782674D02*
X12074397Y-10744579D01*
X12074397Y-10744579D02*
X12083921Y-10725531D01*
X12083921Y-10725531D02*
X12093444Y-10716008D01*
X12093444Y-10716008D02*
X12112492Y-10706484D01*
X12264873Y-10887436D02*
X12274397Y-10896960D01*
X12274397Y-10896960D02*
X12264873Y-10906484D01*
X12264873Y-10906484D02*
X12255349Y-10896960D01*
X12255349Y-10896960D02*
X12264873Y-10887436D01*
X12264873Y-10887436D02*
X12264873Y-10906484D01*
X12455349Y-10706484D02*
X12360111Y-10706484D01*
X12360111Y-10706484D02*
X12350587Y-10801722D01*
X12350587Y-10801722D02*
X12360111Y-10792198D01*
X12360111Y-10792198D02*
X12379159Y-10782674D01*
X12379159Y-10782674D02*
X12426778Y-10782674D01*
X12426778Y-10782674D02*
X12445825Y-10792198D01*
X12445825Y-10792198D02*
X12455349Y-10801722D01*
X12455349Y-10801722D02*
X12464873Y-10820770D01*
X12464873Y-10820770D02*
X12464873Y-10868389D01*
X12464873Y-10868389D02*
X12455349Y-10887436D01*
X12455349Y-10887436D02*
X12445825Y-10896960D01*
X12445825Y-10896960D02*
X12426778Y-10906484D01*
X12426778Y-10906484D02*
X12379159Y-10906484D01*
X12379159Y-10906484D02*
X12360111Y-10896960D01*
X12360111Y-10896960D02*
X12350587Y-10887436D01*
X12588682Y-10706484D02*
X12607730Y-10706484D01*
X12607730Y-10706484D02*
X12626778Y-10716008D01*
X12626778Y-10716008D02*
X12636302Y-10725531D01*
X12636302Y-10725531D02*
X12645825Y-10744579D01*
X12645825Y-10744579D02*
X12655349Y-10782674D01*
X12655349Y-10782674D02*
X12655349Y-10830293D01*
X12655349Y-10830293D02*
X12645825Y-10868389D01*
X12645825Y-10868389D02*
X12636302Y-10887436D01*
X12636302Y-10887436D02*
X12626778Y-10896960D01*
X12626778Y-10896960D02*
X12607730Y-10906484D01*
X12607730Y-10906484D02*
X12588682Y-10906484D01*
X12588682Y-10906484D02*
X12569635Y-10896960D01*
X12569635Y-10896960D02*
X12560111Y-10887436D01*
X12560111Y-10887436D02*
X12550587Y-10868389D01*
X12550587Y-10868389D02*
X12541063Y-10830293D01*
X12541063Y-10830293D02*
X12541063Y-10782674D01*
X12541063Y-10782674D02*
X12550587Y-10744579D01*
X12550587Y-10744579D02*
X12560111Y-10725531D01*
X12560111Y-10725531D02*
X12569635Y-10716008D01*
X12569635Y-10716008D02*
X12588682Y-10706484D01*
X12779159Y-10706484D02*
X12798206Y-10706484D01*
X12798206Y-10706484D02*
X12817254Y-10716008D01*
X12817254Y-10716008D02*
X12826778Y-10725531D01*
X12826778Y-10725531D02*
X12836302Y-10744579D01*
X12836302Y-10744579D02*
X12845825Y-10782674D01*
X12845825Y-10782674D02*
X12845825Y-10830293D01*
X12845825Y-10830293D02*
X12836302Y-10868389D01*
X12836302Y-10868389D02*
X12826778Y-10887436D01*
X12826778Y-10887436D02*
X12817254Y-10896960D01*
X12817254Y-10896960D02*
X12798206Y-10906484D01*
X12798206Y-10906484D02*
X12779159Y-10906484D01*
X12779159Y-10906484D02*
X12760111Y-10896960D01*
X12760111Y-10896960D02*
X12750587Y-10887436D01*
X12750587Y-10887436D02*
X12741063Y-10868389D01*
X12741063Y-10868389D02*
X12731540Y-10830293D01*
X12731540Y-10830293D02*
X12731540Y-10782674D01*
X12731540Y-10782674D02*
X12741063Y-10744579D01*
X12741063Y-10744579D02*
X12750587Y-10725531D01*
X12750587Y-10725531D02*
X12760111Y-10716008D01*
X12760111Y-10716008D02*
X12779159Y-10706484D01*
X12931540Y-10906484D02*
X12931540Y-10773150D01*
X12931540Y-10792198D02*
X12941063Y-10782674D01*
X12941063Y-10782674D02*
X12960111Y-10773150D01*
X12960111Y-10773150D02*
X12988683Y-10773150D01*
X12988683Y-10773150D02*
X13007730Y-10782674D01*
X13007730Y-10782674D02*
X13017254Y-10801722D01*
X13017254Y-10801722D02*
X13017254Y-10906484D01*
X13017254Y-10801722D02*
X13026778Y-10782674D01*
X13026778Y-10782674D02*
X13045825Y-10773150D01*
X13045825Y-10773150D02*
X13074397Y-10773150D01*
X13074397Y-10773150D02*
X13093444Y-10782674D01*
X13093444Y-10782674D02*
X13102968Y-10801722D01*
X13102968Y-10801722D02*
X13102968Y-10906484D01*
X13198206Y-10906484D02*
X13198206Y-10773150D01*
X13198206Y-10792198D02*
X13207730Y-10782674D01*
X13207730Y-10782674D02*
X13226778Y-10773150D01*
X13226778Y-10773150D02*
X13255349Y-10773150D01*
X13255349Y-10773150D02*
X13274397Y-10782674D01*
X13274397Y-10782674D02*
X13283921Y-10801722D01*
X13283921Y-10801722D02*
X13283921Y-10906484D01*
X13283921Y-10801722D02*
X13293444Y-10782674D01*
X13293444Y-10782674D02*
X13312492Y-10773150D01*
X13312492Y-10773150D02*
X13341063Y-10773150D01*
X13341063Y-10773150D02*
X13360111Y-10782674D01*
X13360111Y-10782674D02*
X13369635Y-10801722D01*
X13369635Y-10801722D02*
X13369635Y-10906484D01*
X13760111Y-10696960D02*
X13588683Y-10954103D01*
X14017254Y-10706484D02*
X14036302Y-10706484D01*
X14036302Y-10706484D02*
X14055349Y-10716008D01*
X14055349Y-10716008D02*
X14064873Y-10725531D01*
X14064873Y-10725531D02*
X14074397Y-10744579D01*
X14074397Y-10744579D02*
X14083921Y-10782674D01*
X14083921Y-10782674D02*
X14083921Y-10830293D01*
X14083921Y-10830293D02*
X14074397Y-10868389D01*
X14074397Y-10868389D02*
X14064873Y-10887436D01*
X14064873Y-10887436D02*
X14055349Y-10896960D01*
X14055349Y-10896960D02*
X14036302Y-10906484D01*
X14036302Y-10906484D02*
X14017254Y-10906484D01*
X14017254Y-10906484D02*
X13998206Y-10896960D01*
X13998206Y-10896960D02*
X13988683Y-10887436D01*
X13988683Y-10887436D02*
X13979159Y-10868389D01*
X13979159Y-10868389D02*
X13969635Y-10830293D01*
X13969635Y-10830293D02*
X13969635Y-10782674D01*
X13969635Y-10782674D02*
X13979159Y-10744579D01*
X13979159Y-10744579D02*
X13988683Y-10725531D01*
X13988683Y-10725531D02*
X13998206Y-10716008D01*
X13998206Y-10716008D02*
X14017254Y-10706484D01*
X14169635Y-10887436D02*
X14179159Y-10896960D01*
X14179159Y-10896960D02*
X14169635Y-10906484D01*
X14169635Y-10906484D02*
X14160111Y-10896960D01*
X14160111Y-10896960D02*
X14169635Y-10887436D01*
X14169635Y-10887436D02*
X14169635Y-10906484D01*
X14302968Y-10706484D02*
X14322016Y-10706484D01*
X14322016Y-10706484D02*
X14341064Y-10716008D01*
X14341064Y-10716008D02*
X14350587Y-10725531D01*
X14350587Y-10725531D02*
X14360111Y-10744579D01*
X14360111Y-10744579D02*
X14369635Y-10782674D01*
X14369635Y-10782674D02*
X14369635Y-10830293D01*
X14369635Y-10830293D02*
X14360111Y-10868389D01*
X14360111Y-10868389D02*
X14350587Y-10887436D01*
X14350587Y-10887436D02*
X14341064Y-10896960D01*
X14341064Y-10896960D02*
X14322016Y-10906484D01*
X14322016Y-10906484D02*
X14302968Y-10906484D01*
X14302968Y-10906484D02*
X14283921Y-10896960D01*
X14283921Y-10896960D02*
X14274397Y-10887436D01*
X14274397Y-10887436D02*
X14264873Y-10868389D01*
X14264873Y-10868389D02*
X14255349Y-10830293D01*
X14255349Y-10830293D02*
X14255349Y-10782674D01*
X14255349Y-10782674D02*
X14264873Y-10744579D01*
X14264873Y-10744579D02*
X14274397Y-10725531D01*
X14274397Y-10725531D02*
X14283921Y-10716008D01*
X14283921Y-10716008D02*
X14302968Y-10706484D01*
X14560111Y-10906484D02*
X14445826Y-10906484D01*
X14502968Y-10906484D02*
X14502968Y-10706484D01*
X14502968Y-10706484D02*
X14483921Y-10735055D01*
X14483921Y-10735055D02*
X14464873Y-10754103D01*
X14464873Y-10754103D02*
X14445826Y-10763627D01*
X14655349Y-10906484D02*
X14693445Y-10906484D01*
X14693445Y-10906484D02*
X14712492Y-10896960D01*
X14712492Y-10896960D02*
X14722016Y-10887436D01*
X14722016Y-10887436D02*
X14741064Y-10858865D01*
X14741064Y-10858865D02*
X14750587Y-10820770D01*
X14750587Y-10820770D02*
X14750587Y-10744579D01*
X14750587Y-10744579D02*
X14741064Y-10725531D01*
X14741064Y-10725531D02*
X14731540Y-10716008D01*
X14731540Y-10716008D02*
X14712492Y-10706484D01*
X14712492Y-10706484D02*
X14674397Y-10706484D01*
X14674397Y-10706484D02*
X14655349Y-10716008D01*
X14655349Y-10716008D02*
X14645826Y-10725531D01*
X14645826Y-10725531D02*
X14636302Y-10744579D01*
X14636302Y-10744579D02*
X14636302Y-10792198D01*
X14636302Y-10792198D02*
X14645826Y-10811246D01*
X14645826Y-10811246D02*
X14655349Y-10820770D01*
X14655349Y-10820770D02*
X14674397Y-10830293D01*
X14674397Y-10830293D02*
X14712492Y-10830293D01*
X14712492Y-10830293D02*
X14731540Y-10820770D01*
X14731540Y-10820770D02*
X14741064Y-10811246D01*
X14741064Y-10811246D02*
X14750587Y-10792198D01*
X14817254Y-10706484D02*
X14950587Y-10706484D01*
X14950587Y-10706484D02*
X14864873Y-10906484D01*
X15017254Y-10706484D02*
X15017254Y-10744579D01*
X15093445Y-10706484D02*
X15093445Y-10744579D01*
X15388683Y-10982674D02*
X15379159Y-10973150D01*
X15379159Y-10973150D02*
X15360111Y-10944579D01*
X15360111Y-10944579D02*
X15350588Y-10925531D01*
X15350588Y-10925531D02*
X15341064Y-10896960D01*
X15341064Y-10896960D02*
X15331540Y-10849341D01*
X15331540Y-10849341D02*
X15331540Y-10811246D01*
X15331540Y-10811246D02*
X15341064Y-10763627D01*
X15341064Y-10763627D02*
X15350588Y-10735055D01*
X15350588Y-10735055D02*
X15360111Y-10716008D01*
X15360111Y-10716008D02*
X15379159Y-10687436D01*
X15379159Y-10687436D02*
X15388683Y-10677912D01*
X15502968Y-10706484D02*
X15522016Y-10706484D01*
X15522016Y-10706484D02*
X15541064Y-10716008D01*
X15541064Y-10716008D02*
X15550588Y-10725531D01*
X15550588Y-10725531D02*
X15560111Y-10744579D01*
X15560111Y-10744579D02*
X15569635Y-10782674D01*
X15569635Y-10782674D02*
X15569635Y-10830293D01*
X15569635Y-10830293D02*
X15560111Y-10868389D01*
X15560111Y-10868389D02*
X15550588Y-10887436D01*
X15550588Y-10887436D02*
X15541064Y-10896960D01*
X15541064Y-10896960D02*
X15522016Y-10906484D01*
X15522016Y-10906484D02*
X15502968Y-10906484D01*
X15502968Y-10906484D02*
X15483921Y-10896960D01*
X15483921Y-10896960D02*
X15474397Y-10887436D01*
X15474397Y-10887436D02*
X15464873Y-10868389D01*
X15464873Y-10868389D02*
X15455349Y-10830293D01*
X15455349Y-10830293D02*
X15455349Y-10782674D01*
X15455349Y-10782674D02*
X15464873Y-10744579D01*
X15464873Y-10744579D02*
X15474397Y-10725531D01*
X15474397Y-10725531D02*
X15483921Y-10716008D01*
X15483921Y-10716008D02*
X15502968Y-10706484D01*
X15807730Y-10906484D02*
X15807730Y-10706484D01*
X15893445Y-10906484D02*
X15893445Y-10801722D01*
X15893445Y-10801722D02*
X15883921Y-10782674D01*
X15883921Y-10782674D02*
X15864873Y-10773150D01*
X15864873Y-10773150D02*
X15836302Y-10773150D01*
X15836302Y-10773150D02*
X15817254Y-10782674D01*
X15817254Y-10782674D02*
X15807730Y-10792198D01*
X16017254Y-10906484D02*
X15998207Y-10896960D01*
X15998207Y-10896960D02*
X15988683Y-10887436D01*
X15988683Y-10887436D02*
X15979159Y-10868389D01*
X15979159Y-10868389D02*
X15979159Y-10811246D01*
X15979159Y-10811246D02*
X15988683Y-10792198D01*
X15988683Y-10792198D02*
X15998207Y-10782674D01*
X15998207Y-10782674D02*
X16017254Y-10773150D01*
X16017254Y-10773150D02*
X16045826Y-10773150D01*
X16045826Y-10773150D02*
X16064873Y-10782674D01*
X16064873Y-10782674D02*
X16074397Y-10792198D01*
X16074397Y-10792198D02*
X16083921Y-10811246D01*
X16083921Y-10811246D02*
X16083921Y-10868389D01*
X16083921Y-10868389D02*
X16074397Y-10887436D01*
X16074397Y-10887436D02*
X16064873Y-10896960D01*
X16064873Y-10896960D02*
X16045826Y-10906484D01*
X16045826Y-10906484D02*
X16017254Y-10906484D01*
X16198207Y-10906484D02*
X16179159Y-10896960D01*
X16179159Y-10896960D02*
X16169635Y-10877912D01*
X16169635Y-10877912D02*
X16169635Y-10706484D01*
X16350588Y-10896960D02*
X16331540Y-10906484D01*
X16331540Y-10906484D02*
X16293445Y-10906484D01*
X16293445Y-10906484D02*
X16274397Y-10896960D01*
X16274397Y-10896960D02*
X16264873Y-10877912D01*
X16264873Y-10877912D02*
X16264873Y-10801722D01*
X16264873Y-10801722D02*
X16274397Y-10782674D01*
X16274397Y-10782674D02*
X16293445Y-10773150D01*
X16293445Y-10773150D02*
X16331540Y-10773150D01*
X16331540Y-10773150D02*
X16350588Y-10782674D01*
X16350588Y-10782674D02*
X16360111Y-10801722D01*
X16360111Y-10801722D02*
X16360111Y-10820770D01*
X16360111Y-10820770D02*
X16264873Y-10839817D01*
X16436302Y-10896960D02*
X16455350Y-10906484D01*
X16455350Y-10906484D02*
X16493445Y-10906484D01*
X16493445Y-10906484D02*
X16512492Y-10896960D01*
X16512492Y-10896960D02*
X16522016Y-10877912D01*
X16522016Y-10877912D02*
X16522016Y-10868389D01*
X16522016Y-10868389D02*
X16512492Y-10849341D01*
X16512492Y-10849341D02*
X16493445Y-10839817D01*
X16493445Y-10839817D02*
X16464873Y-10839817D01*
X16464873Y-10839817D02*
X16445826Y-10830293D01*
X16445826Y-10830293D02*
X16436302Y-10811246D01*
X16436302Y-10811246D02*
X16436302Y-10801722D01*
X16436302Y-10801722D02*
X16445826Y-10782674D01*
X16445826Y-10782674D02*
X16464873Y-10773150D01*
X16464873Y-10773150D02*
X16493445Y-10773150D01*
X16493445Y-10773150D02*
X16512492Y-10782674D01*
X16760112Y-10830293D02*
X16912493Y-10830293D01*
X16836302Y-10906484D02*
X16836302Y-10754103D01*
X17245826Y-10706484D02*
X17207731Y-10706484D01*
X17207731Y-10706484D02*
X17188683Y-10716008D01*
X17188683Y-10716008D02*
X17179159Y-10725531D01*
X17179159Y-10725531D02*
X17160112Y-10754103D01*
X17160112Y-10754103D02*
X17150588Y-10792198D01*
X17150588Y-10792198D02*
X17150588Y-10868389D01*
X17150588Y-10868389D02*
X17160112Y-10887436D01*
X17160112Y-10887436D02*
X17169635Y-10896960D01*
X17169635Y-10896960D02*
X17188683Y-10906484D01*
X17188683Y-10906484D02*
X17226778Y-10906484D01*
X17226778Y-10906484D02*
X17245826Y-10896960D01*
X17245826Y-10896960D02*
X17255350Y-10887436D01*
X17255350Y-10887436D02*
X17264874Y-10868389D01*
X17264874Y-10868389D02*
X17264874Y-10820770D01*
X17264874Y-10820770D02*
X17255350Y-10801722D01*
X17255350Y-10801722D02*
X17245826Y-10792198D01*
X17245826Y-10792198D02*
X17226778Y-10782674D01*
X17226778Y-10782674D02*
X17188683Y-10782674D01*
X17188683Y-10782674D02*
X17169635Y-10792198D01*
X17169635Y-10792198D02*
X17160112Y-10801722D01*
X17160112Y-10801722D02*
X17150588Y-10820770D01*
X17493445Y-10896960D02*
X17512493Y-10906484D01*
X17512493Y-10906484D02*
X17550588Y-10906484D01*
X17550588Y-10906484D02*
X17569636Y-10896960D01*
X17569636Y-10896960D02*
X17579159Y-10877912D01*
X17579159Y-10877912D02*
X17579159Y-10868389D01*
X17579159Y-10868389D02*
X17569636Y-10849341D01*
X17569636Y-10849341D02*
X17550588Y-10839817D01*
X17550588Y-10839817D02*
X17522016Y-10839817D01*
X17522016Y-10839817D02*
X17502969Y-10830293D01*
X17502969Y-10830293D02*
X17493445Y-10811246D01*
X17493445Y-10811246D02*
X17493445Y-10801722D01*
X17493445Y-10801722D02*
X17502969Y-10782674D01*
X17502969Y-10782674D02*
X17522016Y-10773150D01*
X17522016Y-10773150D02*
X17550588Y-10773150D01*
X17550588Y-10773150D02*
X17569636Y-10782674D01*
X17693445Y-10906484D02*
X17674397Y-10896960D01*
X17674397Y-10896960D02*
X17664874Y-10877912D01*
X17664874Y-10877912D02*
X17664874Y-10706484D01*
X17798207Y-10906484D02*
X17779159Y-10896960D01*
X17779159Y-10896960D02*
X17769636Y-10887436D01*
X17769636Y-10887436D02*
X17760112Y-10868389D01*
X17760112Y-10868389D02*
X17760112Y-10811246D01*
X17760112Y-10811246D02*
X17769636Y-10792198D01*
X17769636Y-10792198D02*
X17779159Y-10782674D01*
X17779159Y-10782674D02*
X17798207Y-10773150D01*
X17798207Y-10773150D02*
X17826778Y-10773150D01*
X17826778Y-10773150D02*
X17845826Y-10782674D01*
X17845826Y-10782674D02*
X17855350Y-10792198D01*
X17855350Y-10792198D02*
X17864874Y-10811246D01*
X17864874Y-10811246D02*
X17864874Y-10868389D01*
X17864874Y-10868389D02*
X17855350Y-10887436D01*
X17855350Y-10887436D02*
X17845826Y-10896960D01*
X17845826Y-10896960D02*
X17826778Y-10906484D01*
X17826778Y-10906484D02*
X17798207Y-10906484D01*
X17922017Y-10773150D02*
X17998207Y-10773150D01*
X17950588Y-10706484D02*
X17950588Y-10877912D01*
X17950588Y-10877912D02*
X17960112Y-10896960D01*
X17960112Y-10896960D02*
X17979159Y-10906484D01*
X17979159Y-10906484D02*
X17998207Y-10906484D01*
X18055350Y-10896960D02*
X18074397Y-10906484D01*
X18074397Y-10906484D02*
X18112493Y-10906484D01*
X18112493Y-10906484D02*
X18131540Y-10896960D01*
X18131540Y-10896960D02*
X18141064Y-10877912D01*
X18141064Y-10877912D02*
X18141064Y-10868389D01*
X18141064Y-10868389D02*
X18131540Y-10849341D01*
X18131540Y-10849341D02*
X18112493Y-10839817D01*
X18112493Y-10839817D02*
X18083921Y-10839817D01*
X18083921Y-10839817D02*
X18064874Y-10830293D01*
X18064874Y-10830293D02*
X18055350Y-10811246D01*
X18055350Y-10811246D02*
X18055350Y-10801722D01*
X18055350Y-10801722D02*
X18064874Y-10782674D01*
X18064874Y-10782674D02*
X18083921Y-10773150D01*
X18083921Y-10773150D02*
X18112493Y-10773150D01*
X18112493Y-10773150D02*
X18131540Y-10782674D01*
X18207731Y-10982674D02*
X18217255Y-10973150D01*
X18217255Y-10973150D02*
X18236302Y-10944579D01*
X18236302Y-10944579D02*
X18245826Y-10925531D01*
X18245826Y-10925531D02*
X18255350Y-10896960D01*
X18255350Y-10896960D02*
X18264874Y-10849341D01*
X18264874Y-10849341D02*
X18264874Y-10811246D01*
X18264874Y-10811246D02*
X18255350Y-10763627D01*
X18255350Y-10763627D02*
X18245826Y-10735055D01*
X18245826Y-10735055D02*
X18236302Y-10716008D01*
X18236302Y-10716008D02*
X18217255Y-10687436D01*
X18217255Y-10687436D02*
X18207731Y-10677912D01*
D10*
X11775620Y-11041000D02*
X11775620Y-11117000D01*
X11737620Y-11079000D02*
X11813620Y-11079000D01*
D11*
X12112492Y-10970484D02*
X12131540Y-10970484D01*
X12131540Y-10970484D02*
X12150587Y-10980008D01*
X12150587Y-10980008D02*
X12160111Y-10989531D01*
X12160111Y-10989531D02*
X12169635Y-11008579D01*
X12169635Y-11008579D02*
X12179159Y-11046674D01*
X12179159Y-11046674D02*
X12179159Y-11094293D01*
X12179159Y-11094293D02*
X12169635Y-11132389D01*
X12169635Y-11132389D02*
X12160111Y-11151436D01*
X12160111Y-11151436D02*
X12150587Y-11160960D01*
X12150587Y-11160960D02*
X12131540Y-11170484D01*
X12131540Y-11170484D02*
X12112492Y-11170484D01*
X12112492Y-11170484D02*
X12093444Y-11160960D01*
X12093444Y-11160960D02*
X12083921Y-11151436D01*
X12083921Y-11151436D02*
X12074397Y-11132389D01*
X12074397Y-11132389D02*
X12064873Y-11094293D01*
X12064873Y-11094293D02*
X12064873Y-11046674D01*
X12064873Y-11046674D02*
X12074397Y-11008579D01*
X12074397Y-11008579D02*
X12083921Y-10989531D01*
X12083921Y-10989531D02*
X12093444Y-10980008D01*
X12093444Y-10980008D02*
X12112492Y-10970484D01*
X12264873Y-11151436D02*
X12274397Y-11160960D01*
X12274397Y-11160960D02*
X12264873Y-11170484D01*
X12264873Y-11170484D02*
X12255349Y-11160960D01*
X12255349Y-11160960D02*
X12264873Y-11151436D01*
X12264873Y-11151436D02*
X12264873Y-11170484D01*
X12341063Y-10970484D02*
X12474397Y-10970484D01*
X12474397Y-10970484D02*
X12388682Y-11170484D01*
X12636302Y-10970484D02*
X12598206Y-10970484D01*
X12598206Y-10970484D02*
X12579159Y-10980008D01*
X12579159Y-10980008D02*
X12569635Y-10989531D01*
X12569635Y-10989531D02*
X12550587Y-11018103D01*
X12550587Y-11018103D02*
X12541063Y-11056198D01*
X12541063Y-11056198D02*
X12541063Y-11132389D01*
X12541063Y-11132389D02*
X12550587Y-11151436D01*
X12550587Y-11151436D02*
X12560111Y-11160960D01*
X12560111Y-11160960D02*
X12579159Y-11170484D01*
X12579159Y-11170484D02*
X12617254Y-11170484D01*
X12617254Y-11170484D02*
X12636302Y-11160960D01*
X12636302Y-11160960D02*
X12645825Y-11151436D01*
X12645825Y-11151436D02*
X12655349Y-11132389D01*
X12655349Y-11132389D02*
X12655349Y-11084770D01*
X12655349Y-11084770D02*
X12645825Y-11065722D01*
X12645825Y-11065722D02*
X12636302Y-11056198D01*
X12636302Y-11056198D02*
X12617254Y-11046674D01*
X12617254Y-11046674D02*
X12579159Y-11046674D01*
X12579159Y-11046674D02*
X12560111Y-11056198D01*
X12560111Y-11056198D02*
X12550587Y-11065722D01*
X12550587Y-11065722D02*
X12541063Y-11084770D01*
X12779159Y-10970484D02*
X12798206Y-10970484D01*
X12798206Y-10970484D02*
X12817254Y-10980008D01*
X12817254Y-10980008D02*
X12826778Y-10989531D01*
X12826778Y-10989531D02*
X12836302Y-11008579D01*
X12836302Y-11008579D02*
X12845825Y-11046674D01*
X12845825Y-11046674D02*
X12845825Y-11094293D01*
X12845825Y-11094293D02*
X12836302Y-11132389D01*
X12836302Y-11132389D02*
X12826778Y-11151436D01*
X12826778Y-11151436D02*
X12817254Y-11160960D01*
X12817254Y-11160960D02*
X12798206Y-11170484D01*
X12798206Y-11170484D02*
X12779159Y-11170484D01*
X12779159Y-11170484D02*
X12760111Y-11160960D01*
X12760111Y-11160960D02*
X12750587Y-11151436D01*
X12750587Y-11151436D02*
X12741063Y-11132389D01*
X12741063Y-11132389D02*
X12731540Y-11094293D01*
X12731540Y-11094293D02*
X12731540Y-11046674D01*
X12731540Y-11046674D02*
X12741063Y-11008579D01*
X12741063Y-11008579D02*
X12750587Y-10989531D01*
X12750587Y-10989531D02*
X12760111Y-10980008D01*
X12760111Y-10980008D02*
X12779159Y-10970484D01*
X12931540Y-11170484D02*
X12931540Y-11037150D01*
X12931540Y-11056198D02*
X12941063Y-11046674D01*
X12941063Y-11046674D02*
X12960111Y-11037150D01*
X12960111Y-11037150D02*
X12988683Y-11037150D01*
X12988683Y-11037150D02*
X13007730Y-11046674D01*
X13007730Y-11046674D02*
X13017254Y-11065722D01*
X13017254Y-11065722D02*
X13017254Y-11170484D01*
X13017254Y-11065722D02*
X13026778Y-11046674D01*
X13026778Y-11046674D02*
X13045825Y-11037150D01*
X13045825Y-11037150D02*
X13074397Y-11037150D01*
X13074397Y-11037150D02*
X13093444Y-11046674D01*
X13093444Y-11046674D02*
X13102968Y-11065722D01*
X13102968Y-11065722D02*
X13102968Y-11170484D01*
X13198206Y-11170484D02*
X13198206Y-11037150D01*
X13198206Y-11056198D02*
X13207730Y-11046674D01*
X13207730Y-11046674D02*
X13226778Y-11037150D01*
X13226778Y-11037150D02*
X13255349Y-11037150D01*
X13255349Y-11037150D02*
X13274397Y-11046674D01*
X13274397Y-11046674D02*
X13283921Y-11065722D01*
X13283921Y-11065722D02*
X13283921Y-11170484D01*
X13283921Y-11065722D02*
X13293444Y-11046674D01*
X13293444Y-11046674D02*
X13312492Y-11037150D01*
X13312492Y-11037150D02*
X13341063Y-11037150D01*
X13341063Y-11037150D02*
X13360111Y-11046674D01*
X13360111Y-11046674D02*
X13369635Y-11065722D01*
X13369635Y-11065722D02*
X13369635Y-11170484D01*
X13760111Y-10960960D02*
X13588683Y-11218103D01*
X14017254Y-10970484D02*
X14036302Y-10970484D01*
X14036302Y-10970484D02*
X14055349Y-10980008D01*
X14055349Y-10980008D02*
X14064873Y-10989531D01*
X14064873Y-10989531D02*
X14074397Y-11008579D01*
X14074397Y-11008579D02*
X14083921Y-11046674D01*
X14083921Y-11046674D02*
X14083921Y-11094293D01*
X14083921Y-11094293D02*
X14074397Y-11132389D01*
X14074397Y-11132389D02*
X14064873Y-11151436D01*
X14064873Y-11151436D02*
X14055349Y-11160960D01*
X14055349Y-11160960D02*
X14036302Y-11170484D01*
X14036302Y-11170484D02*
X14017254Y-11170484D01*
X14017254Y-11170484D02*
X13998206Y-11160960D01*
X13998206Y-11160960D02*
X13988683Y-11151436D01*
X13988683Y-11151436D02*
X13979159Y-11132389D01*
X13979159Y-11132389D02*
X13969635Y-11094293D01*
X13969635Y-11094293D02*
X13969635Y-11046674D01*
X13969635Y-11046674D02*
X13979159Y-11008579D01*
X13979159Y-11008579D02*
X13988683Y-10989531D01*
X13988683Y-10989531D02*
X13998206Y-10980008D01*
X13998206Y-10980008D02*
X14017254Y-10970484D01*
X14169635Y-11151436D02*
X14179159Y-11160960D01*
X14179159Y-11160960D02*
X14169635Y-11170484D01*
X14169635Y-11170484D02*
X14160111Y-11160960D01*
X14160111Y-11160960D02*
X14169635Y-11151436D01*
X14169635Y-11151436D02*
X14169635Y-11170484D01*
X14302968Y-10970484D02*
X14322016Y-10970484D01*
X14322016Y-10970484D02*
X14341064Y-10980008D01*
X14341064Y-10980008D02*
X14350587Y-10989531D01*
X14350587Y-10989531D02*
X14360111Y-11008579D01*
X14360111Y-11008579D02*
X14369635Y-11046674D01*
X14369635Y-11046674D02*
X14369635Y-11094293D01*
X14369635Y-11094293D02*
X14360111Y-11132389D01*
X14360111Y-11132389D02*
X14350587Y-11151436D01*
X14350587Y-11151436D02*
X14341064Y-11160960D01*
X14341064Y-11160960D02*
X14322016Y-11170484D01*
X14322016Y-11170484D02*
X14302968Y-11170484D01*
X14302968Y-11170484D02*
X14283921Y-11160960D01*
X14283921Y-11160960D02*
X14274397Y-11151436D01*
X14274397Y-11151436D02*
X14264873Y-11132389D01*
X14264873Y-11132389D02*
X14255349Y-11094293D01*
X14255349Y-11094293D02*
X14255349Y-11046674D01*
X14255349Y-11046674D02*
X14264873Y-11008579D01*
X14264873Y-11008579D02*
X14274397Y-10989531D01*
X14274397Y-10989531D02*
X14283921Y-10980008D01*
X14283921Y-10980008D02*
X14302968Y-10970484D01*
X14445826Y-10989531D02*
X14455349Y-10980008D01*
X14455349Y-10980008D02*
X14474397Y-10970484D01*
X14474397Y-10970484D02*
X14522016Y-10970484D01*
X14522016Y-10970484D02*
X14541064Y-10980008D01*
X14541064Y-10980008D02*
X14550587Y-10989531D01*
X14550587Y-10989531D02*
X14560111Y-11008579D01*
X14560111Y-11008579D02*
X14560111Y-11027627D01*
X14560111Y-11027627D02*
X14550587Y-11056198D01*
X14550587Y-11056198D02*
X14436302Y-11170484D01*
X14436302Y-11170484D02*
X14560111Y-11170484D01*
X14655349Y-11170484D02*
X14693445Y-11170484D01*
X14693445Y-11170484D02*
X14712492Y-11160960D01*
X14712492Y-11160960D02*
X14722016Y-11151436D01*
X14722016Y-11151436D02*
X14741064Y-11122865D01*
X14741064Y-11122865D02*
X14750587Y-11084770D01*
X14750587Y-11084770D02*
X14750587Y-11008579D01*
X14750587Y-11008579D02*
X14741064Y-10989531D01*
X14741064Y-10989531D02*
X14731540Y-10980008D01*
X14731540Y-10980008D02*
X14712492Y-10970484D01*
X14712492Y-10970484D02*
X14674397Y-10970484D01*
X14674397Y-10970484D02*
X14655349Y-10980008D01*
X14655349Y-10980008D02*
X14645826Y-10989531D01*
X14645826Y-10989531D02*
X14636302Y-11008579D01*
X14636302Y-11008579D02*
X14636302Y-11056198D01*
X14636302Y-11056198D02*
X14645826Y-11075246D01*
X14645826Y-11075246D02*
X14655349Y-11084770D01*
X14655349Y-11084770D02*
X14674397Y-11094293D01*
X14674397Y-11094293D02*
X14712492Y-11094293D01*
X14712492Y-11094293D02*
X14731540Y-11084770D01*
X14731540Y-11084770D02*
X14741064Y-11075246D01*
X14741064Y-11075246D02*
X14750587Y-11056198D01*
X14845826Y-11170484D02*
X14883921Y-11170484D01*
X14883921Y-11170484D02*
X14902968Y-11160960D01*
X14902968Y-11160960D02*
X14912492Y-11151436D01*
X14912492Y-11151436D02*
X14931540Y-11122865D01*
X14931540Y-11122865D02*
X14941064Y-11084770D01*
X14941064Y-11084770D02*
X14941064Y-11008579D01*
X14941064Y-11008579D02*
X14931540Y-10989531D01*
X14931540Y-10989531D02*
X14922016Y-10980008D01*
X14922016Y-10980008D02*
X14902968Y-10970484D01*
X14902968Y-10970484D02*
X14864873Y-10970484D01*
X14864873Y-10970484D02*
X14845826Y-10980008D01*
X14845826Y-10980008D02*
X14836302Y-10989531D01*
X14836302Y-10989531D02*
X14826778Y-11008579D01*
X14826778Y-11008579D02*
X14826778Y-11056198D01*
X14826778Y-11056198D02*
X14836302Y-11075246D01*
X14836302Y-11075246D02*
X14845826Y-11084770D01*
X14845826Y-11084770D02*
X14864873Y-11094293D01*
X14864873Y-11094293D02*
X14902968Y-11094293D01*
X14902968Y-11094293D02*
X14922016Y-11084770D01*
X14922016Y-11084770D02*
X14931540Y-11075246D01*
X14931540Y-11075246D02*
X14941064Y-11056198D01*
X15017254Y-10970484D02*
X15017254Y-11008579D01*
X15093445Y-10970484D02*
X15093445Y-11008579D01*
X15388683Y-11246674D02*
X15379159Y-11237150D01*
X15379159Y-11237150D02*
X15360111Y-11208579D01*
X15360111Y-11208579D02*
X15350588Y-11189531D01*
X15350588Y-11189531D02*
X15341064Y-11160960D01*
X15341064Y-11160960D02*
X15331540Y-11113341D01*
X15331540Y-11113341D02*
X15331540Y-11075246D01*
X15331540Y-11075246D02*
X15341064Y-11027627D01*
X15341064Y-11027627D02*
X15350588Y-10999055D01*
X15350588Y-10999055D02*
X15360111Y-10980008D01*
X15360111Y-10980008D02*
X15379159Y-10951436D01*
X15379159Y-10951436D02*
X15388683Y-10941912D01*
X15493445Y-11056198D02*
X15474397Y-11046674D01*
X15474397Y-11046674D02*
X15464873Y-11037150D01*
X15464873Y-11037150D02*
X15455349Y-11018103D01*
X15455349Y-11018103D02*
X15455349Y-11008579D01*
X15455349Y-11008579D02*
X15464873Y-10989531D01*
X15464873Y-10989531D02*
X15474397Y-10980008D01*
X15474397Y-10980008D02*
X15493445Y-10970484D01*
X15493445Y-10970484D02*
X15531540Y-10970484D01*
X15531540Y-10970484D02*
X15550588Y-10980008D01*
X15550588Y-10980008D02*
X15560111Y-10989531D01*
X15560111Y-10989531D02*
X15569635Y-11008579D01*
X15569635Y-11008579D02*
X15569635Y-11018103D01*
X15569635Y-11018103D02*
X15560111Y-11037150D01*
X15560111Y-11037150D02*
X15550588Y-11046674D01*
X15550588Y-11046674D02*
X15531540Y-11056198D01*
X15531540Y-11056198D02*
X15493445Y-11056198D01*
X15493445Y-11056198D02*
X15474397Y-11065722D01*
X15474397Y-11065722D02*
X15464873Y-11075246D01*
X15464873Y-11075246D02*
X15455349Y-11094293D01*
X15455349Y-11094293D02*
X15455349Y-11132389D01*
X15455349Y-11132389D02*
X15464873Y-11151436D01*
X15464873Y-11151436D02*
X15474397Y-11160960D01*
X15474397Y-11160960D02*
X15493445Y-11170484D01*
X15493445Y-11170484D02*
X15531540Y-11170484D01*
X15531540Y-11170484D02*
X15550588Y-11160960D01*
X15550588Y-11160960D02*
X15560111Y-11151436D01*
X15560111Y-11151436D02*
X15569635Y-11132389D01*
X15569635Y-11132389D02*
X15569635Y-11094293D01*
X15569635Y-11094293D02*
X15560111Y-11075246D01*
X15560111Y-11075246D02*
X15550588Y-11065722D01*
X15550588Y-11065722D02*
X15531540Y-11056198D01*
X15807730Y-11170484D02*
X15807730Y-10970484D01*
X15893445Y-11170484D02*
X15893445Y-11065722D01*
X15893445Y-11065722D02*
X15883921Y-11046674D01*
X15883921Y-11046674D02*
X15864873Y-11037150D01*
X15864873Y-11037150D02*
X15836302Y-11037150D01*
X15836302Y-11037150D02*
X15817254Y-11046674D01*
X15817254Y-11046674D02*
X15807730Y-11056198D01*
X16017254Y-11170484D02*
X15998207Y-11160960D01*
X15998207Y-11160960D02*
X15988683Y-11151436D01*
X15988683Y-11151436D02*
X15979159Y-11132389D01*
X15979159Y-11132389D02*
X15979159Y-11075246D01*
X15979159Y-11075246D02*
X15988683Y-11056198D01*
X15988683Y-11056198D02*
X15998207Y-11046674D01*
X15998207Y-11046674D02*
X16017254Y-11037150D01*
X16017254Y-11037150D02*
X16045826Y-11037150D01*
X16045826Y-11037150D02*
X16064873Y-11046674D01*
X16064873Y-11046674D02*
X16074397Y-11056198D01*
X16074397Y-11056198D02*
X16083921Y-11075246D01*
X16083921Y-11075246D02*
X16083921Y-11132389D01*
X16083921Y-11132389D02*
X16074397Y-11151436D01*
X16074397Y-11151436D02*
X16064873Y-11160960D01*
X16064873Y-11160960D02*
X16045826Y-11170484D01*
X16045826Y-11170484D02*
X16017254Y-11170484D01*
X16198207Y-11170484D02*
X16179159Y-11160960D01*
X16179159Y-11160960D02*
X16169635Y-11141912D01*
X16169635Y-11141912D02*
X16169635Y-10970484D01*
X16350588Y-11160960D02*
X16331540Y-11170484D01*
X16331540Y-11170484D02*
X16293445Y-11170484D01*
X16293445Y-11170484D02*
X16274397Y-11160960D01*
X16274397Y-11160960D02*
X16264873Y-11141912D01*
X16264873Y-11141912D02*
X16264873Y-11065722D01*
X16264873Y-11065722D02*
X16274397Y-11046674D01*
X16274397Y-11046674D02*
X16293445Y-11037150D01*
X16293445Y-11037150D02*
X16331540Y-11037150D01*
X16331540Y-11037150D02*
X16350588Y-11046674D01*
X16350588Y-11046674D02*
X16360111Y-11065722D01*
X16360111Y-11065722D02*
X16360111Y-11084770D01*
X16360111Y-11084770D02*
X16264873Y-11103817D01*
X16436302Y-11160960D02*
X16455350Y-11170484D01*
X16455350Y-11170484D02*
X16493445Y-11170484D01*
X16493445Y-11170484D02*
X16512492Y-11160960D01*
X16512492Y-11160960D02*
X16522016Y-11141912D01*
X16522016Y-11141912D02*
X16522016Y-11132389D01*
X16522016Y-11132389D02*
X16512492Y-11113341D01*
X16512492Y-11113341D02*
X16493445Y-11103817D01*
X16493445Y-11103817D02*
X16464873Y-11103817D01*
X16464873Y-11103817D02*
X16445826Y-11094293D01*
X16445826Y-11094293D02*
X16436302Y-11075246D01*
X16436302Y-11075246D02*
X16436302Y-11065722D01*
X16436302Y-11065722D02*
X16445826Y-11046674D01*
X16445826Y-11046674D02*
X16464873Y-11037150D01*
X16464873Y-11037150D02*
X16493445Y-11037150D01*
X16493445Y-11037150D02*
X16512492Y-11046674D01*
X16588683Y-11246674D02*
X16598207Y-11237150D01*
X16598207Y-11237150D02*
X16617254Y-11208579D01*
X16617254Y-11208579D02*
X16626778Y-11189531D01*
X16626778Y-11189531D02*
X16636302Y-11160960D01*
X16636302Y-11160960D02*
X16645826Y-11113341D01*
X16645826Y-11113341D02*
X16645826Y-11075246D01*
X16645826Y-11075246D02*
X16636302Y-11027627D01*
X16636302Y-11027627D02*
X16626778Y-10999055D01*
X16626778Y-10999055D02*
X16617254Y-10980008D01*
X16617254Y-10980008D02*
X16598207Y-10951436D01*
X16598207Y-10951436D02*
X16588683Y-10941912D01*
M02*
